<?xml version="1.0" encoding="UTF-8" standalone="no"?>
<!-- Generator: Adobe Illustrator 16.0.0, SVG Export Plug-In . SVG Version: 6.00 Build 0)  -->

<svg
   xmlns:dc="http://purl.org/dc/elements/1.1/"
   xmlns:cc="http://creativecommons.org/ns#"
   xmlns:rdf="http://www.w3.org/1999/02/22-rdf-syntax-ns#"
   xmlns:svg="http://www.w3.org/2000/svg"
   xmlns="http://www.w3.org/2000/svg"
   xmlns:sodipodi="http://sodipodi.sourceforge.net/DTD/sodipodi-0.dtd"
   xmlns:inkscape="http://www.inkscape.org/namespaces/inkscape"
   version="1.1"
   id="Warstwa_1"
   x="0px"
   y="0px"
   width="277.92999"
   height="68.040001"
   viewBox="0 0 277.93 68.04"
   enable-background="new 0 0 566.93 85.04"
   xml:space="preserve"
   sodipodi:docname="comiprzysluguje.svg"
   inkscape:version="0.92.2 2405546, 2018-03-11"><metadata
   id="metadata768"><rdf:RDF><cc:Work
       rdf:about=""><dc:format>image/svg+xml</dc:format><dc:type
         rdf:resource="http://purl.org/dc/dcmitype/StillImage" /><dc:title></dc:title></cc:Work></rdf:RDF></metadata><defs
   id="defs766" /><sodipodi:namedview
   pagecolor="#ffffff"
   bordercolor="#666666"
   borderopacity="1"
   objecttolerance="10"
   gridtolerance="10"
   guidetolerance="10"
   inkscape:pageopacity="0"
   inkscape:pageshadow="2"
   inkscape:window-width="1600"
   inkscape:window-height="857"
   id="namedview764"
   showgrid="false"
   inkscape:zoom="1.5116742"
   inkscape:cx="272.40217"
   inkscape:cy="24.478076"
   inkscape:window-x="0"
   inkscape:window-y="43"
   inkscape:window-maximized="0"
   inkscape:current-layer="Warstwa_1" />
<polygon
   stroke-miterlimit="10"
   points="277.965,0 277.965,64 1,67 1,7 "
   id="polygon727"
   transform="translate(0,0.86097498)"
   style="stroke:#ffffff;stroke-miterlimit:10" />
<g
   enable-background="new    "
   id="g761"
   transform="translate(3.3075911,0.19945698)">
	<path
   d="m 31.928,34.076 v -6.444 c 0,-0.479 -0.018,-0.869 -0.054,-1.17 -0.036,-0.3 -0.121,-0.527 -0.252,-0.684 -0.132,-0.156 -0.313,-0.264 -0.54,-0.324 -0.229,-0.06 -0.522,-0.09 -0.882,-0.09 -0.384,0 -0.69,0.03 -0.918,0.09 -0.229,0.061 -0.409,0.175 -0.54,0.342 -0.132,0.168 -0.216,0.402 -0.252,0.702 -0.036,0.301 -0.054,0.679 -0.054,1.134 v 17.172 c 0,0.504 0.018,0.906 0.054,1.206 0.036,0.301 0.12,0.534 0.252,0.702 0.131,0.168 0.312,0.282 0.54,0.342 0.228,0.061 0.534,0.091 0.918,0.091 0.36,0 0.653,-0.03 0.882,-0.091 0.228,-0.06 0.408,-0.174 0.54,-0.342 0.131,-0.168 0.216,-0.401 0.252,-0.702 0.036,-0.3 0.054,-0.702 0.054,-1.206 v -6.588 h 3.996 v 6.588 c 0,1.32 -0.078,2.376 -0.234,3.168 -0.156,0.792 -0.45,1.398 -0.882,1.818 -0.432,0.42 -1.021,0.696 -1.764,0.828 -0.744,0.132 -1.692,0.198 -2.844,0.198 -1.224,0 -2.22,-0.066 -2.988,-0.198 C 26.444,50.486 25.844,50.21 25.412,49.79 24.98,49.37 24.686,48.764 24.53,47.972 24.374,47.18 24.296,46.124 24.296,44.804 V 27.631 c 0,-1.296 0.084,-2.34 0.252,-3.132 0.168,-0.792 0.474,-1.397 0.918,-1.818 0.444,-0.419 1.05,-0.695 1.818,-0.827 0.768,-0.132 1.74,-0.198 2.916,-0.198 1.152,0 2.1,0.066 2.844,0.198 0.744,0.132 1.332,0.408 1.764,0.827 0.432,0.421 0.726,1.021 0.882,1.801 0.156,0.78 0.234,1.83 0.234,3.149 v 6.444 h -3.996 z"
   id="path729"
   inkscape:connector-curvature="0"
   style="fill:#ffffff" />
	<path
   d="m 50.36,44.803 c 0,1.32 -0.078,2.376 -0.234,3.168 -0.156,0.792 -0.456,1.398 -0.9,1.818 -0.444,0.42 -1.05,0.696 -1.818,0.828 -0.769,0.132 -1.764,0.198 -2.988,0.198 -1.224,0 -2.22,-0.066 -2.988,-0.198 -0.768,-0.132 -1.368,-0.408 -1.8,-0.828 C 39.2,49.369 38.906,48.763 38.75,47.971 38.594,47.179 38.516,46.123 38.516,44.803 V 27.631 c 0,-1.319 0.078,-2.369 0.234,-3.149 0.156,-0.78 0.45,-1.38 0.882,-1.801 0.432,-0.419 1.032,-0.695 1.8,-0.827 0.768,-0.132 1.764,-0.198 2.988,-0.198 1.224,0 2.219,0.066 2.988,0.198 0.768,0.132 1.374,0.408 1.818,0.827 0.444,0.421 0.744,1.021 0.9,1.801 0.156,0.78 0.234,1.83 0.234,3.149 z M 46.184,27.631 c 0,-0.959 -0.108,-1.577 -0.324,-1.854 -0.216,-0.276 -0.696,-0.414 -1.44,-0.414 -0.384,0 -0.69,0.03 -0.918,0.09 -0.229,0.061 -0.409,0.175 -0.54,0.342 -0.132,0.168 -0.216,0.402 -0.252,0.702 -0.036,0.301 -0.054,0.679 -0.054,1.134 v 17.172 c 0,0.504 0.018,0.906 0.054,1.206 0.036,0.301 0.12,0.534 0.252,0.702 0.131,0.168 0.312,0.282 0.54,0.342 0.228,0.061 0.534,0.091 0.918,0.091 0.383,0 0.689,-0.03 0.918,-0.091 0.228,-0.06 0.408,-0.18 0.54,-0.359 0.131,-0.181 0.216,-0.42 0.252,-0.721 0.036,-0.3 0.054,-0.689 0.054,-1.17 V 27.631 Z"
   id="path731"
   inkscape:connector-curvature="0"
   style="fill:#ffffff" />
	<path
   d="m 75.487,22.015 v 28.44 H 72.103 V 30.368 H 71.959 L 69.331,50.456 H 65.623 L 62.995,30.224 h -0.144 v 20.232 h -3.42 v -28.44 h 5.796 l 2.16,19.116 h 0.144 l 2.196,-19.116 h 5.76 z"
   id="path733"
   inkscape:connector-curvature="0"
   style="fill:#ffffff" />
	<path
   d="m 82.902,50.456 h -4.14 v -28.44 h 4.14 z"
   id="path735"
   inkscape:connector-curvature="0"
   style="fill:#ffffff" />
	<path
   d="m 96.51,39.692 v 10.764 h -4.14 v -28.44 h 5.904 c 1.224,0 2.22,0.066 2.988,0.198 0.768,0.133 1.374,0.402 1.818,0.811 0.444,0.408 0.744,0.989 0.9,1.746 0.156,0.756 0.234,1.77 0.234,3.042 v 6.084 c 0,1.271 -0.084,2.292 -0.252,3.06 -0.168,0.769 -0.474,1.356 -0.918,1.764 -0.444,0.409 -1.05,0.673 -1.818,0.792 -0.769,0.121 -1.752,0.181 -2.952,0.181 H 96.51 Z m 0,-14.076 v 10.728 h 1.764 c 0.36,0 0.66,-0.029 0.9,-0.09 0.239,-0.06 0.419,-0.174 0.54,-0.342 0.12,-0.168 0.204,-0.401 0.252,-0.702 0.048,-0.3 0.072,-0.689 0.072,-1.17 v -6.228 c 0,-0.456 -0.018,-0.828 -0.054,-1.116 C 99.948,26.408 99.87,26.186 99.75,26.03 99.63,25.874 99.456,25.766 99.228,25.706 99,25.646 98.682,25.616 98.274,25.616 Z"
   id="path737"
   inkscape:connector-curvature="0"
   style="fill:#ffffff" />
	<path
   d="m 110.802,50.456 h -4.14 v -28.44 h 5.904 c 1.224,0 2.22,0.066 2.988,0.198 0.768,0.133 1.374,0.408 1.818,0.828 0.444,0.42 0.744,1.008 0.9,1.764 0.156,0.757 0.234,1.759 0.234,3.007 V 30.8 c 0,0.744 -0.079,1.351 -0.234,1.818 -0.156,0.468 -0.36,0.846 -0.612,1.134 -0.252,0.288 -0.528,0.498 -0.828,0.63 -0.3,0.133 -0.594,0.234 -0.882,0.307 v 0.144 c 0.384,0.097 0.732,0.223 1.044,0.378 0.312,0.156 0.582,0.396 0.81,0.72 0.228,0.324 0.401,0.738 0.522,1.242 0.12,0.504 0.18,1.152 0.18,1.944 v 11.34 h -4.176 v -11.99 c 0,-0.768 -0.096,-1.302 -0.288,-1.602 -0.192,-0.3 -0.648,-0.45 -1.368,-0.45 h -1.872 z m 0,-17.317 h 1.872 c 0.671,0 1.116,-0.131 1.332,-0.396 0.216,-0.264 0.324,-0.744 0.324,-1.44 v -3.491 c 0,-0.456 -0.018,-0.822 -0.054,-1.099 -0.036,-0.275 -0.114,-0.498 -0.234,-0.666 -0.12,-0.167 -0.3,-0.281 -0.54,-0.342 -0.24,-0.06 -0.552,-0.09 -0.936,-0.09 h -1.764 z"
   id="path739"
   inkscape:connector-curvature="0"
   style="fill:#ffffff" />
	<path
   d="m 130.494,50.456 h -9.972 v -3.6 l 5.724,-21.385 h -5.148 v -3.456 h 9.324 v 2.809 l -5.58,22.067 h 5.652 z"
   id="path741"
   inkscape:connector-curvature="0"
   style="fill:#ffffff" />
	<path
   d="m 143.777,22.015 -4.248,18.396 v 10.044 h -4.14 V 40.412 l -4.104,-18.396 h 4.104 l 2.052,12.853 h 0.144 l 2.16,-12.853 h 4.032 z"
   id="path743"
   inkscape:connector-curvature="0"
   style="fill:#ffffff" />
	<path
   d="m 152.453,31.232 v -3.528 c 0,-0.504 -0.018,-0.912 -0.054,-1.224 -0.036,-0.313 -0.114,-0.546 -0.234,-0.702 -0.121,-0.156 -0.3,-0.264 -0.54,-0.324 -0.24,-0.06 -0.552,-0.09 -0.936,-0.09 -0.408,0 -0.726,0.03 -0.954,0.09 -0.228,0.061 -0.402,0.168 -0.522,0.324 -0.12,0.156 -0.198,0.39 -0.234,0.702 -0.036,0.312 -0.054,0.72 -0.054,1.224 v 2.808 c 0,0.36 0.024,0.661 0.072,0.9 0.048,0.24 0.149,0.456 0.306,0.647 0.156,0.192 0.383,0.385 0.684,0.576 0.3,0.192 0.714,0.421 1.242,0.685 1.248,0.647 2.232,1.2 2.952,1.655 0.72,0.457 1.26,0.919 1.62,1.387 0.36,0.468 0.587,0.996 0.684,1.584 0.096,0.588 0.144,1.35 0.144,2.286 v 4.571 c 0,1.32 -0.078,2.376 -0.234,3.168 -0.156,0.792 -0.45,1.398 -0.882,1.818 -0.432,0.42 -1.039,0.696 -1.818,0.828 -0.779,0.132 -1.782,0.198 -3.006,0.198 -1.152,0 -2.1,-0.066 -2.844,-0.198 -0.744,-0.132 -1.332,-0.408 -1.764,-0.828 -0.432,-0.42 -0.732,-1.026 -0.9,-1.818 -0.168,-0.792 -0.252,-1.848 -0.252,-3.168 v -5.651 h 4.032 v 5.651 c 0,0.504 0.018,0.906 0.054,1.206 0.036,0.301 0.113,0.534 0.234,0.702 0.12,0.168 0.293,0.282 0.522,0.342 0.228,0.061 0.534,0.091 0.918,0.091 0.768,0 1.254,-0.145 1.458,-0.433 0.204,-0.288 0.306,-0.924 0.306,-1.908 V 40.52 c 0,-0.48 -0.018,-0.876 -0.054,-1.188 -0.036,-0.312 -0.132,-0.588 -0.288,-0.828 -0.156,-0.239 -0.39,-0.462 -0.702,-0.666 -0.313,-0.203 -0.732,-0.45 -1.26,-0.738 -1.248,-0.647 -2.226,-1.199 -2.934,-1.655 -0.708,-0.456 -1.242,-0.918 -1.602,-1.387 -0.36,-0.468 -0.588,-0.983 -0.684,-1.548 -0.096,-0.563 -0.144,-1.254 -0.144,-2.069 v -2.736 c 0,-1.319 0.078,-2.376 0.234,-3.168 0.156,-0.792 0.45,-1.404 0.882,-1.836 0.432,-0.433 1.032,-0.714 1.8,-0.846 0.768,-0.132 1.764,-0.198 2.988,-0.198 1.2,0 2.178,0.066 2.934,0.198 0.756,0.132 1.344,0.413 1.764,0.846 0.419,0.432 0.708,1.044 0.864,1.836 0.156,0.792 0.234,1.849 0.234,3.168 v 3.528 h -4.032 z"
   id="path745"
   inkscape:connector-curvature="0"
   style="fill:#ffffff" />
	<path
   d="m 166.528,31.087 -2.988,1.368 v 14.4 h 4.248 v 3.6 h -8.352 V 34.112 l -1.332,0.54 v -3.276 l 1.332,-0.54 v -8.82 h 4.104 v 7.164 l 2.988,-1.367 z"
   id="path747"
   inkscape:connector-curvature="0"
   style="fill:#ffffff" />
	<path
   d="m 175.564,50.816 c -1.201,0 -2.178,-0.066 -2.934,-0.198 -0.756,-0.132 -1.35,-0.408 -1.782,-0.828 -0.432,-0.42 -0.732,-1.026 -0.9,-1.818 -0.168,-0.792 -0.252,-1.848 -0.252,-3.168 V 22.015 h 4.14 v 22.788 c 0,0.504 0.023,0.906 0.072,1.206 0.048,0.301 0.138,0.528 0.27,0.685 0.132,0.157 0.312,0.264 0.54,0.323 0.228,0.061 0.534,0.091 0.918,0.091 0.36,0 0.654,-0.03 0.882,-0.091 0.228,-0.06 0.401,-0.167 0.522,-0.323 0.12,-0.156 0.204,-0.384 0.252,-0.685 0.048,-0.3 0.072,-0.702 0.072,-1.206 V 22.015 h 4.032 v 22.788 c 0,1.32 -0.084,2.376 -0.252,3.168 -0.168,0.792 -0.468,1.398 -0.9,1.818 -0.432,0.42 -1.026,0.696 -1.782,0.828 -0.756,0.132 -1.722,0.199 -2.898,0.199 z"
   id="path749"
   inkscape:connector-curvature="0"
   style="fill:#ffffff" />
	<path
   d="m 191.765,30.223 v -2.592 c 0,-0.479 -0.018,-0.869 -0.054,-1.17 -0.036,-0.3 -0.121,-0.527 -0.252,-0.684 -0.132,-0.156 -0.313,-0.264 -0.54,-0.324 -0.229,-0.06 -0.522,-0.09 -0.882,-0.09 -0.384,0 -0.69,0.03 -0.918,0.09 -0.229,0.061 -0.409,0.175 -0.54,0.342 -0.132,0.168 -0.216,0.402 -0.252,0.702 -0.036,0.301 -0.054,0.679 -0.054,1.134 v 17.172 c 0,0.48 0.018,0.87 0.054,1.17 0.036,0.301 0.12,0.535 0.252,0.702 0.131,0.169 0.312,0.288 0.54,0.36 0.228,0.072 0.534,0.108 0.918,0.108 0.479,0 0.87,-0.013 1.17,-0.036 0.3,-0.024 0.522,-0.06 0.666,-0.108 V 33.931 h 3.888 v 16.524 c -0.336,0.072 -0.978,0.149 -1.926,0.234 -0.948,0.083 -2.214,0.126 -3.798,0.126 -1.224,0 -2.22,-0.078 -2.988,-0.234 -0.768,-0.156 -1.368,-0.456 -1.8,-0.9 -0.432,-0.443 -0.726,-1.056 -0.882,-1.836 -0.156,-0.779 -0.234,-1.794 -0.234,-3.042 V 27.631 c 0,-1.296 0.084,-2.34 0.252,-3.132 0.168,-0.792 0.474,-1.397 0.918,-1.818 0.444,-0.419 1.05,-0.695 1.818,-0.827 0.768,-0.132 1.74,-0.198 2.916,-0.198 1.152,0 2.1,0.066 2.844,0.198 0.744,0.132 1.332,0.408 1.764,0.827 0.432,0.421 0.726,1.021 0.882,1.801 0.156,0.78 0.234,1.83 0.234,3.149 v 2.592 z"
   id="path751"
   inkscape:connector-curvature="0"
   style="fill:#ffffff" />
	<path
   d="m 204.508,50.816 c -1.201,0 -2.178,-0.066 -2.934,-0.198 -0.756,-0.132 -1.35,-0.408 -1.782,-0.828 -0.432,-0.42 -0.732,-1.026 -0.9,-1.818 -0.168,-0.792 -0.252,-1.848 -0.252,-3.168 V 22.015 h 4.14 v 22.788 c 0,0.504 0.023,0.906 0.072,1.206 0.048,0.301 0.138,0.528 0.27,0.685 0.132,0.157 0.312,0.264 0.54,0.323 0.228,0.061 0.534,0.091 0.918,0.091 0.36,0 0.654,-0.03 0.882,-0.091 0.228,-0.06 0.401,-0.167 0.522,-0.323 0.12,-0.156 0.204,-0.384 0.252,-0.685 0.048,-0.3 0.072,-0.702 0.072,-1.206 V 22.015 h 4.032 v 22.788 c 0,1.32 -0.084,2.376 -0.252,3.168 -0.168,0.792 -0.468,1.398 -0.9,1.818 -0.432,0.42 -1.026,0.696 -1.782,0.828 -0.756,0.132 -1.723,0.199 -2.898,0.199 z"
   id="path753"
   inkscape:connector-curvature="0"
   style="fill:#ffffff" />
	<path
   d="m 212.284,38.215 h 3.78 v 6.588 c 0,0.984 0.108,1.62 0.324,1.908 0.216,0.288 0.672,0.433 1.368,0.433 0.72,0 1.182,-0.15 1.386,-0.45 0.204,-0.3 0.306,-0.93 0.306,-1.891 V 22.015 h 4.176 v 22.788 c 0,1.32 -0.079,2.376 -0.234,3.168 -0.156,0.792 -0.444,1.398 -0.864,1.818 -0.42,0.42 -1.008,0.696 -1.764,0.828 -0.756,0.132 -1.734,0.198 -2.934,0.198 -1.128,0 -2.052,-0.066 -2.772,-0.198 -0.72,-0.132 -1.284,-0.408 -1.692,-0.828 -0.408,-0.42 -0.69,-1.026 -0.846,-1.818 -0.156,-0.792 -0.234,-1.848 -0.234,-3.168 z"
   id="path755"
   inkscape:connector-curvature="0"
   style="fill:#ffffff" />
	<path
   d="m 234.964,50.456 h -8.136 v -28.44 h 8.1 v 3.421 h -3.96 v 4.14 h 3.852 v 3.276 h -3.852 v 14.039 h 3.996 z"
   id="path757"
   inkscape:connector-curvature="0"
   style="fill:#ffffff" />
	<path
   d="m 240.615,41.347 c 0,-0.575 0.018,-1.067 0.054,-1.476 0.036,-0.408 0.096,-0.792 0.18,-1.152 0.084,-0.359 0.198,-0.702 0.342,-1.025 0.144,-0.324 0.336,-0.678 0.576,-1.063 l 1.98,-3.132 c 0.288,-0.456 0.474,-0.882 0.558,-1.278 0.084,-0.396 0.126,-0.966 0.126,-1.71 v -2.88 c 0,-0.479 -0.024,-0.869 -0.072,-1.17 -0.049,-0.3 -0.132,-0.527 -0.252,-0.684 -0.12,-0.157 -0.294,-0.264 -0.522,-0.324 -0.228,-0.06 -0.534,-0.09 -0.918,-0.09 -0.408,0 -0.726,0.03 -0.954,0.09 -0.229,0.061 -0.402,0.175 -0.522,0.342 -0.12,0.168 -0.198,0.402 -0.234,0.702 -0.036,0.301 -0.054,0.679 -0.054,1.134 v 3.601 h -4.032 v -3.601 c 0,-1.319 0.078,-2.369 0.234,-3.149 0.156,-0.78 0.45,-1.38 0.882,-1.801 0.432,-0.419 1.026,-0.695 1.782,-0.827 0.756,-0.132 1.722,-0.198 2.898,-0.198 1.224,0 2.22,0.066 2.988,0.198 0.768,0.132 1.368,0.408 1.8,0.827 0.432,0.421 0.732,1.021 0.9,1.801 0.168,0.78 0.252,1.83 0.252,3.149 v 2.557 c 0,0.624 -0.018,1.151 -0.054,1.584 -0.036,0.432 -0.103,0.827 -0.198,1.188 -0.096,0.36 -0.228,0.715 -0.396,1.063 -0.168,0.348 -0.396,0.737 -0.684,1.17 l -2.484,3.96 c -0.144,0.216 -0.258,0.408 -0.342,0.576 -0.084,0.168 -0.15,0.336 -0.198,0.504 -0.048,0.168 -0.078,0.354 -0.09,0.558 -0.012,0.204 -0.018,0.45 -0.018,0.738 v 2.124 h -3.528 z m 3.708,9.109 h -3.78 V 45.74 h 3.78 z"
   id="path759"
   inkscape:connector-curvature="0"
   style="fill:#ffffff" />
</g>
</svg>