<?xml version="1.0" encoding="utf-8"?>
<!-- Generator: Adobe Illustrator 16.0.0, SVG Export Plug-In . SVG Version: 6.00 Build 0)  -->
<!DOCTYPE svg PUBLIC "-//W3C//DTD SVG 1.1//EN" "http://www.w3.org/Graphics/SVG/1.1/DTD/svg11.dtd">
<svg version="1.1" id="Warstwa_1" xmlns="http://www.w3.org/2000/svg" xmlns:xlink="http://www.w3.org/1999/xlink" x="0px" y="0px"
	 width="566.93px" height="85.04px" viewBox="0 0 566.93 85.04" enable-background="new 0 0 566.93 85.04" xml:space="preserve">
<polygon stroke="#FFFFFF" stroke-miterlimit="10" points="277.965,64 1,67 1,7 277.965,0 "/>
<g enable-background="new    ">
	<path fill="#FFFFFF" d="M31.928,34.076v-6.444c0-0.479-0.018-0.869-0.054-1.17c-0.036-0.3-0.121-0.527-0.252-0.684
		c-0.132-0.156-0.313-0.264-0.54-0.324c-0.229-0.06-0.522-0.09-0.882-0.09c-0.384,0-0.69,0.03-0.918,0.09
		c-0.229,0.061-0.409,0.175-0.54,0.342c-0.132,0.168-0.216,0.402-0.252,0.702c-0.036,0.301-0.054,0.679-0.054,1.134v17.172
		c0,0.504,0.018,0.906,0.054,1.206c0.036,0.301,0.12,0.534,0.252,0.702c0.131,0.168,0.312,0.282,0.54,0.342
		c0.228,0.061,0.534,0.091,0.918,0.091c0.36,0,0.653-0.03,0.882-0.091c0.228-0.06,0.408-0.174,0.54-0.342
		c0.131-0.168,0.216-0.401,0.252-0.702c0.036-0.3,0.054-0.702,0.054-1.206v-6.588h3.996v6.588c0,1.32-0.078,2.376-0.234,3.168
		c-0.156,0.792-0.45,1.398-0.882,1.818s-1.021,0.696-1.764,0.828c-0.744,0.132-1.692,0.198-2.844,0.198
		c-1.224,0-2.22-0.066-2.988-0.198s-1.368-0.408-1.8-0.828s-0.726-1.026-0.882-1.818s-0.234-1.848-0.234-3.168V27.631
		c0-1.296,0.084-2.34,0.252-3.132s0.474-1.397,0.918-1.818c0.444-0.419,1.05-0.695,1.818-0.827c0.768-0.132,1.74-0.198,2.916-0.198
		c1.152,0,2.1,0.066,2.844,0.198c0.744,0.132,1.332,0.408,1.764,0.827c0.432,0.421,0.726,1.021,0.882,1.801
		c0.156,0.78,0.234,1.83,0.234,3.149v6.444H31.928z"/>
	<path fill="#FFFFFF" d="M50.36,44.803c0,1.32-0.078,2.376-0.234,3.168s-0.456,1.398-0.9,1.818c-0.444,0.42-1.05,0.696-1.818,0.828
		c-0.769,0.132-1.764,0.198-2.988,0.198c-1.224,0-2.22-0.066-2.988-0.198s-1.368-0.408-1.8-0.828s-0.726-1.026-0.882-1.818
		s-0.234-1.848-0.234-3.168V27.631c0-1.319,0.078-2.369,0.234-3.149s0.45-1.38,0.882-1.801c0.432-0.419,1.032-0.695,1.8-0.827
		s1.764-0.198,2.988-0.198c1.224,0,2.219,0.066,2.988,0.198c0.768,0.132,1.374,0.408,1.818,0.827c0.444,0.421,0.744,1.021,0.9,1.801
		s0.234,1.83,0.234,3.149V44.803z M46.184,27.631c0-0.959-0.108-1.577-0.324-1.854c-0.216-0.276-0.696-0.414-1.44-0.414
		c-0.384,0-0.69,0.03-0.918,0.09c-0.229,0.061-0.409,0.175-0.54,0.342c-0.132,0.168-0.216,0.402-0.252,0.702
		c-0.036,0.301-0.054,0.679-0.054,1.134v17.172c0,0.504,0.018,0.906,0.054,1.206c0.036,0.301,0.12,0.534,0.252,0.702
		c0.131,0.168,0.312,0.282,0.54,0.342c0.228,0.061,0.534,0.091,0.918,0.091c0.383,0,0.689-0.03,0.918-0.091
		c0.228-0.06,0.408-0.18,0.54-0.359c0.131-0.181,0.216-0.42,0.252-0.721c0.036-0.3,0.054-0.689,0.054-1.17V27.631z"/>
	<path fill="#FFFFFF" d="M75.487,22.015v28.44h-3.384V30.368h-0.144l-2.628,20.088h-3.708l-2.628-20.232h-0.144v20.232h-3.42v-28.44
		h5.796l2.16,19.116h0.144l2.196-19.116H75.487z"/>
	<path fill="#FFFFFF" d="M82.902,50.456h-4.14v-28.44h4.14V50.456z"/>
	<path fill="#FFFFFF" d="M96.51,39.692v10.764h-4.14v-28.44h5.904c1.224,0,2.22,0.066,2.988,0.198
		c0.768,0.133,1.374,0.402,1.818,0.811c0.444,0.408,0.744,0.989,0.9,1.746c0.156,0.756,0.234,1.77,0.234,3.042v6.084
		c0,1.271-0.084,2.292-0.252,3.06c-0.168,0.769-0.474,1.356-0.918,1.764c-0.444,0.409-1.05,0.673-1.818,0.792
		c-0.769,0.121-1.752,0.181-2.952,0.181H96.51z M96.51,25.616v10.728h1.764c0.36,0,0.66-0.029,0.9-0.09
		c0.239-0.06,0.419-0.174,0.54-0.342c0.12-0.168,0.204-0.401,0.252-0.702c0.048-0.3,0.072-0.689,0.072-1.17v-6.228
		c0-0.456-0.018-0.828-0.054-1.116c-0.036-0.288-0.114-0.51-0.234-0.666s-0.294-0.264-0.522-0.324
		c-0.228-0.06-0.546-0.09-0.954-0.09H96.51z"/>
	<path fill="#FFFFFF" d="M110.802,50.456h-4.14v-28.44h5.904c1.224,0,2.22,0.066,2.988,0.198c0.768,0.133,1.374,0.408,1.818,0.828
		c0.444,0.42,0.744,1.008,0.9,1.764c0.156,0.757,0.234,1.759,0.234,3.007v2.987c0,0.744-0.079,1.351-0.234,1.818
		c-0.156,0.468-0.36,0.846-0.612,1.134s-0.528,0.498-0.828,0.63c-0.3,0.133-0.594,0.234-0.882,0.307v0.144
		c0.384,0.097,0.732,0.223,1.044,0.378c0.312,0.156,0.582,0.396,0.81,0.72c0.228,0.324,0.401,0.738,0.522,1.242
		c0.12,0.504,0.18,1.152,0.18,1.944v11.34h-4.176V38.467c0-0.768-0.096-1.302-0.288-1.602c-0.192-0.3-0.648-0.45-1.368-0.45h-1.872
		V50.456z M110.802,33.139h1.872c0.671,0,1.116-0.131,1.332-0.396c0.216-0.264,0.324-0.744,0.324-1.44v-3.491
		c0-0.456-0.018-0.822-0.054-1.099c-0.036-0.275-0.114-0.498-0.234-0.666c-0.12-0.167-0.3-0.281-0.54-0.342
		c-0.24-0.06-0.552-0.09-0.936-0.09h-1.764V33.139z"/>
	<path fill="#FFFFFF" d="M130.494,50.456h-9.972v-3.6l5.724-21.385h-5.148v-3.456h9.324v2.809l-5.58,22.067h5.652V50.456z"/>
	<path fill="#FFFFFF" d="M143.777,22.015l-4.248,18.396v10.044h-4.14V40.412l-4.104-18.396h4.104l2.052,12.853h0.144l2.16-12.853
		H143.777z"/>
	<path fill="#FFFFFF" d="M152.453,31.232v-3.528c0-0.504-0.018-0.912-0.054-1.224c-0.036-0.313-0.114-0.546-0.234-0.702
		c-0.121-0.156-0.3-0.264-0.54-0.324c-0.24-0.06-0.552-0.09-0.936-0.09c-0.408,0-0.726,0.03-0.954,0.09
		c-0.228,0.061-0.402,0.168-0.522,0.324s-0.198,0.39-0.234,0.702c-0.036,0.312-0.054,0.72-0.054,1.224v2.808
		c0,0.36,0.024,0.661,0.072,0.9c0.048,0.24,0.149,0.456,0.306,0.647c0.156,0.192,0.383,0.385,0.684,0.576
		c0.3,0.192,0.714,0.421,1.242,0.685c1.248,0.647,2.232,1.2,2.952,1.655c0.72,0.457,1.26,0.919,1.62,1.387
		c0.36,0.468,0.587,0.996,0.684,1.584c0.096,0.588,0.144,1.35,0.144,2.286v4.571c0,1.32-0.078,2.376-0.234,3.168
		c-0.156,0.792-0.45,1.398-0.882,1.818c-0.432,0.42-1.039,0.696-1.818,0.828s-1.782,0.198-3.006,0.198
		c-1.152,0-2.1-0.066-2.844-0.198c-0.744-0.132-1.332-0.408-1.764-0.828s-0.732-1.026-0.9-1.818
		c-0.168-0.792-0.252-1.848-0.252-3.168v-5.651h4.032v5.651c0,0.504,0.018,0.906,0.054,1.206c0.036,0.301,0.113,0.534,0.234,0.702
		c0.12,0.168,0.293,0.282,0.522,0.342c0.228,0.061,0.534,0.091,0.918,0.091c0.768,0,1.254-0.145,1.458-0.433
		c0.204-0.288,0.306-0.924,0.306-1.908V40.52c0-0.48-0.018-0.876-0.054-1.188c-0.036-0.312-0.132-0.588-0.288-0.828
		c-0.156-0.239-0.39-0.462-0.702-0.666c-0.313-0.203-0.732-0.45-1.26-0.738c-1.248-0.647-2.226-1.199-2.934-1.655
		s-1.242-0.918-1.602-1.387c-0.36-0.468-0.588-0.983-0.684-1.548c-0.096-0.563-0.144-1.254-0.144-2.069v-2.736
		c0-1.319,0.078-2.376,0.234-3.168c0.156-0.792,0.45-1.404,0.882-1.836c0.432-0.433,1.032-0.714,1.8-0.846
		c0.768-0.132,1.764-0.198,2.988-0.198c1.2,0,2.178,0.066,2.934,0.198s1.344,0.413,1.764,0.846c0.419,0.432,0.708,1.044,0.864,1.836
		c0.156,0.792,0.234,1.849,0.234,3.168v3.528H152.453z"/>
	<path fill="#FFFFFF" d="M166.528,31.087l-2.988,1.368v14.4h4.248v3.6h-8.352V34.112l-1.332,0.54v-3.276l1.332-0.54v-8.82h4.104
		v7.164l2.988-1.367V31.087z"/>
	<path fill="#FFFFFF" d="M175.564,50.816c-1.201,0-2.178-0.066-2.934-0.198s-1.35-0.408-1.782-0.828
		c-0.432-0.42-0.732-1.026-0.9-1.818s-0.252-1.848-0.252-3.168V22.015h4.14v22.788c0,0.504,0.023,0.906,0.072,1.206
		c0.048,0.301,0.138,0.528,0.27,0.685s0.312,0.264,0.54,0.323c0.228,0.061,0.534,0.091,0.918,0.091c0.36,0,0.654-0.03,0.882-0.091
		c0.228-0.06,0.401-0.167,0.522-0.323c0.12-0.156,0.204-0.384,0.252-0.685c0.048-0.3,0.072-0.702,0.072-1.206V22.015h4.032v22.788
		c0,1.32-0.084,2.376-0.252,3.168c-0.168,0.792-0.468,1.398-0.9,1.818c-0.432,0.42-1.026,0.696-1.782,0.828
		S176.74,50.816,175.564,50.816z"/>
	<path fill="#FFFFFF" d="M191.765,30.223v-2.592c0-0.479-0.018-0.869-0.054-1.17c-0.036-0.3-0.121-0.527-0.252-0.684
		c-0.132-0.156-0.313-0.264-0.54-0.324c-0.229-0.06-0.522-0.09-0.882-0.09c-0.384,0-0.69,0.03-0.918,0.09
		c-0.229,0.061-0.409,0.175-0.54,0.342c-0.132,0.168-0.216,0.402-0.252,0.702c-0.036,0.301-0.054,0.679-0.054,1.134v17.172
		c0,0.48,0.018,0.87,0.054,1.17c0.036,0.301,0.12,0.535,0.252,0.702c0.131,0.169,0.312,0.288,0.54,0.36
		c0.228,0.072,0.534,0.108,0.918,0.108c0.479,0,0.87-0.013,1.17-0.036c0.3-0.024,0.522-0.06,0.666-0.108V33.931h3.888v16.524
		c-0.336,0.072-0.978,0.149-1.926,0.234c-0.948,0.083-2.214,0.126-3.798,0.126c-1.224,0-2.22-0.078-2.988-0.234
		s-1.368-0.456-1.8-0.9c-0.432-0.443-0.726-1.056-0.882-1.836c-0.156-0.779-0.234-1.794-0.234-3.042V27.631
		c0-1.296,0.084-2.34,0.252-3.132s0.474-1.397,0.918-1.818c0.444-0.419,1.05-0.695,1.818-0.827c0.768-0.132,1.74-0.198,2.916-0.198
		c1.152,0,2.1,0.066,2.844,0.198c0.744,0.132,1.332,0.408,1.764,0.827c0.432,0.421,0.726,1.021,0.882,1.801
		c0.156,0.78,0.234,1.83,0.234,3.149v2.592H191.765z"/>
	<path fill="#FFFFFF" d="M204.508,50.816c-1.201,0-2.178-0.066-2.934-0.198s-1.35-0.408-1.782-0.828
		c-0.432-0.42-0.732-1.026-0.9-1.818s-0.252-1.848-0.252-3.168V22.015h4.14v22.788c0,0.504,0.023,0.906,0.072,1.206
		c0.048,0.301,0.138,0.528,0.27,0.685s0.312,0.264,0.54,0.323c0.228,0.061,0.534,0.091,0.918,0.091c0.36,0,0.654-0.03,0.882-0.091
		c0.228-0.06,0.401-0.167,0.522-0.323c0.12-0.156,0.204-0.384,0.252-0.685c0.048-0.3,0.072-0.702,0.072-1.206V22.015h4.032v22.788
		c0,1.32-0.084,2.376-0.252,3.168c-0.168,0.792-0.468,1.398-0.9,1.818c-0.432,0.42-1.026,0.696-1.782,0.828
		S205.683,50.816,204.508,50.816z"/>
	<path fill="#FFFFFF" d="M212.284,38.215h3.78v6.588c0,0.984,0.108,1.62,0.324,1.908c0.216,0.288,0.672,0.433,1.368,0.433
		c0.72,0,1.182-0.15,1.386-0.45c0.204-0.3,0.306-0.93,0.306-1.891V22.015h4.176v22.788c0,1.32-0.079,2.376-0.234,3.168
		c-0.156,0.792-0.444,1.398-0.864,1.818c-0.42,0.42-1.008,0.696-1.764,0.828s-1.734,0.198-2.934,0.198
		c-1.128,0-2.052-0.066-2.772-0.198c-0.72-0.132-1.284-0.408-1.692-0.828c-0.408-0.42-0.69-1.026-0.846-1.818
		s-0.234-1.848-0.234-3.168V38.215z"/>
	<path fill="#FFFFFF" d="M234.964,50.456h-8.136v-28.44h8.1v3.421h-3.96v4.14h3.852v3.276h-3.852v14.039h3.996V50.456z"/>
	<path fill="#FFFFFF" d="M240.615,41.347c0-0.575,0.018-1.067,0.054-1.476c0.036-0.408,0.096-0.792,0.18-1.152
		c0.084-0.359,0.198-0.702,0.342-1.025c0.144-0.324,0.336-0.678,0.576-1.063l1.98-3.132c0.288-0.456,0.474-0.882,0.558-1.278
		c0.084-0.396,0.126-0.966,0.126-1.71v-2.88c0-0.479-0.024-0.869-0.072-1.17c-0.049-0.3-0.132-0.527-0.252-0.684
		s-0.294-0.264-0.522-0.324c-0.228-0.06-0.534-0.09-0.918-0.09c-0.408,0-0.726,0.03-0.954,0.09
		c-0.229,0.061-0.402,0.175-0.522,0.342c-0.12,0.168-0.198,0.402-0.234,0.702c-0.036,0.301-0.054,0.679-0.054,1.134v3.601h-4.032
		v-3.601c0-1.319,0.078-2.369,0.234-3.149c0.156-0.78,0.45-1.38,0.882-1.801c0.432-0.419,1.026-0.695,1.782-0.827
		c0.756-0.132,1.722-0.198,2.898-0.198c1.224,0,2.22,0.066,2.988,0.198c0.768,0.132,1.368,0.408,1.8,0.827
		c0.432,0.421,0.732,1.021,0.9,1.801s0.252,1.83,0.252,3.149v2.557c0,0.624-0.018,1.151-0.054,1.584
		c-0.036,0.432-0.103,0.827-0.198,1.188c-0.096,0.36-0.228,0.715-0.396,1.063s-0.396,0.737-0.684,1.17l-2.484,3.96
		c-0.144,0.216-0.258,0.408-0.342,0.576c-0.084,0.168-0.15,0.336-0.198,0.504c-0.048,0.168-0.078,0.354-0.09,0.558
		c-0.012,0.204-0.018,0.45-0.018,0.738v2.124h-3.528V41.347z M244.323,50.456h-3.78V45.74h3.78V50.456z"/>
</g>
</svg>
