<?xml version="1.0" encoding="utf-8"?>
<!-- Generator: Adobe Illustrator 16.0.0, SVG Export Plug-In . SVG Version: 6.00 Build 0)  -->
<!DOCTYPE svg PUBLIC "-//W3C//DTD SVG 1.1//EN" "http://www.w3.org/Graphics/SVG/1.1/DTD/svg11.dtd">
<svg version="1.1" id="Warstwa_1" xmlns="http://www.w3.org/2000/svg" xmlns:xlink="http://www.w3.org/1999/xlink" x="0px" y="0px"
	 width="694px" height="85.04px" viewBox="0 0 694 85.04" enable-background="new 0 0 694 85.04" xml:space="preserve">
<polygon stroke="#FFFFFF" stroke-miterlimit="10" points="648,74 44,77 44,17 648,10 "/>
<g enable-background="new    ">
	<path fill="#FFFFFF" d="M67.584,59.456v-28.44h8.28v3.421h-4.14v4.212h3.996v3.42h-3.996v17.388H67.584z"/>
	<path fill="#FFFFFF" d="M85.26,59.456V53.12h-3.492v6.336h-4.032V36.631c0-1.319,0.078-2.369,0.234-3.149
		c0.156-0.78,0.45-1.38,0.882-1.801c0.432-0.419,1.026-0.695,1.782-0.827c0.756-0.132,1.722-0.198,2.898-0.198
		c1.176,0,2.142,0.072,2.898,0.216s1.355,0.432,1.8,0.864c0.444,0.432,0.75,1.038,0.918,1.817c0.168,0.78,0.252,1.807,0.252,3.078
		v22.824H85.26z M83.496,34.364c-0.36,0-0.654,0.03-0.882,0.09c-0.229,0.061-0.409,0.168-0.54,0.324
		c-0.132,0.156-0.216,0.384-0.252,0.684c-0.036,0.301-0.054,0.69-0.054,1.17v13.104h3.492V36.631c0-0.479-0.024-0.869-0.072-1.17
		c-0.048-0.3-0.132-0.527-0.252-0.684s-0.3-0.264-0.54-0.324C84.155,34.394,83.855,34.364,83.496,34.364z"/>
	<path fill="#FFFFFF" d="M104.591,31.015l-4.248,11.809l4.824,16.632h-4.5l-3.924-14.94h-0.18v14.94h-4.176V31.051h4.176V41.78h0.18
		l3.492-10.765H104.591z"/>
	<path fill="#FFFFFF" d="M116.219,34.471h-3.096v24.984h-4.14V34.471h-3.132v-3.456h10.368V34.471z"/>
	<path fill="#FFFFFF" d="M129.287,31.015l-4.248,18.396v10.044h-4.14V49.412l-4.104-18.396h4.104l2.052,12.853h0.144l2.16-12.853
		H129.287z"/>
	<path fill="#FFFFFF" d="M148.762,53.803c0,1.32-0.078,2.376-0.234,3.168s-0.456,1.398-0.9,1.818
		c-0.444,0.42-1.05,0.696-1.818,0.828c-0.769,0.132-1.764,0.198-2.988,0.198c-1.224,0-2.22-0.066-2.988-0.198
		s-1.368-0.408-1.8-0.828s-0.726-1.026-0.882-1.818s-0.234-1.848-0.234-3.168V36.631c0-1.319,0.078-2.369,0.234-3.149
		s0.45-1.38,0.882-1.801c0.432-0.419,1.032-0.695,1.8-0.827s1.764-0.198,2.988-0.198c1.224,0,2.219,0.066,2.988,0.198
		c0.768,0.132,1.374,0.408,1.818,0.827c0.444,0.421,0.744,1.021,0.9,1.801s0.234,1.83,0.234,3.149V53.803z M144.586,36.631
		c0-0.959-0.108-1.577-0.324-1.854c-0.216-0.276-0.696-0.414-1.44-0.414c-0.384,0-0.69,0.03-0.918,0.09
		c-0.229,0.061-0.409,0.175-0.54,0.342c-0.132,0.168-0.216,0.402-0.252,0.702c-0.036,0.301-0.054,0.679-0.054,1.134v17.172
		c0,0.504,0.018,0.906,0.054,1.206c0.036,0.301,0.12,0.534,0.252,0.702c0.131,0.168,0.312,0.282,0.54,0.342
		c0.228,0.061,0.534,0.091,0.918,0.091c0.383,0,0.689-0.03,0.918-0.091c0.228-0.06,0.408-0.18,0.54-0.359
		c0.131-0.181,0.216-0.42,0.252-0.721c0.036-0.3,0.054-0.689,0.054-1.17V36.631z"/>
	<path fill="#FFFFFF" d="M161.974,48.692v10.764h-4.14v-28.44h5.904c1.224,0,2.22,0.066,2.988,0.198
		c0.768,0.133,1.374,0.402,1.818,0.811c0.444,0.408,0.744,0.989,0.9,1.746c0.156,0.756,0.234,1.77,0.234,3.042v6.084
		c0,1.271-0.084,2.292-0.252,3.06c-0.168,0.769-0.474,1.356-0.918,1.764c-0.444,0.409-1.05,0.673-1.818,0.792
		c-0.769,0.121-1.752,0.181-2.952,0.181H161.974z M161.974,34.616v10.728h1.764c0.36,0,0.66-0.029,0.9-0.09
		c0.239-0.06,0.419-0.174,0.54-0.342c0.12-0.168,0.204-0.401,0.252-0.702c0.048-0.3,0.072-0.689,0.072-1.17v-6.228
		c0-0.456-0.018-0.828-0.054-1.116c-0.036-0.288-0.114-0.51-0.234-0.666s-0.294-0.264-0.522-0.324
		c-0.228-0.06-0.546-0.09-0.954-0.09H161.974z"/>
	<path fill="#FFFFFF" d="M176.265,59.456h-4.14v-28.44h5.904c1.224,0,2.22,0.066,2.988,0.198c0.768,0.133,1.374,0.408,1.818,0.828
		c0.444,0.42,0.744,1.008,0.9,1.764c0.156,0.757,0.234,1.759,0.234,3.007v2.987c0,0.744-0.079,1.351-0.234,1.818
		c-0.156,0.468-0.36,0.846-0.612,1.134s-0.528,0.498-0.828,0.63c-0.3,0.133-0.594,0.234-0.882,0.307v0.144
		c0.384,0.097,0.732,0.223,1.044,0.378c0.312,0.156,0.582,0.396,0.81,0.72c0.228,0.324,0.401,0.738,0.522,1.242
		c0.12,0.504,0.18,1.152,0.18,1.944v11.34h-4.176V47.467c0-0.768-0.096-1.302-0.288-1.602c-0.192-0.3-0.648-0.45-1.368-0.45h-1.872
		V59.456z M176.265,42.139h1.872c0.671,0,1.116-0.131,1.332-0.396c0.216-0.264,0.324-0.744,0.324-1.44v-3.491
		c0-0.456-0.018-0.822-0.054-1.099c-0.036-0.275-0.114-0.498-0.234-0.666c-0.12-0.167-0.3-0.281-0.54-0.342
		c-0.24-0.06-0.552-0.09-0.936-0.09h-1.764V42.139z"/>
	<path fill="#FFFFFF" d="M194.229,59.456V53.12h-3.492v6.336h-4.032V36.631c0-1.319,0.078-2.369,0.234-3.149
		c0.156-0.78,0.45-1.38,0.882-1.801c0.432-0.419,1.026-0.695,1.782-0.827c0.756-0.132,1.722-0.198,2.898-0.198
		c1.176,0,2.142,0.072,2.898,0.216s1.355,0.432,1.8,0.864c0.444,0.432,0.75,1.038,0.918,1.817c0.168,0.78,0.252,1.807,0.252,3.078
		v22.824H194.229z M192.465,34.364c-0.36,0-0.654,0.03-0.882,0.09c-0.229,0.061-0.409,0.168-0.54,0.324
		c-0.132,0.156-0.216,0.384-0.252,0.684c-0.036,0.301-0.054,0.69-0.054,1.17v13.104h3.492V36.631c0-0.479-0.024-0.869-0.072-1.17
		c-0.048-0.3-0.132-0.527-0.252-0.684s-0.3-0.264-0.54-0.324C193.125,34.394,192.825,34.364,192.465,34.364z"/>
	<path fill="#FFFFFF" d="M208.701,43.076v-6.444c0-0.479-0.018-0.869-0.054-1.17c-0.036-0.3-0.121-0.527-0.252-0.684
		c-0.132-0.156-0.313-0.264-0.54-0.324c-0.229-0.06-0.522-0.09-0.882-0.09c-0.384,0-0.69,0.03-0.918,0.09
		c-0.229,0.061-0.409,0.175-0.54,0.342c-0.132,0.168-0.216,0.402-0.252,0.702c-0.036,0.301-0.054,0.679-0.054,1.134v17.172
		c0,0.504,0.018,0.906,0.054,1.206c0.036,0.301,0.12,0.534,0.252,0.702c0.131,0.168,0.312,0.282,0.54,0.342
		c0.228,0.061,0.534,0.091,0.918,0.091c0.36,0,0.653-0.03,0.882-0.091c0.228-0.06,0.408-0.174,0.54-0.342
		c0.131-0.168,0.216-0.401,0.252-0.702c0.036-0.3,0.054-0.702,0.054-1.206v-6.588h3.996v6.588c0,1.32-0.078,2.376-0.234,3.168
		c-0.156,0.792-0.45,1.398-0.882,1.818s-1.021,0.696-1.764,0.828c-0.744,0.132-1.692,0.198-2.844,0.198
		c-1.224,0-2.22-0.066-2.988-0.198s-1.368-0.408-1.8-0.828s-0.726-1.026-0.882-1.818s-0.234-1.848-0.234-3.168V36.631
		c0-1.296,0.084-2.34,0.252-3.132s0.474-1.397,0.918-1.818c0.444-0.419,1.05-0.695,1.818-0.827c0.768-0.132,1.74-0.198,2.916-0.198
		c1.152,0,2.1,0.066,2.844,0.198c0.744,0.132,1.332,0.408,1.764,0.827c0.432,0.421,0.726,1.021,0.882,1.801
		c0.156,0.78,0.234,1.83,0.234,3.149v6.444H208.701z"/>
	<path fill="#FFFFFF" d="M226.269,31.015l-4.248,18.396v10.044h-4.14V49.412l-4.104-18.396h4.104l2.052,12.853h0.144l2.16-12.853
		H226.269z"/>
	<path fill="#FFFFFF" d="M238.4,59.456h-4.14v-28.44h4.14V59.456z"/>
	<path fill="#FFFFFF" d="M253.591,59.816c-1.201,0-2.178-0.066-2.934-0.198s-1.35-0.408-1.782-0.828
		c-0.432-0.42-0.732-1.026-0.9-1.818s-0.252-1.848-0.252-3.168V31.015h4.14v22.788c0,0.504,0.023,0.906,0.072,1.206
		c0.048,0.301,0.138,0.528,0.27,0.685s0.312,0.264,0.54,0.323c0.228,0.061,0.534,0.091,0.918,0.091c0.36,0,0.654-0.03,0.882-0.091
		c0.228-0.06,0.401-0.167,0.522-0.323c0.12-0.156,0.204-0.384,0.252-0.685c0.048-0.3,0.072-0.702,0.072-1.206V31.015h4.032v22.788
		c0,1.32-0.084,2.376-0.252,3.168c-0.168,0.792-0.468,1.398-0.9,1.818c-0.432,0.42-1.026,0.696-1.782,0.828
		S254.767,59.816,253.591,59.816z"/>
	<path fill="#FFFFFF" d="M271.663,34.471h-3.096v24.984h-4.14V34.471h-3.132v-3.456h10.368V34.471z"/>
	<path fill="#FFFFFF" d="M277.855,59.456h-4.14v-28.44h5.904c1.224,0,2.22,0.066,2.988,0.198c0.768,0.133,1.374,0.408,1.818,0.828
		c0.444,0.42,0.744,1.008,0.9,1.764c0.156,0.757,0.234,1.759,0.234,3.007v2.987c0,0.744-0.079,1.351-0.234,1.818
		c-0.156,0.468-0.36,0.846-0.612,1.134s-0.528,0.498-0.828,0.63c-0.3,0.133-0.594,0.234-0.882,0.307v0.144
		c0.384,0.097,0.732,0.223,1.044,0.378c0.312,0.156,0.582,0.396,0.81,0.72c0.228,0.324,0.401,0.738,0.522,1.242
		c0.12,0.504,0.18,1.152,0.18,1.944v11.34h-4.176V47.467c0-0.768-0.096-1.302-0.288-1.602c-0.192-0.3-0.648-0.45-1.368-0.45h-1.872
		V59.456z M277.855,42.139h1.872c0.671,0,1.116-0.131,1.332-0.396c0.216-0.264,0.324-0.744,0.324-1.44v-3.491
		c0-0.456-0.018-0.822-0.054-1.099c-0.036-0.275-0.114-0.498-0.234-0.666c-0.12-0.167-0.3-0.281-0.54-0.342
		c-0.24-0.06-0.552-0.09-0.936-0.09h-1.764V42.139z"/>
	<path fill="#FFFFFF" d="M297.547,59.456h-9.972v-3.6l5.724-21.385h-5.148v-3.456h9.324v2.809l-5.58,22.067h5.652V59.456z"/>
	<path fill="#FFFFFF" d="M310.831,31.015l-4.248,18.396v10.044h-4.14V49.412l-4.104-18.396h4.104l2.052,12.853h0.144l2.16-12.853
		H310.831z"/>
	<path fill="#FFFFFF" d="M328.614,31.015v28.44h-3.384V39.368h-0.144l-2.628,20.088h-3.708l-2.628-20.232h-0.144v20.232h-3.42
		v-28.44h5.796l2.16,19.116h0.144l2.196-19.116H328.614z"/>
	<path fill="#FFFFFF" d="M339.126,59.456V53.12h-3.492v6.336h-4.032V36.631c0-1.319,0.078-2.369,0.234-3.149
		c0.156-0.78,0.45-1.38,0.882-1.801c0.432-0.419,1.026-0.695,1.782-0.827c0.756-0.132,1.722-0.198,2.898-0.198
		c1.176,0,2.142,0.072,2.898,0.216s1.355,0.432,1.8,0.864c0.444,0.432,0.75,1.038,0.918,1.817c0.168,0.78,0.252,1.807,0.252,3.078
		v22.824H339.126z M337.362,34.364c-0.36,0-0.654,0.03-0.882,0.09c-0.229,0.061-0.409,0.168-0.54,0.324
		c-0.132,0.156-0.216,0.384-0.252,0.684c-0.036,0.301-0.054,0.69-0.054,1.17v13.104h3.492V36.631c0-0.479-0.024-0.869-0.072-1.17
		c-0.048-0.3-0.132-0.527-0.252-0.684s-0.3-0.264-0.54-0.324C338.021,34.394,337.722,34.364,337.362,34.364z"/>
	<path fill="#FFFFFF" d="M354.246,59.456l-4.285-17.748h-0.144v17.748h-3.564v-28.44h4.573l4.104,18.252h0.145V31.015h3.6v28.44
		H354.246z"/>
	<path fill="#FFFFFF" d="M366.089,59.456h-4.14v-28.44h4.14V59.456z"/>
	<path fill="#FFFFFF" d="M375.088,59.816c-1.2,0-2.178-0.066-2.934-0.198s-1.35-0.408-1.782-0.828
		c-0.432-0.42-0.732-1.026-0.899-1.818c-0.169-0.792-0.252-1.848-0.252-3.168V31.015h4.14v22.788c0,0.504,0.023,0.906,0.072,1.206
		c0.048,0.301,0.138,0.528,0.27,0.685s0.312,0.264,0.54,0.323c0.228,0.061,0.534,0.091,0.918,0.091c0.36,0,0.653-0.03,0.882-0.091
		c0.229-0.06,0.402-0.167,0.522-0.323s0.203-0.384,0.252-0.685c0.048-0.3,0.072-0.702,0.072-1.206V31.015h4.031v22.788
		c0,1.32-0.084,2.376-0.252,3.168s-0.468,1.398-0.899,1.818c-0.433,0.42-1.026,0.696-1.782,0.828S376.264,59.816,375.088,59.816z"/>
	<path fill="#FFFFFF" d="M393.017,31.015l1.188,22.356h0.144l1.908-22.356h5.292l1.62,22.356h0.144l1.548-22.356h4.177l-3.313,28.44
		h-5.256l-1.512-22.572h-0.145l-1.979,22.572h-5.328l-2.628-28.44H393.017z"/>
	<path fill="#FFFFFF" d="M421.312,48.692v10.764h-4.14v-28.44h5.904c1.224,0,2.22,0.066,2.987,0.198
		c0.769,0.133,1.374,0.402,1.818,0.811s0.744,0.989,0.9,1.746c0.155,0.756,0.233,1.77,0.233,3.042v6.084
		c0,1.271-0.084,2.292-0.252,3.06c-0.168,0.769-0.474,1.356-0.918,1.764c-0.444,0.409-1.05,0.673-1.817,0.792
		c-0.769,0.121-1.753,0.181-2.952,0.181H421.312z M421.312,34.616v10.728h1.765c0.359,0,0.659-0.029,0.899-0.09
		c0.24-0.06,0.42-0.174,0.54-0.342s0.204-0.401,0.252-0.702c0.048-0.3,0.072-0.689,0.072-1.17v-6.228
		c0-0.456-0.018-0.828-0.054-1.116s-0.114-0.51-0.234-0.666s-0.294-0.264-0.521-0.324c-0.229-0.06-0.547-0.09-0.954-0.09H421.312z"
		/>
	<path fill="#FFFFFF" d="M443.02,53.803c0,1.32-0.078,2.376-0.233,3.168c-0.156,0.792-0.456,1.398-0.9,1.818
		s-1.05,0.696-1.817,0.828c-0.769,0.132-1.765,0.198-2.988,0.198c-1.225,0-2.221-0.066-2.988-0.198
		c-0.769-0.132-1.368-0.408-1.8-0.828s-0.727-1.026-0.882-1.818c-0.156-0.792-0.234-1.848-0.234-3.168V36.631
		c0-1.319,0.078-2.369,0.234-3.149c0.155-0.78,0.45-1.38,0.882-1.801c0.432-0.419,1.031-0.695,1.8-0.827
		c0.768-0.132,1.764-0.198,2.988-0.198c1.224,0,2.22,0.066,2.988,0.198c0.768,0.132,1.373,0.408,1.817,0.827
		c0.444,0.421,0.744,1.021,0.9,1.801c0.155,0.78,0.233,1.83,0.233,3.149V53.803z M438.844,36.631c0-0.959-0.107-1.577-0.324-1.854
		c-0.216-0.276-0.696-0.414-1.439-0.414c-0.385,0-0.69,0.03-0.918,0.09c-0.229,0.061-0.408,0.175-0.54,0.342
		c-0.133,0.168-0.216,0.402-0.252,0.702c-0.036,0.301-0.055,0.679-0.055,1.134v17.172c0,0.504,0.019,0.906,0.055,1.206
		c0.036,0.301,0.119,0.534,0.252,0.702c0.132,0.168,0.312,0.282,0.54,0.342c0.228,0.061,0.533,0.091,0.918,0.091
		c0.384,0,0.689-0.03,0.918-0.091c0.228-0.06,0.407-0.18,0.54-0.359c0.132-0.181,0.216-0.42,0.252-0.721
		c0.036-0.3,0.054-0.689,0.054-1.17V36.631z"/>
	<path fill="#FFFFFF" d="M454.287,59.456h-8.388v-28.44h4.14v24.841h4.248V59.456z"/>
	<path fill="#FFFFFF" d="M463.646,40.232v-3.528c0-0.504-0.018-0.912-0.054-1.224c-0.036-0.313-0.114-0.546-0.234-0.702
		s-0.3-0.264-0.539-0.324c-0.24-0.06-0.553-0.09-0.937-0.09c-0.408,0-0.727,0.03-0.954,0.09c-0.229,0.061-0.402,0.168-0.521,0.324
		c-0.121,0.156-0.198,0.39-0.234,0.702c-0.036,0.312-0.054,0.72-0.054,1.224v2.808c0,0.36,0.023,0.661,0.071,0.9
		c0.048,0.24,0.15,0.456,0.307,0.647c0.155,0.192,0.384,0.385,0.684,0.576c0.3,0.192,0.714,0.421,1.242,0.685
		c1.248,0.647,2.232,1.2,2.952,1.655c0.72,0.457,1.26,0.919,1.62,1.387c0.359,0.468,0.588,0.996,0.684,1.584s0.145,1.35,0.145,2.286
		v4.571c0,1.32-0.078,2.376-0.234,3.168s-0.45,1.398-0.882,1.818c-0.433,0.42-1.038,0.696-1.818,0.828s-1.782,0.198-3.006,0.198
		c-1.152,0-2.101-0.066-2.844-0.198c-0.744-0.132-1.332-0.408-1.765-0.828c-0.432-0.42-0.731-1.026-0.899-1.818
		s-0.252-1.848-0.252-3.168v-5.651h4.032v5.651c0,0.504,0.018,0.906,0.054,1.206c0.036,0.301,0.113,0.534,0.234,0.702
		c0.119,0.168,0.293,0.282,0.521,0.342c0.228,0.061,0.534,0.091,0.918,0.091c0.768,0,1.254-0.145,1.458-0.433
		s0.306-0.924,0.306-1.908V49.52c0-0.48-0.018-0.876-0.054-1.188c-0.036-0.312-0.132-0.588-0.288-0.828
		c-0.156-0.239-0.391-0.462-0.702-0.666c-0.312-0.203-0.732-0.45-1.26-0.738c-1.248-0.647-2.227-1.199-2.934-1.655
		c-0.708-0.456-1.242-0.918-1.603-1.387c-0.359-0.468-0.588-0.983-0.684-1.548c-0.097-0.563-0.145-1.254-0.145-2.069v-2.736
		c0-1.319,0.078-2.376,0.234-3.168s0.45-1.404,0.882-1.836c0.433-0.433,1.032-0.714,1.8-0.846c0.769-0.132,1.765-0.198,2.988-0.198
		c1.2,0,2.178,0.066,2.934,0.198c0.757,0.132,1.345,0.413,1.765,0.846c0.42,0.432,0.707,1.044,0.864,1.836
		c0.155,0.792,0.233,1.849,0.233,3.168v3.528H463.646z"/>
	<path fill="#FFFFFF" d="M477.975,43.076v-6.444c0-0.479-0.018-0.869-0.054-1.17c-0.036-0.3-0.12-0.527-0.252-0.684
		s-0.313-0.264-0.54-0.324c-0.229-0.06-0.522-0.09-0.882-0.09c-0.385,0-0.69,0.03-0.918,0.09c-0.229,0.061-0.408,0.175-0.54,0.342
		c-0.133,0.168-0.216,0.402-0.252,0.702c-0.036,0.301-0.055,0.679-0.055,1.134v17.172c0,0.504,0.019,0.906,0.055,1.206
		c0.036,0.301,0.119,0.534,0.252,0.702c0.132,0.168,0.312,0.282,0.54,0.342c0.228,0.061,0.533,0.091,0.918,0.091
		c0.359,0,0.653-0.03,0.882-0.091c0.228-0.06,0.408-0.174,0.54-0.342s0.216-0.401,0.252-0.702c0.036-0.3,0.054-0.702,0.054-1.206
		v-6.588h3.996v6.588c0,1.32-0.078,2.376-0.233,3.168c-0.157,0.792-0.45,1.398-0.883,1.818c-0.432,0.42-1.02,0.696-1.764,0.828
		s-1.692,0.198-2.844,0.198c-1.225,0-2.221-0.066-2.988-0.198c-0.769-0.132-1.368-0.408-1.8-0.828s-0.727-1.026-0.882-1.818
		c-0.156-0.792-0.234-1.848-0.234-3.168V36.631c0-1.296,0.084-2.34,0.252-3.132s0.474-1.397,0.918-1.818
		c0.444-0.419,1.05-0.695,1.818-0.827c0.768-0.132,1.739-0.198,2.916-0.198c1.151,0,2.1,0.066,2.844,0.198s1.332,0.408,1.764,0.827
		c0.433,0.421,0.726,1.021,0.883,1.801c0.155,0.78,0.233,1.83,0.233,3.149v6.444H477.975z"/>
	<path fill="#FFFFFF" d="M492.986,59.456h-8.136v-28.44h8.1v3.421h-3.96v4.14h3.853v3.276h-3.853v14.039h3.996V59.456z"/>
	<path fill="#FFFFFF" d="M504.506,31.015l1.188,22.356h0.144l1.908-22.356h5.292l1.62,22.356h0.144l1.548-22.356h4.177l-3.313,28.44
		h-5.256l-1.512-22.572h-0.145l-1.979,22.572h-5.328l-2.628-28.44H504.506z"/>
	<path fill="#FFFFFF" d="M537.049,59.456h-8.388v-28.44h4.14v24.841h4.248V59.456z"/>
	<path fill="#FFFFFF" d="M543.313,59.456h-4.14v-28.44h4.14V59.456z"/>
	<path fill="#FFFFFF" d="M553.933,43.076v-6.444c0-0.479-0.018-0.869-0.054-1.17c-0.036-0.3-0.12-0.527-0.252-0.684
		s-0.313-0.264-0.54-0.324c-0.229-0.06-0.522-0.09-0.882-0.09c-0.385,0-0.69,0.03-0.918,0.09c-0.229,0.061-0.408,0.175-0.54,0.342
		c-0.133,0.168-0.216,0.402-0.252,0.702c-0.036,0.301-0.055,0.679-0.055,1.134v17.172c0,0.504,0.019,0.906,0.055,1.206
		c0.036,0.301,0.119,0.534,0.252,0.702c0.132,0.168,0.312,0.282,0.54,0.342c0.228,0.061,0.533,0.091,0.918,0.091
		c0.359,0,0.653-0.03,0.882-0.091c0.228-0.06,0.408-0.174,0.54-0.342s0.216-0.401,0.252-0.702c0.036-0.3,0.054-0.702,0.054-1.206
		v-6.588h3.996v6.588c0,1.32-0.078,2.376-0.233,3.168c-0.157,0.792-0.45,1.398-0.883,1.818c-0.432,0.42-1.02,0.696-1.764,0.828
		s-1.692,0.198-2.844,0.198c-1.225,0-2.221-0.066-2.988-0.198c-0.769-0.132-1.368-0.408-1.8-0.828s-0.727-1.026-0.882-1.818
		c-0.156-0.792-0.234-1.848-0.234-3.168V36.631c0-1.296,0.084-2.34,0.252-3.132s0.474-1.397,0.918-1.818
		c0.444-0.419,1.05-0.695,1.818-0.827c0.768-0.132,1.739-0.198,2.916-0.198c1.151,0,2.1,0.066,2.844,0.198s1.332,0.408,1.764,0.827
		c0.433,0.421,0.726,1.021,0.883,1.801c0.155,0.78,0.233,1.83,0.233,3.149v6.444H553.933z"/>
	<path fill="#FFFFFF" d="M569.845,59.456h-9.972v-3.6l5.724-21.385h-5.148v-3.456h9.324v2.809l-5.58,22.067h5.652V59.456z"/>
	<path fill="#FFFFFF" d="M581.4,42.967c0.384,0.097,0.731,0.229,1.044,0.396c0.312,0.168,0.582,0.426,0.81,0.773
		c0.229,0.349,0.402,0.799,0.522,1.351s0.18,1.26,0.18,2.124v6.012c0,1.272-0.078,2.292-0.233,3.06
		c-0.156,0.769-0.456,1.356-0.9,1.765s-1.05,0.678-1.818,0.81c-0.768,0.133-1.764,0.198-2.987,0.198h-5.904v-28.44h5.904
		c1.224,0,2.22,0.066,2.987,0.198c0.769,0.133,1.374,0.402,1.818,0.811s0.744,0.989,0.9,1.746c0.155,0.756,0.233,1.77,0.233,3.042
		v2.124c0,0.744-0.09,1.355-0.27,1.836c-0.181,0.479-0.396,0.863-0.648,1.151s-0.528,0.504-0.828,0.648
		c-0.3,0.144-0.57,0.229-0.81,0.252V42.967z M576.252,41.312h1.872c0.672,0,1.116-0.132,1.332-0.396
		c0.216-0.264,0.324-0.743,0.324-1.44v-2.663c0-0.433-0.018-0.792-0.054-1.08s-0.114-0.517-0.234-0.685
		c-0.12-0.167-0.3-0.281-0.54-0.342c-0.24-0.06-0.552-0.09-0.936-0.09h-1.765V41.312z M576.252,55.891h1.765
		c0.384,0,0.689-0.029,0.918-0.09c0.228-0.06,0.401-0.167,0.521-0.323s0.204-0.384,0.252-0.685c0.048-0.3,0.072-0.689,0.072-1.17
		v-6.948c0-0.792-0.096-1.337-0.288-1.638c-0.192-0.3-0.647-0.45-1.368-0.45h-1.872V55.891z"/>
	<path fill="#FFFFFF" d="M594.072,59.456V53.12h-3.491v6.336h-4.032V36.631c0-1.319,0.077-2.369,0.233-3.149s0.45-1.38,0.883-1.801
		c0.432-0.419,1.025-0.695,1.781-0.827c0.757-0.132,1.723-0.198,2.898-0.198s2.142,0.072,2.897,0.216
		c0.757,0.144,1.356,0.432,1.801,0.864c0.443,0.432,0.749,1.038,0.918,1.817c0.167,0.78,0.252,1.807,0.252,3.078v22.824H594.072z
		 M592.309,34.364c-0.36,0-0.654,0.03-0.882,0.09c-0.229,0.061-0.408,0.168-0.54,0.324s-0.216,0.384-0.252,0.684
		c-0.036,0.301-0.054,0.69-0.054,1.17v13.104h3.491V36.631c0-0.479-0.023-0.869-0.071-1.17c-0.049-0.3-0.133-0.527-0.252-0.684
		c-0.121-0.156-0.301-0.264-0.54-0.324C592.969,34.394,592.669,34.364,592.309,34.364z"/>
	<path fill="#FFFFFF" d="M608.544,43.076v-6.444c0-0.479-0.018-0.869-0.054-1.17c-0.036-0.3-0.12-0.527-0.252-0.684
		s-0.313-0.264-0.54-0.324c-0.229-0.06-0.522-0.09-0.882-0.09c-0.385,0-0.69,0.03-0.918,0.09c-0.229,0.061-0.408,0.175-0.54,0.342
		c-0.133,0.168-0.216,0.402-0.252,0.702c-0.036,0.301-0.055,0.679-0.055,1.134v17.172c0,0.504,0.019,0.906,0.055,1.206
		c0.036,0.301,0.119,0.534,0.252,0.702c0.132,0.168,0.312,0.282,0.54,0.342c0.228,0.061,0.533,0.091,0.918,0.091
		c0.359,0,0.653-0.03,0.882-0.091c0.228-0.06,0.408-0.174,0.54-0.342s0.216-0.401,0.252-0.702c0.036-0.3,0.054-0.702,0.054-1.206
		v-6.588h3.996v6.588c0,1.32-0.078,2.376-0.233,3.168c-0.157,0.792-0.45,1.398-0.883,1.818c-0.432,0.42-1.02,0.696-1.764,0.828
		s-1.692,0.198-2.844,0.198c-1.225,0-2.221-0.066-2.988-0.198c-0.769-0.132-1.368-0.408-1.8-0.828s-0.727-1.026-0.882-1.818
		c-0.156-0.792-0.234-1.848-0.234-3.168V36.631c0-1.296,0.084-2.34,0.252-3.132s0.474-1.397,0.918-1.818
		c0.444-0.419,1.05-0.695,1.818-0.827c0.768-0.132,1.739-0.198,2.916-0.198c1.151,0,2.1,0.066,2.844,0.198s1.332,0.408,1.764,0.827
		c0.433,0.421,0.726,1.021,0.883,1.801c0.155,0.78,0.233,1.83,0.233,3.149v6.444H608.544z"/>
	<path fill="#FFFFFF" d="M627.336,59.456h-4.176V43.904h-3.601v15.552h-4.14v-28.44h4.14v9.396h3.601v-9.396h4.176V59.456z"/>
</g>
</svg>
