<?xml version="1.0" encoding="UTF-8" standalone="no"?>
<!-- Generator: Adobe Illustrator 16.0.0, SVG Export Plug-In . SVG Version: 6.00 Build 0)  -->

<svg
   xmlns:dc="http://purl.org/dc/elements/1.1/"
   xmlns:cc="http://creativecommons.org/ns#"
   xmlns:rdf="http://www.w3.org/1999/02/22-rdf-syntax-ns#"
   xmlns:svg="http://www.w3.org/2000/svg"
   xmlns="http://www.w3.org/2000/svg"
   xmlns:sodipodi="http://sodipodi.sourceforge.net/DTD/sodipodi-0.dtd"
   xmlns:inkscape="http://www.inkscape.org/namespaces/inkscape"
   version="1.1"
   id="Warstwa_1"
   x="0px"
   y="0px"
   width="606"
   height="68.040001"
   viewBox="0 0 606 68.04"
   enable-background="new 0 0 694 85.04"
   xml:space="preserve"
   sodipodi:docname="faktyopracy.svg"
   inkscape:version="0.92.2 2405546, 2018-03-11"><metadata
   id="metadata644"><rdf:RDF><cc:Work
       rdf:about=""><dc:format>image/svg+xml</dc:format><dc:type
         rdf:resource="http://purl.org/dc/dcmitype/StillImage" /><dc:title></dc:title></cc:Work></rdf:RDF></metadata><defs
   id="defs642" /><sodipodi:namedview
   pagecolor="#ffffff"
   bordercolor="#666666"
   borderopacity="1"
   objecttolerance="10"
   gridtolerance="10"
   guidetolerance="10"
   inkscape:pageopacity="0"
   inkscape:pageshadow="2"
   inkscape:window-width="1600"
   inkscape:window-height="857"
   id="namedview640"
   showgrid="false"
   inkscape:zoom="1.2348897"
   inkscape:cx="392.31458"
   inkscape:cy="-3.4543157"
   inkscape:window-x="0"
   inkscape:window-y="43"
   inkscape:window-maximized="0"
   inkscape:current-layer="Warstwa_1" />
<polygon
   stroke-miterlimit="10"
   points="648,74 44,77 44,17 648,10 "
   id="polygon559"
   style="stroke:#ffffff;stroke-miterlimit:10"
   transform="translate(-42.918815,-8.9021277)" />
<g
   enable-background="new    "
   id="g637"
   transform="translate(-40.489448,-8.9021277)">
	<path
   d="m 67.584,59.456 v -28.44 h 8.28 v 3.421 h -4.14 v 4.212 h 3.996 v 3.42 h -3.996 v 17.388 h -4.14 z"
   id="path561"
   inkscape:connector-curvature="0"
   style="fill:#ffffff" />
	<path
   d="M 85.26,59.456 V 53.12 h -3.492 v 6.336 H 77.736 V 36.631 c 0,-1.319 0.078,-2.369 0.234,-3.149 0.156,-0.78 0.45,-1.38 0.882,-1.801 0.432,-0.419 1.026,-0.695 1.782,-0.827 0.756,-0.132 1.722,-0.198 2.898,-0.198 1.176,0 2.142,0.072 2.898,0.216 0.756,0.144 1.355,0.432 1.8,0.864 0.444,0.432 0.75,1.038 0.918,1.817 0.168,0.78 0.252,1.807 0.252,3.078 V 59.455 H 85.26 Z M 83.496,34.364 c -0.36,0 -0.654,0.03 -0.882,0.09 -0.229,0.061 -0.409,0.168 -0.54,0.324 -0.132,0.156 -0.216,0.384 -0.252,0.684 -0.036,0.301 -0.054,0.69 -0.054,1.17 V 49.736 H 85.26 V 36.631 c 0,-0.479 -0.024,-0.869 -0.072,-1.17 -0.048,-0.3 -0.132,-0.527 -0.252,-0.684 -0.12,-0.157 -0.3,-0.264 -0.54,-0.324 -0.241,-0.059 -0.541,-0.089 -0.9,-0.089 z"
   id="path563"
   inkscape:connector-curvature="0"
   style="fill:#ffffff" />
	<path
   d="m 104.591,31.015 -4.248,11.809 4.824,16.632 h -4.5 l -3.924,-14.94 h -0.18 v 14.94 H 92.387 V 31.051 h 4.176 V 41.78 h 0.18 l 3.492,-10.765 z"
   id="path565"
   inkscape:connector-curvature="0"
   style="fill:#ffffff" />
	<path
   d="m 116.219,34.471 h -3.096 v 24.984 h -4.14 V 34.471 h -3.132 v -3.456 h 10.368 z"
   id="path567"
   inkscape:connector-curvature="0"
   style="fill:#ffffff" />
	<path
   d="m 129.287,31.015 -4.248,18.396 v 10.044 h -4.14 V 49.412 l -4.104,-18.396 h 4.104 l 2.052,12.853 h 0.144 l 2.16,-12.853 h 4.032 z"
   id="path569"
   inkscape:connector-curvature="0"
   style="fill:#ffffff" />
	<path
   d="m 148.762,53.803 c 0,1.32 -0.078,2.376 -0.234,3.168 -0.156,0.792 -0.456,1.398 -0.9,1.818 -0.444,0.42 -1.05,0.696 -1.818,0.828 -0.769,0.132 -1.764,0.198 -2.988,0.198 -1.224,0 -2.22,-0.066 -2.988,-0.198 -0.768,-0.132 -1.368,-0.408 -1.8,-0.828 -0.432,-0.42 -0.726,-1.026 -0.882,-1.818 -0.156,-0.792 -0.234,-1.848 -0.234,-3.168 V 36.631 c 0,-1.319 0.078,-2.369 0.234,-3.149 0.156,-0.78 0.45,-1.38 0.882,-1.801 0.432,-0.419 1.032,-0.695 1.8,-0.827 0.768,-0.132 1.764,-0.198 2.988,-0.198 1.224,0 2.219,0.066 2.988,0.198 0.768,0.132 1.374,0.408 1.818,0.827 0.444,0.421 0.744,1.021 0.9,1.801 0.156,0.78 0.234,1.83 0.234,3.149 z m -4.176,-17.172 c 0,-0.959 -0.108,-1.577 -0.324,-1.854 -0.216,-0.276 -0.696,-0.414 -1.44,-0.414 -0.384,0 -0.69,0.03 -0.918,0.09 -0.229,0.061 -0.409,0.175 -0.54,0.342 -0.132,0.168 -0.216,0.402 -0.252,0.702 -0.036,0.301 -0.054,0.679 -0.054,1.134 v 17.172 c 0,0.504 0.018,0.906 0.054,1.206 0.036,0.301 0.12,0.534 0.252,0.702 0.131,0.168 0.312,0.282 0.54,0.342 0.228,0.061 0.534,0.091 0.918,0.091 0.383,0 0.689,-0.03 0.918,-0.091 0.228,-0.06 0.408,-0.18 0.54,-0.359 0.131,-0.181 0.216,-0.42 0.252,-0.721 0.036,-0.3 0.054,-0.689 0.054,-1.17 z"
   id="path571"
   inkscape:connector-curvature="0"
   style="fill:#ffffff" />
	<path
   d="m 161.974,48.692 v 10.764 h -4.14 v -28.44 h 5.904 c 1.224,0 2.22,0.066 2.988,0.198 0.768,0.133 1.374,0.402 1.818,0.811 0.444,0.408 0.744,0.989 0.9,1.746 0.156,0.756 0.234,1.77 0.234,3.042 v 6.084 c 0,1.271 -0.084,2.292 -0.252,3.06 -0.168,0.769 -0.474,1.356 -0.918,1.764 -0.444,0.409 -1.05,0.673 -1.818,0.792 -0.769,0.121 -1.752,0.181 -2.952,0.181 h -1.764 z m 0,-14.076 v 10.728 h 1.764 c 0.36,0 0.66,-0.029 0.9,-0.09 0.239,-0.06 0.419,-0.174 0.54,-0.342 0.12,-0.168 0.204,-0.401 0.252,-0.702 0.048,-0.3 0.072,-0.689 0.072,-1.17 v -6.228 c 0,-0.456 -0.018,-0.828 -0.054,-1.116 -0.036,-0.288 -0.114,-0.51 -0.234,-0.666 -0.12,-0.156 -0.294,-0.264 -0.522,-0.324 -0.228,-0.06 -0.546,-0.09 -0.954,-0.09 z"
   id="path573"
   inkscape:connector-curvature="0"
   style="fill:#ffffff" />
	<path
   d="m 176.265,59.456 h -4.14 v -28.44 h 5.904 c 1.224,0 2.22,0.066 2.988,0.198 0.768,0.133 1.374,0.408 1.818,0.828 0.444,0.42 0.744,1.008 0.9,1.764 0.156,0.757 0.234,1.759 0.234,3.007 V 39.8 c 0,0.744 -0.079,1.351 -0.234,1.818 -0.156,0.468 -0.36,0.846 -0.612,1.134 -0.252,0.288 -0.528,0.498 -0.828,0.63 -0.3,0.133 -0.594,0.234 -0.882,0.307 v 0.144 c 0.384,0.097 0.732,0.223 1.044,0.378 0.312,0.156 0.582,0.396 0.81,0.72 0.228,0.324 0.401,0.738 0.522,1.242 0.12,0.504 0.18,1.152 0.18,1.944 v 11.34 h -4.176 v -11.99 c 0,-0.768 -0.096,-1.302 -0.288,-1.602 -0.192,-0.3 -0.648,-0.45 -1.368,-0.45 h -1.872 z m 0,-17.317 h 1.872 c 0.671,0 1.116,-0.131 1.332,-0.396 0.216,-0.264 0.324,-0.744 0.324,-1.44 v -3.491 c 0,-0.456 -0.018,-0.822 -0.054,-1.099 -0.036,-0.275 -0.114,-0.498 -0.234,-0.666 -0.12,-0.167 -0.3,-0.281 -0.54,-0.342 -0.24,-0.06 -0.552,-0.09 -0.936,-0.09 h -1.764 z"
   id="path575"
   inkscape:connector-curvature="0"
   style="fill:#ffffff" />
	<path
   d="M 194.229,59.456 V 53.12 h -3.492 v 6.336 h -4.032 V 36.631 c 0,-1.319 0.078,-2.369 0.234,-3.149 0.156,-0.78 0.45,-1.38 0.882,-1.801 0.432,-0.419 1.026,-0.695 1.782,-0.827 0.756,-0.132 1.722,-0.198 2.898,-0.198 1.176,0 2.142,0.072 2.898,0.216 0.756,0.144 1.355,0.432 1.8,0.864 0.444,0.432 0.75,1.038 0.918,1.817 0.168,0.78 0.252,1.807 0.252,3.078 v 22.824 h -4.14 z m -1.764,-25.092 c -0.36,0 -0.654,0.03 -0.882,0.09 -0.229,0.061 -0.409,0.168 -0.54,0.324 -0.132,0.156 -0.216,0.384 -0.252,0.684 -0.036,0.301 -0.054,0.69 -0.054,1.17 v 13.104 h 3.492 V 36.631 c 0,-0.479 -0.024,-0.869 -0.072,-1.17 -0.048,-0.3 -0.132,-0.527 -0.252,-0.684 -0.12,-0.157 -0.3,-0.264 -0.54,-0.324 -0.24,-0.059 -0.54,-0.089 -0.9,-0.089 z"
   id="path577"
   inkscape:connector-curvature="0"
   style="fill:#ffffff" />
	<path
   d="m 208.701,43.076 v -6.444 c 0,-0.479 -0.018,-0.869 -0.054,-1.17 -0.036,-0.3 -0.121,-0.527 -0.252,-0.684 -0.132,-0.156 -0.313,-0.264 -0.54,-0.324 -0.229,-0.06 -0.522,-0.09 -0.882,-0.09 -0.384,0 -0.69,0.03 -0.918,0.09 -0.229,0.061 -0.409,0.175 -0.54,0.342 -0.132,0.168 -0.216,0.402 -0.252,0.702 -0.036,0.301 -0.054,0.679 -0.054,1.134 v 17.172 c 0,0.504 0.018,0.906 0.054,1.206 0.036,0.301 0.12,0.534 0.252,0.702 0.131,0.168 0.312,0.282 0.54,0.342 0.228,0.061 0.534,0.091 0.918,0.091 0.36,0 0.653,-0.03 0.882,-0.091 0.228,-0.06 0.408,-0.174 0.54,-0.342 0.131,-0.168 0.216,-0.401 0.252,-0.702 0.036,-0.3 0.054,-0.702 0.054,-1.206 v -6.588 h 3.996 v 6.588 c 0,1.32 -0.078,2.376 -0.234,3.168 -0.156,0.792 -0.45,1.398 -0.882,1.818 -0.432,0.42 -1.021,0.696 -1.764,0.828 -0.744,0.132 -1.692,0.198 -2.844,0.198 -1.224,0 -2.22,-0.066 -2.988,-0.198 -0.768,-0.132 -1.368,-0.408 -1.8,-0.828 -0.432,-0.42 -0.726,-1.026 -0.882,-1.818 -0.156,-0.792 -0.234,-1.848 -0.234,-3.168 V 36.631 c 0,-1.296 0.084,-2.34 0.252,-3.132 0.168,-0.792 0.474,-1.397 0.918,-1.818 0.444,-0.419 1.05,-0.695 1.818,-0.827 0.768,-0.132 1.74,-0.198 2.916,-0.198 1.152,0 2.1,0.066 2.844,0.198 0.744,0.132 1.332,0.408 1.764,0.827 0.432,0.421 0.726,1.021 0.882,1.801 0.156,0.78 0.234,1.83 0.234,3.149 v 6.444 h -3.996 z"
   id="path579"
   inkscape:connector-curvature="0"
   style="fill:#ffffff" />
	<path
   d="m 226.269,31.015 -4.248,18.396 v 10.044 h -4.14 V 49.412 l -4.104,-18.396 h 4.104 l 2.052,12.853 h 0.144 l 2.16,-12.853 h 4.032 z"
   id="path581"
   inkscape:connector-curvature="0"
   style="fill:#ffffff" />
	<path
   d="m 238.4,59.456 h -4.14 v -28.44 h 4.14 z"
   id="path583"
   inkscape:connector-curvature="0"
   style="fill:#ffffff" />
	<path
   d="m 253.591,59.816 c -1.201,0 -2.178,-0.066 -2.934,-0.198 -0.756,-0.132 -1.35,-0.408 -1.782,-0.828 -0.432,-0.42 -0.732,-1.026 -0.9,-1.818 -0.168,-0.792 -0.252,-1.848 -0.252,-3.168 V 31.015 h 4.14 v 22.788 c 0,0.504 0.023,0.906 0.072,1.206 0.048,0.301 0.138,0.528 0.27,0.685 0.132,0.157 0.312,0.264 0.54,0.323 0.228,0.061 0.534,0.091 0.918,0.091 0.36,0 0.654,-0.03 0.882,-0.091 0.228,-0.06 0.401,-0.167 0.522,-0.323 0.12,-0.156 0.204,-0.384 0.252,-0.685 0.048,-0.3 0.072,-0.702 0.072,-1.206 V 31.015 h 4.032 v 22.788 c 0,1.32 -0.084,2.376 -0.252,3.168 -0.168,0.792 -0.468,1.398 -0.9,1.818 -0.432,0.42 -1.026,0.696 -1.782,0.828 -0.756,0.132 -1.722,0.199 -2.898,0.199 z"
   id="path585"
   inkscape:connector-curvature="0"
   style="fill:#ffffff" />
	<path
   d="m 271.663,34.471 h -3.096 v 24.984 h -4.14 V 34.471 h -3.132 v -3.456 h 10.368 z"
   id="path587"
   inkscape:connector-curvature="0"
   style="fill:#ffffff" />
	<path
   d="m 277.855,59.456 h -4.14 v -28.44 h 5.904 c 1.224,0 2.22,0.066 2.988,0.198 0.768,0.133 1.374,0.408 1.818,0.828 0.444,0.42 0.744,1.008 0.9,1.764 0.156,0.757 0.234,1.759 0.234,3.007 V 39.8 c 0,0.744 -0.079,1.351 -0.234,1.818 -0.156,0.468 -0.36,0.846 -0.612,1.134 -0.252,0.288 -0.528,0.498 -0.828,0.63 -0.3,0.133 -0.594,0.234 -0.882,0.307 v 0.144 c 0.384,0.097 0.732,0.223 1.044,0.378 0.312,0.156 0.582,0.396 0.81,0.72 0.228,0.324 0.401,0.738 0.522,1.242 0.12,0.504 0.18,1.152 0.18,1.944 v 11.34 h -4.176 v -11.99 c 0,-0.768 -0.096,-1.302 -0.288,-1.602 -0.192,-0.3 -0.648,-0.45 -1.368,-0.45 h -1.872 z m 0,-17.317 h 1.872 c 0.671,0 1.116,-0.131 1.332,-0.396 0.216,-0.264 0.324,-0.744 0.324,-1.44 v -3.491 c 0,-0.456 -0.018,-0.822 -0.054,-1.099 -0.036,-0.275 -0.114,-0.498 -0.234,-0.666 -0.12,-0.167 -0.3,-0.281 -0.54,-0.342 -0.24,-0.06 -0.552,-0.09 -0.936,-0.09 h -1.764 z"
   id="path589"
   inkscape:connector-curvature="0"
   style="fill:#ffffff" />
	<path
   d="m 297.547,59.456 h -9.972 v -3.6 l 5.724,-21.385 h -5.148 v -3.456 h 9.324 v 2.809 l -5.58,22.067 h 5.652 z"
   id="path591"
   inkscape:connector-curvature="0"
   style="fill:#ffffff" />
	<path
   d="m 310.831,31.015 -4.248,18.396 v 10.044 h -4.14 V 49.412 l -4.104,-18.396 h 4.104 l 2.052,12.853 h 0.144 l 2.16,-12.853 h 4.032 z"
   id="path593"
   inkscape:connector-curvature="0"
   style="fill:#ffffff" />
	<path
   d="m 328.614,31.015 v 28.44 H 325.23 V 39.368 h -0.144 l -2.628,20.088 h -3.708 l -2.628,-20.232 h -0.144 v 20.232 h -3.42 v -28.44 h 5.796 l 2.16,19.116 h 0.144 l 2.196,-19.116 h 5.76 z"
   id="path595"
   inkscape:connector-curvature="0"
   style="fill:#ffffff" />
	<path
   d="M 339.126,59.456 V 53.12 h -3.492 v 6.336 h -4.032 V 36.631 c 0,-1.319 0.078,-2.369 0.234,-3.149 0.156,-0.78 0.45,-1.38 0.882,-1.801 0.432,-0.419 1.026,-0.695 1.782,-0.827 0.756,-0.132 1.722,-0.198 2.898,-0.198 1.176,0 2.142,0.072 2.898,0.216 0.756,0.144 1.355,0.432 1.8,0.864 0.444,0.432 0.75,1.038 0.918,1.817 0.168,0.78 0.252,1.807 0.252,3.078 v 22.824 h -4.14 z m -1.764,-25.092 c -0.36,0 -0.654,0.03 -0.882,0.09 -0.229,0.061 -0.409,0.168 -0.54,0.324 -0.132,0.156 -0.216,0.384 -0.252,0.684 -0.036,0.301 -0.054,0.69 -0.054,1.17 v 13.104 h 3.492 V 36.631 c 0,-0.479 -0.024,-0.869 -0.072,-1.17 -0.048,-0.3 -0.132,-0.527 -0.252,-0.684 -0.12,-0.157 -0.3,-0.264 -0.54,-0.324 -0.241,-0.059 -0.54,-0.089 -0.9,-0.089 z"
   id="path597"
   inkscape:connector-curvature="0"
   style="fill:#ffffff" />
	<path
   d="m 354.246,59.456 -4.285,-17.748 h -0.144 v 17.748 h -3.564 v -28.44 h 4.573 l 4.104,18.252 h 0.145 V 31.015 h 3.6 v 28.44 h -4.429 z"
   id="path599"
   inkscape:connector-curvature="0"
   style="fill:#ffffff" />
	<path
   d="m 366.089,59.456 h -4.14 v -28.44 h 4.14 z"
   id="path601"
   inkscape:connector-curvature="0"
   style="fill:#ffffff" />
	<path
   d="m 375.088,59.816 c -1.2,0 -2.178,-0.066 -2.934,-0.198 -0.756,-0.132 -1.35,-0.408 -1.782,-0.828 -0.432,-0.42 -0.732,-1.026 -0.899,-1.818 -0.169,-0.792 -0.252,-1.848 -0.252,-3.168 V 31.015 h 4.14 v 22.788 c 0,0.504 0.023,0.906 0.072,1.206 0.048,0.301 0.138,0.528 0.27,0.685 0.132,0.157 0.312,0.264 0.54,0.323 0.228,0.061 0.534,0.091 0.918,0.091 0.36,0 0.653,-0.03 0.882,-0.091 0.229,-0.06 0.402,-0.167 0.522,-0.323 0.12,-0.156 0.203,-0.384 0.252,-0.685 0.048,-0.3 0.072,-0.702 0.072,-1.206 V 31.015 h 4.031 v 22.788 c 0,1.32 -0.084,2.376 -0.252,3.168 -0.168,0.792 -0.468,1.398 -0.899,1.818 -0.433,0.42 -1.026,0.696 -1.782,0.828 -0.756,0.132 -1.723,0.199 -2.899,0.199 z"
   id="path603"
   inkscape:connector-curvature="0"
   style="fill:#ffffff" />
	<path
   d="m 393.017,31.015 1.188,22.356 h 0.144 l 1.908,-22.356 h 5.292 l 1.62,22.356 h 0.144 l 1.548,-22.356 h 4.177 l -3.313,28.44 h -5.256 l -1.512,-22.572 h -0.145 l -1.979,22.572 h -5.328 l -2.628,-28.44 z"
   id="path605"
   inkscape:connector-curvature="0"
   style="fill:#ffffff" />
	<path
   d="m 421.312,48.692 v 10.764 h -4.14 v -28.44 h 5.904 c 1.224,0 2.22,0.066 2.987,0.198 0.769,0.133 1.374,0.402 1.818,0.811 0.444,0.409 0.744,0.989 0.9,1.746 0.155,0.756 0.233,1.77 0.233,3.042 v 6.084 c 0,1.271 -0.084,2.292 -0.252,3.06 -0.168,0.769 -0.474,1.356 -0.918,1.764 -0.444,0.409 -1.05,0.673 -1.817,0.792 -0.769,0.121 -1.753,0.181 -2.952,0.181 h -1.763 z m 0,-14.076 v 10.728 h 1.765 c 0.359,0 0.659,-0.029 0.899,-0.09 0.24,-0.06 0.42,-0.174 0.54,-0.342 0.12,-0.168 0.204,-0.401 0.252,-0.702 0.048,-0.3 0.072,-0.689 0.072,-1.17 v -6.228 c 0,-0.456 -0.018,-0.828 -0.054,-1.116 -0.036,-0.288 -0.114,-0.51 -0.234,-0.666 -0.12,-0.156 -0.294,-0.264 -0.521,-0.324 -0.229,-0.06 -0.547,-0.09 -0.954,-0.09 z"
   id="path607"
   inkscape:connector-curvature="0"
   style="fill:#ffffff" />
	<path
   d="m 443.02,53.803 c 0,1.32 -0.078,2.376 -0.233,3.168 -0.156,0.792 -0.456,1.398 -0.9,1.818 -0.444,0.42 -1.05,0.696 -1.817,0.828 -0.769,0.132 -1.765,0.198 -2.988,0.198 -1.225,0 -2.221,-0.066 -2.988,-0.198 -0.769,-0.132 -1.368,-0.408 -1.8,-0.828 -0.432,-0.42 -0.727,-1.026 -0.882,-1.818 -0.156,-0.792 -0.234,-1.848 -0.234,-3.168 V 36.631 c 0,-1.319 0.078,-2.369 0.234,-3.149 0.155,-0.78 0.45,-1.38 0.882,-1.801 0.432,-0.419 1.031,-0.695 1.8,-0.827 0.768,-0.132 1.764,-0.198 2.988,-0.198 1.224,0 2.22,0.066 2.988,0.198 0.768,0.132 1.373,0.408 1.817,0.827 0.444,0.421 0.744,1.021 0.9,1.801 0.155,0.78 0.233,1.83 0.233,3.149 z m -4.176,-17.172 c 0,-0.959 -0.107,-1.577 -0.324,-1.854 -0.216,-0.276 -0.696,-0.414 -1.439,-0.414 -0.385,0 -0.69,0.03 -0.918,0.09 -0.229,0.061 -0.408,0.175 -0.54,0.342 -0.133,0.168 -0.216,0.402 -0.252,0.702 -0.036,0.301 -0.055,0.679 -0.055,1.134 v 17.172 c 0,0.504 0.019,0.906 0.055,1.206 0.036,0.301 0.119,0.534 0.252,0.702 0.132,0.168 0.312,0.282 0.54,0.342 0.228,0.061 0.533,0.091 0.918,0.091 0.384,0 0.689,-0.03 0.918,-0.091 0.228,-0.06 0.407,-0.18 0.54,-0.359 0.132,-0.181 0.216,-0.42 0.252,-0.721 0.036,-0.3 0.054,-0.689 0.054,-1.17 V 36.631 Z"
   id="path609"
   inkscape:connector-curvature="0"
   style="fill:#ffffff" />
	<path
   d="m 454.287,59.456 h -8.388 v -28.44 h 4.14 v 24.841 h 4.248 z"
   id="path611"
   inkscape:connector-curvature="0"
   style="fill:#ffffff" />
	<path
   d="m 463.646,40.232 v -3.528 c 0,-0.504 -0.018,-0.912 -0.054,-1.224 -0.036,-0.313 -0.114,-0.546 -0.234,-0.702 -0.12,-0.156 -0.3,-0.264 -0.539,-0.324 -0.24,-0.06 -0.553,-0.09 -0.937,-0.09 -0.408,0 -0.727,0.03 -0.954,0.09 -0.229,0.061 -0.402,0.168 -0.521,0.324 -0.121,0.156 -0.198,0.39 -0.234,0.702 -0.036,0.312 -0.054,0.72 -0.054,1.224 v 2.808 c 0,0.36 0.023,0.661 0.071,0.9 0.048,0.24 0.15,0.456 0.307,0.647 0.155,0.192 0.384,0.385 0.684,0.576 0.3,0.192 0.714,0.421 1.242,0.685 1.248,0.647 2.232,1.2 2.952,1.655 0.72,0.457 1.26,0.919 1.62,1.387 0.359,0.468 0.588,0.996 0.684,1.584 0.096,0.588 0.145,1.35 0.145,2.286 v 4.571 c 0,1.32 -0.078,2.376 -0.234,3.168 -0.156,0.792 -0.45,1.398 -0.882,1.818 -0.433,0.42 -1.038,0.696 -1.818,0.828 -0.78,0.132 -1.782,0.198 -3.006,0.198 -1.152,0 -2.101,-0.066 -2.844,-0.198 -0.744,-0.132 -1.332,-0.408 -1.765,-0.828 -0.432,-0.42 -0.731,-1.026 -0.899,-1.818 -0.168,-0.792 -0.252,-1.848 -0.252,-3.168 v -5.651 h 4.032 v 5.651 c 0,0.504 0.018,0.906 0.054,1.206 0.036,0.301 0.113,0.534 0.234,0.702 0.119,0.168 0.293,0.282 0.521,0.342 0.228,0.061 0.534,0.091 0.918,0.091 0.768,0 1.254,-0.145 1.458,-0.433 0.204,-0.288 0.306,-0.924 0.306,-1.908 V 49.52 c 0,-0.48 -0.018,-0.876 -0.054,-1.188 -0.036,-0.312 -0.132,-0.588 -0.288,-0.828 -0.156,-0.239 -0.391,-0.462 -0.702,-0.666 -0.312,-0.203 -0.732,-0.45 -1.26,-0.738 -1.248,-0.647 -2.227,-1.199 -2.934,-1.655 -0.708,-0.456 -1.242,-0.918 -1.603,-1.387 -0.359,-0.468 -0.588,-0.983 -0.684,-1.548 -0.097,-0.563 -0.145,-1.254 -0.145,-2.069 v -2.736 c 0,-1.319 0.078,-2.376 0.234,-3.168 0.156,-0.792 0.45,-1.404 0.882,-1.836 0.433,-0.433 1.032,-0.714 1.8,-0.846 0.769,-0.132 1.765,-0.198 2.988,-0.198 1.2,0 2.178,0.066 2.934,0.198 0.757,0.132 1.345,0.413 1.765,0.846 0.42,0.432 0.707,1.044 0.864,1.836 0.155,0.792 0.233,1.849 0.233,3.168 v 3.528 h -4.031 z"
   id="path613"
   inkscape:connector-curvature="0"
   style="fill:#ffffff" />
	<path
   d="m 477.975,43.076 v -6.444 c 0,-0.479 -0.018,-0.869 -0.054,-1.17 -0.036,-0.3 -0.12,-0.527 -0.252,-0.684 -0.132,-0.157 -0.313,-0.264 -0.54,-0.324 -0.229,-0.06 -0.522,-0.09 -0.882,-0.09 -0.385,0 -0.69,0.03 -0.918,0.09 -0.229,0.061 -0.408,0.175 -0.54,0.342 -0.133,0.168 -0.216,0.402 -0.252,0.702 -0.036,0.301 -0.055,0.679 -0.055,1.134 v 17.172 c 0,0.504 0.019,0.906 0.055,1.206 0.036,0.301 0.119,0.534 0.252,0.702 0.132,0.168 0.312,0.282 0.54,0.342 0.228,0.061 0.533,0.091 0.918,0.091 0.359,0 0.653,-0.03 0.882,-0.091 0.228,-0.06 0.408,-0.174 0.54,-0.342 0.132,-0.168 0.216,-0.401 0.252,-0.702 0.036,-0.3 0.054,-0.702 0.054,-1.206 v -6.588 h 3.996 v 6.588 c 0,1.32 -0.078,2.376 -0.233,3.168 -0.157,0.792 -0.45,1.398 -0.883,1.818 -0.432,0.42 -1.02,0.696 -1.764,0.828 -0.744,0.132 -1.692,0.198 -2.844,0.198 -1.225,0 -2.221,-0.066 -2.988,-0.198 -0.769,-0.132 -1.368,-0.408 -1.8,-0.828 -0.432,-0.42 -0.727,-1.026 -0.882,-1.818 -0.156,-0.792 -0.234,-1.848 -0.234,-3.168 V 36.631 c 0,-1.296 0.084,-2.34 0.252,-3.132 0.168,-0.792 0.474,-1.397 0.918,-1.818 0.444,-0.419 1.05,-0.695 1.818,-0.827 0.768,-0.132 1.739,-0.198 2.916,-0.198 1.151,0 2.1,0.066 2.844,0.198 0.744,0.132 1.332,0.408 1.764,0.827 0.433,0.421 0.726,1.021 0.883,1.801 0.155,0.78 0.233,1.83 0.233,3.149 v 6.444 h -3.996 z"
   id="path615"
   inkscape:connector-curvature="0"
   style="fill:#ffffff" />
	<path
   d="m 492.986,59.456 h -8.136 v -28.44 h 8.1 v 3.421 h -3.96 v 4.14 h 3.853 v 3.276 h -3.853 v 14.039 h 3.996 z"
   id="path617"
   inkscape:connector-curvature="0"
   style="fill:#ffffff" />
	<path
   d="m 504.506,31.015 1.188,22.356 h 0.144 l 1.908,-22.356 h 5.292 l 1.62,22.356 h 0.144 l 1.548,-22.356 h 4.177 l -3.313,28.44 h -5.256 l -1.512,-22.572 h -0.145 l -1.979,22.572 h -5.328 l -2.628,-28.44 z"
   id="path619"
   inkscape:connector-curvature="0"
   style="fill:#ffffff" />
	<path
   d="m 537.049,59.456 h -8.388 v -28.44 h 4.14 v 24.841 h 4.248 z"
   id="path621"
   inkscape:connector-curvature="0"
   style="fill:#ffffff" />
	<path
   d="m 543.313,59.456 h -4.14 v -28.44 h 4.14 z"
   id="path623"
   inkscape:connector-curvature="0"
   style="fill:#ffffff" />
	<path
   d="m 553.933,43.076 v -6.444 c 0,-0.479 -0.018,-0.869 -0.054,-1.17 -0.036,-0.3 -0.12,-0.527 -0.252,-0.684 -0.132,-0.157 -0.313,-0.264 -0.54,-0.324 -0.229,-0.06 -0.522,-0.09 -0.882,-0.09 -0.385,0 -0.69,0.03 -0.918,0.09 -0.229,0.061 -0.408,0.175 -0.54,0.342 -0.133,0.168 -0.216,0.402 -0.252,0.702 -0.036,0.301 -0.055,0.679 -0.055,1.134 v 17.172 c 0,0.504 0.019,0.906 0.055,1.206 0.036,0.301 0.119,0.534 0.252,0.702 0.132,0.168 0.312,0.282 0.54,0.342 0.228,0.061 0.533,0.091 0.918,0.091 0.359,0 0.653,-0.03 0.882,-0.091 0.228,-0.06 0.408,-0.174 0.54,-0.342 0.132,-0.168 0.216,-0.401 0.252,-0.702 0.036,-0.3 0.054,-0.702 0.054,-1.206 v -6.588 h 3.996 v 6.588 c 0,1.32 -0.078,2.376 -0.233,3.168 -0.157,0.792 -0.45,1.398 -0.883,1.818 -0.432,0.42 -1.02,0.696 -1.764,0.828 -0.744,0.132 -1.692,0.198 -2.844,0.198 -1.225,0 -2.221,-0.066 -2.988,-0.198 -0.769,-0.132 -1.368,-0.408 -1.8,-0.828 -0.432,-0.42 -0.727,-1.026 -0.882,-1.818 -0.156,-0.792 -0.234,-1.848 -0.234,-3.168 V 36.631 c 0,-1.296 0.084,-2.34 0.252,-3.132 0.168,-0.792 0.474,-1.397 0.918,-1.818 0.444,-0.419 1.05,-0.695 1.818,-0.827 0.768,-0.132 1.739,-0.198 2.916,-0.198 1.151,0 2.1,0.066 2.844,0.198 0.744,0.132 1.332,0.408 1.764,0.827 0.433,0.421 0.726,1.021 0.883,1.801 0.155,0.78 0.233,1.83 0.233,3.149 v 6.444 h -3.996 z"
   id="path625"
   inkscape:connector-curvature="0"
   style="fill:#ffffff" />
	<path
   d="m 569.845,59.456 h -9.972 v -3.6 l 5.724,-21.385 h -5.148 v -3.456 h 9.324 v 2.809 l -5.58,22.067 h 5.652 z"
   id="path627"
   inkscape:connector-curvature="0"
   style="fill:#ffffff" />
	<path
   d="m 581.4,42.967 c 0.384,0.097 0.731,0.229 1.044,0.396 0.312,0.168 0.582,0.426 0.81,0.773 0.229,0.349 0.402,0.799 0.522,1.351 0.12,0.552 0.18,1.26 0.18,2.124 v 6.012 c 0,1.272 -0.078,2.292 -0.233,3.06 -0.156,0.769 -0.456,1.356 -0.9,1.765 -0.444,0.409 -1.05,0.678 -1.818,0.81 -0.768,0.133 -1.764,0.198 -2.987,0.198 h -5.904 v -28.44 h 5.904 c 1.224,0 2.22,0.066 2.987,0.198 0.769,0.133 1.374,0.402 1.818,0.811 0.444,0.409 0.744,0.989 0.9,1.746 0.155,0.756 0.233,1.77 0.233,3.042 v 2.124 c 0,0.744 -0.09,1.355 -0.27,1.836 -0.181,0.479 -0.396,0.863 -0.648,1.151 -0.252,0.288 -0.528,0.504 -0.828,0.648 -0.3,0.144 -0.57,0.229 -0.81,0.252 z m -5.148,-1.655 h 1.872 c 0.672,0 1.116,-0.132 1.332,-0.396 0.216,-0.264 0.324,-0.743 0.324,-1.44 v -2.663 c 0,-0.433 -0.018,-0.792 -0.054,-1.08 -0.036,-0.288 -0.114,-0.517 -0.234,-0.685 -0.12,-0.167 -0.3,-0.281 -0.54,-0.342 -0.24,-0.06 -0.552,-0.09 -0.936,-0.09 h -1.765 v 6.696 z m 0,14.579 h 1.765 c 0.384,0 0.689,-0.029 0.918,-0.09 0.228,-0.06 0.401,-0.167 0.521,-0.323 0.12,-0.156 0.204,-0.384 0.252,-0.685 0.048,-0.3 0.072,-0.689 0.072,-1.17 v -6.948 c 0,-0.792 -0.096,-1.337 -0.288,-1.638 -0.192,-0.3 -0.647,-0.45 -1.368,-0.45 h -1.872 z"
   id="path629"
   inkscape:connector-curvature="0"
   style="fill:#ffffff" />
	<path
   d="M 594.072,59.456 V 53.12 h -3.491 v 6.336 h -4.032 V 36.631 c 0,-1.319 0.077,-2.369 0.233,-3.149 0.156,-0.78 0.45,-1.38 0.883,-1.801 0.432,-0.419 1.025,-0.695 1.781,-0.827 0.757,-0.132 1.723,-0.198 2.898,-0.198 1.175,0 2.142,0.072 2.897,0.216 0.757,0.144 1.356,0.432 1.801,0.864 0.443,0.432 0.749,1.038 0.918,1.817 0.167,0.78 0.252,1.807 0.252,3.078 v 22.824 h -4.14 z m -1.763,-25.092 c -0.36,0 -0.654,0.03 -0.882,0.09 -0.229,0.061 -0.408,0.168 -0.54,0.324 -0.132,0.156 -0.216,0.384 -0.252,0.684 -0.036,0.301 -0.054,0.69 -0.054,1.17 v 13.104 h 3.491 V 36.631 c 0,-0.479 -0.023,-0.869 -0.071,-1.17 -0.049,-0.3 -0.133,-0.527 -0.252,-0.684 -0.121,-0.156 -0.301,-0.264 -0.54,-0.324 -0.24,-0.059 -0.54,-0.089 -0.9,-0.089 z"
   id="path631"
   inkscape:connector-curvature="0"
   style="fill:#ffffff" />
	<path
   d="m 608.544,43.076 v -6.444 c 0,-0.479 -0.018,-0.869 -0.054,-1.17 -0.036,-0.3 -0.12,-0.527 -0.252,-0.684 -0.132,-0.157 -0.313,-0.264 -0.54,-0.324 -0.229,-0.06 -0.522,-0.09 -0.882,-0.09 -0.385,0 -0.69,0.03 -0.918,0.09 -0.229,0.061 -0.408,0.175 -0.54,0.342 -0.133,0.168 -0.216,0.402 -0.252,0.702 -0.036,0.301 -0.055,0.679 -0.055,1.134 v 17.172 c 0,0.504 0.019,0.906 0.055,1.206 0.036,0.301 0.119,0.534 0.252,0.702 0.132,0.168 0.312,0.282 0.54,0.342 0.228,0.061 0.533,0.091 0.918,0.091 0.359,0 0.653,-0.03 0.882,-0.091 0.228,-0.06 0.408,-0.174 0.54,-0.342 0.132,-0.168 0.216,-0.401 0.252,-0.702 0.036,-0.3 0.054,-0.702 0.054,-1.206 v -6.588 h 3.996 v 6.588 c 0,1.32 -0.078,2.376 -0.233,3.168 -0.157,0.792 -0.45,1.398 -0.883,1.818 -0.432,0.42 -1.02,0.696 -1.764,0.828 -0.744,0.132 -1.692,0.198 -2.844,0.198 -1.225,0 -2.221,-0.066 -2.988,-0.198 -0.769,-0.132 -1.368,-0.408 -1.8,-0.828 -0.432,-0.42 -0.727,-1.026 -0.882,-1.818 -0.156,-0.792 -0.234,-1.848 -0.234,-3.168 V 36.631 c 0,-1.296 0.084,-2.34 0.252,-3.132 0.168,-0.792 0.474,-1.397 0.918,-1.818 0.444,-0.419 1.05,-0.695 1.818,-0.827 0.768,-0.132 1.739,-0.198 2.916,-0.198 1.151,0 2.1,0.066 2.844,0.198 0.744,0.132 1.332,0.408 1.764,0.827 0.433,0.421 0.726,1.021 0.883,1.801 0.155,0.78 0.233,1.83 0.233,3.149 v 6.444 h -3.996 z"
   id="path633"
   inkscape:connector-curvature="0"
   style="fill:#ffffff" />
	<path
   d="M 627.336,59.456 H 623.16 V 43.904 h -3.601 v 15.552 h -4.14 v -28.44 h 4.14 v 9.396 h 3.601 v -9.396 h 4.176 z"
   id="path635"
   inkscape:connector-curvature="0"
   style="fill:#ffffff" />
</g>
</svg>