<?xml version="1.0" encoding="utf-8"?>
<!-- Generator: Adobe Illustrator 16.0.0, SVG Export Plug-In . SVG Version: 6.00 Build 0)  -->
<!DOCTYPE svg PUBLIC "-//W3C//DTD SVG 1.1//EN" "http://www.w3.org/Graphics/SVG/1.1/DTD/svg11.dtd">
<svg version="1.1" id="Warstwa_1" xmlns="http://www.w3.org/2000/svg" xmlns:xlink="http://www.w3.org/1999/xlink" x="0px" y="0px"
	 width="694px" height="85.04px" viewBox="0 0 694 85.04" enable-background="new 0 0 694 85.04" xml:space="preserve">
<polygon stroke="#FFFFFF" stroke-miterlimit="10" points="543.5,74 146.5,77 146.5,17 543.5,10 "/>
<g enable-background="new    ">
	<path fill="#FFFFFF" d="M225.431,47.215h3.78v6.588c0,0.984,0.108,1.62,0.324,1.908c0.216,0.288,0.672,0.433,1.368,0.433
		c0.72,0,1.182-0.15,1.386-0.45c0.204-0.3,0.306-0.93,0.306-1.891V31.015h4.176v22.788c0,1.32-0.079,2.376-0.234,3.168
		c-0.156,0.792-0.444,1.398-0.864,1.818c-0.42,0.42-1.008,0.696-1.764,0.828s-1.734,0.198-2.934,0.198
		c-1.128,0-2.052-0.066-2.772-0.198c-0.72-0.132-1.284-0.408-1.692-0.828c-0.408-0.42-0.69-1.026-0.846-1.818
		s-0.234-1.848-0.234-3.168V47.215z"/>
	<path fill="#FFFFFF" d="M247.031,59.456V53.12h-3.492v6.336h-4.032V36.631c0-1.319,0.078-2.369,0.234-3.149
		c0.156-0.78,0.45-1.38,0.882-1.801c0.432-0.419,1.026-0.695,1.782-0.827c0.756-0.132,1.722-0.198,2.898-0.198
		c1.176,0,2.142,0.072,2.898,0.216s1.355,0.432,1.8,0.864c0.444,0.432,0.75,1.038,0.918,1.817c0.168,0.78,0.252,1.807,0.252,3.078
		v22.824H247.031z M245.267,34.364c-0.36,0-0.654,0.03-0.882,0.09c-0.229,0.061-0.409,0.168-0.54,0.324
		c-0.132,0.156-0.216,0.384-0.252,0.684c-0.036,0.301-0.054,0.69-0.054,1.17v13.104h3.492V36.631c0-0.479-0.024-0.869-0.072-1.17
		c-0.048-0.3-0.132-0.527-0.252-0.684s-0.3-0.264-0.54-0.324C245.926,34.394,245.626,34.364,245.267,34.364z"/>
	<path fill="#FFFFFF" d="M266.362,31.015l-4.248,11.809l4.824,16.632h-4.5l-3.924-14.94h-0.18v14.94h-4.176V31.051h4.176V41.78h0.18
		l3.492-10.765H266.362z"/>
	<path fill="#FFFFFF" d="M272.986,59.456h-4.14v-28.44h4.14V59.456z"/>
	<path fill="#FFFFFF" d="M284.398,59.456h-8.136v-28.44h8.1v3.421h-3.96v4.14h3.852v3.276h-3.852v14.039h3.996V59.456z"/>
	<path fill="#FFFFFF" d="M300.345,40.232v-3.528c0-0.504-0.018-0.912-0.054-1.224c-0.036-0.313-0.114-0.546-0.234-0.702
		c-0.121-0.156-0.3-0.264-0.54-0.324c-0.24-0.06-0.552-0.09-0.936-0.09c-0.408,0-0.726,0.03-0.954,0.09
		c-0.228,0.061-0.402,0.168-0.522,0.324s-0.198,0.39-0.234,0.702c-0.036,0.312-0.054,0.72-0.054,1.224v2.808
		c0,0.36,0.024,0.661,0.072,0.9c0.048,0.24,0.149,0.456,0.306,0.647c0.156,0.192,0.383,0.385,0.684,0.576
		c0.3,0.192,0.714,0.421,1.242,0.685c1.248,0.647,2.232,1.2,2.952,1.655c0.72,0.457,1.26,0.919,1.62,1.387
		c0.36,0.468,0.587,0.996,0.684,1.584c0.096,0.588,0.144,1.35,0.144,2.286v4.571c0,1.32-0.078,2.376-0.234,3.168
		c-0.156,0.792-0.45,1.398-0.882,1.818c-0.432,0.42-1.039,0.696-1.818,0.828s-1.782,0.198-3.006,0.198
		c-1.152,0-2.1-0.066-2.844-0.198c-0.744-0.132-1.332-0.408-1.764-0.828s-0.732-1.026-0.9-1.818
		c-0.168-0.792-0.252-1.848-0.252-3.168v-5.651h4.032v5.651c0,0.504,0.018,0.906,0.054,1.206c0.036,0.301,0.113,0.534,0.234,0.702
		c0.12,0.168,0.293,0.282,0.522,0.342c0.228,0.061,0.534,0.091,0.918,0.091c0.768,0,1.254-0.145,1.458-0.433
		c0.204-0.288,0.306-0.924,0.306-1.908V49.52c0-0.48-0.018-0.876-0.054-1.188c-0.036-0.312-0.132-0.588-0.288-0.828
		c-0.156-0.239-0.39-0.462-0.702-0.666c-0.313-0.203-0.732-0.45-1.26-0.738c-1.248-0.647-2.226-1.199-2.934-1.655
		s-1.242-0.918-1.602-1.387c-0.36-0.468-0.588-0.983-0.684-1.548c-0.096-0.563-0.144-1.254-0.144-2.069v-2.736
		c0-1.319,0.078-2.376,0.234-3.168c0.156-0.792,0.45-1.404,0.882-1.836c0.432-0.433,1.032-0.714,1.8-0.846
		c0.768-0.132,1.764-0.198,2.988-0.198c1.2,0,2.178,0.066,2.934,0.198s1.344,0.413,1.764,0.846c0.419,0.432,0.708,1.044,0.864,1.836
		c0.156,0.792,0.234,1.849,0.234,3.168v3.528H300.345z"/>
	<path fill="#FFFFFF" d="M318.777,59.456c-0.816,0.384-1.386,0.756-1.71,1.116c-0.324,0.359-0.486,0.852-0.486,1.476
		c0,0.408,0.108,0.702,0.324,0.882c0.216,0.181,0.576,0.271,1.08,0.271h1.296v2.916h-2.808c-0.625,0-1.128-0.078-1.512-0.234
		s-0.696-0.372-0.936-0.647c-0.24-0.276-0.402-0.589-0.486-0.937c-0.084-0.348-0.126-0.726-0.126-1.134
		c0-1.2,0.408-2.088,1.224-2.664v-7.38h-3.492v6.336h-4.032V36.631c0-1.319,0.078-2.369,0.234-3.149
		c0.156-0.78,0.45-1.38,0.882-1.801c0.432-0.419,1.026-0.695,1.782-0.827c0.756-0.132,1.722-0.198,2.898-0.198
		c1.176,0,2.142,0.072,2.898,0.216s1.355,0.432,1.8,0.864c0.444,0.432,0.75,1.038,0.918,1.817c0.168,0.78,0.252,1.807,0.252,3.078
		V59.456z M312.873,34.364c-0.36,0-0.654,0.03-0.882,0.09c-0.229,0.061-0.409,0.168-0.54,0.324
		c-0.132,0.156-0.216,0.384-0.252,0.684c-0.036,0.301-0.054,0.69-0.054,1.17v13.104h3.492V36.631c0-0.479-0.024-0.869-0.072-1.17
		c-0.048-0.3-0.132-0.527-0.252-0.684s-0.3-0.264-0.54-0.324C313.533,34.394,313.233,34.364,312.873,34.364z"/>
	<path fill="#FFFFFF" d="M336.992,59.456h-9.972v-3.6l5.724-21.385h-5.148v-3.456h9.324v2.809l-5.58,22.067h5.652V59.456z"/>
	<path fill="#FFFFFF" d="M346.568,59.456V53.12h-3.492v6.336h-4.032V36.631c0-1.319,0.078-2.369,0.234-3.149
		c0.156-0.78,0.45-1.38,0.882-1.801c0.432-0.419,1.026-0.695,1.782-0.827c0.756-0.132,1.722-0.198,2.898-0.198
		c1.176,0,2.142,0.072,2.898,0.216s1.355,0.432,1.8,0.864c0.444,0.432,0.75,1.038,0.918,1.817c0.168,0.78,0.253,1.807,0.253,3.078
		v22.824H346.568z M344.804,34.364c-0.36,0-0.654,0.03-0.882,0.09c-0.229,0.061-0.409,0.168-0.54,0.324
		c-0.132,0.156-0.216,0.384-0.252,0.684c-0.036,0.301-0.054,0.69-0.054,1.17v13.104h3.492V36.631c0-0.479-0.024-0.869-0.072-1.17
		c-0.048-0.3-0.132-0.527-0.252-0.684s-0.3-0.264-0.54-0.324C345.464,34.394,345.164,34.364,344.804,34.364z"/>
	<path fill="#FFFFFF" d="M361.04,39.223v-2.592c0-0.479-0.019-0.869-0.054-1.17c-0.037-0.3-0.121-0.527-0.252-0.684
		c-0.133-0.156-0.313-0.264-0.541-0.324c-0.229-0.06-0.521-0.09-0.881-0.09c-0.385,0-0.691,0.03-0.918,0.09
		c-0.229,0.061-0.409,0.175-0.541,0.342c-0.132,0.168-0.216,0.402-0.252,0.702c-0.035,0.301-0.054,0.679-0.054,1.134v17.172
		c0,0.48,0.019,0.87,0.054,1.17c0.036,0.301,0.12,0.535,0.252,0.702c0.132,0.169,0.313,0.288,0.541,0.36
		c0.227,0.072,0.533,0.108,0.918,0.108c0.479,0,0.869-0.013,1.17-0.036c0.299-0.024,0.521-0.06,0.666-0.108V42.931h3.887v16.524
		c-0.336,0.072-0.978,0.149-1.926,0.234c-0.947,0.083-2.213,0.126-3.797,0.126c-1.225,0-2.221-0.078-2.988-0.234
		c-0.769-0.156-1.368-0.456-1.801-0.9c-0.432-0.443-0.726-1.056-0.882-1.836c-0.156-0.779-0.233-1.794-0.233-3.042V36.631
		c0-1.296,0.084-2.34,0.252-3.132s0.473-1.397,0.918-1.818c0.443-0.419,1.049-0.695,1.818-0.827
		c0.768-0.132,1.739-0.198,2.916-0.198c1.151,0,2.1,0.066,2.844,0.198c0.743,0.132,1.332,0.408,1.764,0.827
		c0.432,0.421,0.726,1.021,0.882,1.801c0.155,0.78,0.233,1.83,0.233,3.149v2.592H361.04z"/>
	<path fill="#FFFFFF" d="M372.199,59.456h-4.141v-28.44h5.904c1.225,0,2.22,0.066,2.988,0.198c0.768,0.133,1.373,0.408,1.818,0.828
		c0.443,0.42,0.743,1.008,0.899,1.764c0.155,0.757,0.234,1.759,0.234,3.007v2.987c0,0.744-0.079,1.351-0.234,1.818
		c-0.156,0.468-0.36,0.846-0.612,1.134s-0.527,0.498-0.828,0.63c-0.3,0.133-0.594,0.234-0.881,0.307v0.144
		c0.383,0.097,0.731,0.223,1.043,0.378c0.313,0.156,0.582,0.396,0.811,0.72c0.228,0.324,0.401,0.738,0.521,1.242
		s0.181,1.152,0.181,1.944v11.34h-4.177V47.467c0-0.768-0.096-1.302-0.287-1.602c-0.193-0.3-0.648-0.45-1.368-0.45h-1.872V59.456z
		 M372.199,42.139h1.872c0.671,0,1.116-0.131,1.332-0.396c0.216-0.264,0.323-0.744,0.323-1.44v-3.491
		c0-0.456-0.018-0.822-0.053-1.099c-0.037-0.275-0.115-0.498-0.234-0.666c-0.121-0.167-0.301-0.281-0.541-0.342
		c-0.24-0.06-0.552-0.09-0.936-0.09h-1.764V42.139z"/>
	<path fill="#FFFFFF" d="M394.411,53.803c0,1.32-0.078,2.376-0.234,3.168s-0.456,1.398-0.899,1.818
		c-0.445,0.42-1.051,0.696-1.818,0.828c-0.769,0.132-1.764,0.198-2.988,0.198c-1.224,0-2.22-0.066-2.988-0.198
		c-0.768-0.132-1.367-0.408-1.799-0.828c-0.433-0.42-0.727-1.026-0.883-1.818s-0.234-1.848-0.234-3.168V36.631
		c0-1.319,0.078-2.369,0.234-3.149s0.45-1.38,0.883-1.801c0.432-0.419,1.031-0.695,1.799-0.827c0.769-0.132,1.765-0.198,2.988-0.198
		c1.225,0,2.22,0.066,2.988,0.198c0.768,0.132,1.373,0.408,1.818,0.827c0.443,0.421,0.743,1.021,0.899,1.801s0.234,1.83,0.234,3.149
		V53.803z M390.234,36.631c0-0.959-0.107-1.577-0.323-1.854s-0.696-0.414-1.44-0.414c-0.384,0-0.689,0.03-0.918,0.09
		c-0.229,0.061-0.408,0.175-0.539,0.342c-0.133,0.168-0.217,0.402-0.252,0.702c-0.037,0.301-0.055,0.679-0.055,1.134v17.172
		c0,0.504,0.018,0.906,0.055,1.206c0.035,0.301,0.119,0.534,0.252,0.702c0.131,0.168,0.311,0.282,0.539,0.342
		c0.229,0.061,0.534,0.091,0.918,0.091s0.689-0.03,0.918-0.091c0.229-0.06,0.408-0.18,0.541-0.359
		c0.131-0.181,0.215-0.42,0.252-0.721c0.035-0.3,0.053-0.689,0.053-1.17V36.631z"/>
	<path fill="#FFFFFF" d="M406.326,59.456h-9.972v-3.6l5.724-21.385h-5.147v-3.456h9.323v2.809l-5.58,22.067h5.652V59.456z
		 M403.519,27.883h-3.636v-3.744h3.636V27.883z"/>
	<path fill="#FFFFFF" d="M416.73,59.456h-8.137v-28.44h8.101v3.421h-3.96v4.14h3.852v3.276h-3.852v14.039h3.996V59.456z"/>
	<path fill="#FFFFFF" d="M427.17,59.456l-4.284-17.748h-0.144v17.748h-3.564v-28.44h4.572l4.104,18.252h0.145V31.015h3.6v28.44
		H427.17z"/>
	<path fill="#FFFFFF" d="M439.014,59.456h-4.141v-28.44h4.141V59.456z"/>
	<path fill="#FFFFFF" d="M449.598,59.456V53.12h-3.492v6.336h-4.031V36.631c0-1.319,0.077-2.369,0.233-3.149
		c0.155-0.78,0.45-1.38,0.882-1.801c0.432-0.419,1.025-0.695,1.782-0.827c0.756-0.132,1.722-0.198,2.897-0.198
		s2.143,0.072,2.898,0.216s1.355,0.432,1.8,0.864c0.444,0.432,0.75,1.038,0.918,1.817c0.168,0.78,0.253,1.807,0.253,3.078v22.824
		H449.598z M447.834,34.364c-0.36,0-0.654,0.03-0.883,0.09c-0.229,0.061-0.408,0.168-0.539,0.324
		c-0.133,0.156-0.217,0.384-0.252,0.684c-0.037,0.301-0.055,0.69-0.055,1.17v13.104h3.492V36.631c0-0.479-0.024-0.869-0.072-1.17
		c-0.049-0.3-0.132-0.527-0.252-0.684s-0.301-0.264-0.54-0.324C448.493,34.394,448.193,34.364,447.834,34.364z"/>
	<path fill="#FFFFFF" d="M459.929,50.347c0-0.575,0.019-1.067,0.054-1.476c0.036-0.408,0.096-0.792,0.18-1.152
		c0.084-0.359,0.199-0.702,0.342-1.025c0.145-0.324,0.336-0.678,0.576-1.063l1.98-3.132c0.288-0.456,0.474-0.882,0.559-1.278
		c0.084-0.396,0.125-0.966,0.125-1.71v-2.88c0-0.479-0.023-0.869-0.071-1.17c-0.049-0.3-0.132-0.527-0.253-0.684
		c-0.119-0.156-0.293-0.264-0.521-0.324c-0.229-0.06-0.534-0.09-0.918-0.09c-0.408,0-0.727,0.03-0.953,0.09
		c-0.229,0.061-0.402,0.175-0.523,0.342c-0.119,0.168-0.197,0.402-0.233,0.702c-0.036,0.301-0.054,0.679-0.054,1.134v3.601h-4.032
		v-3.601c0-1.319,0.077-2.369,0.233-3.149s0.451-1.38,0.883-1.801c0.432-0.419,1.025-0.695,1.781-0.827
		c0.757-0.132,1.723-0.198,2.898-0.198c1.225,0,2.22,0.066,2.988,0.198c0.768,0.132,1.367,0.408,1.8,0.827
		c0.433,0.421,0.731,1.021,0.899,1.801s0.252,1.83,0.252,3.149v2.557c0,0.624-0.018,1.151-0.053,1.584
		c-0.037,0.432-0.104,0.827-0.199,1.188s-0.228,0.715-0.396,1.063s-0.396,0.737-0.684,1.17l-2.484,3.96
		c-0.144,0.216-0.258,0.408-0.342,0.576c-0.085,0.168-0.15,0.336-0.198,0.504c-0.049,0.168-0.078,0.354-0.09,0.558
		c-0.012,0.204-0.018,0.45-0.018,0.738v2.124h-3.528V50.347z M463.637,59.456h-3.78V54.74h3.78V59.456z"/>
</g>
</svg>
