<?xml version="1.0" encoding="UTF-8" standalone="no"?>
<!-- Generator: Adobe Illustrator 16.0.0, SVG Export Plug-In . SVG Version: 6.00 Build 0)  -->

<svg
   xmlns:dc="http://purl.org/dc/elements/1.1/"
   xmlns:cc="http://creativecommons.org/ns#"
   xmlns:rdf="http://www.w3.org/1999/02/22-rdf-syntax-ns#"
   xmlns:svg="http://www.w3.org/2000/svg"
   xmlns="http://www.w3.org/2000/svg"
   xmlns:sodipodi="http://sodipodi.sourceforge.net/DTD/sodipodi-0.dtd"
   xmlns:inkscape="http://www.inkscape.org/namespaces/inkscape"
   version="1.1"
   id="Warstwa_1"
   x="0px"
   y="0px"
   width="401"
   height="74.040001"
   viewBox="0 0 401 74.04"
   enable-background="new 0 0 694 85.04"
   xml:space="preserve"
   sodipodi:docname="jakiesazagrozenia.svg"
   inkscape:version="0.92.2 2405546, 2018-03-11"><metadata
   id="metadata47"><rdf:RDF><cc:Work
       rdf:about=""><dc:format>image/svg+xml</dc:format><dc:type
         rdf:resource="http://purl.org/dc/dcmitype/StillImage" /><dc:title></dc:title></cc:Work></rdf:RDF></metadata><defs
   id="defs45" /><sodipodi:namedview
   pagecolor="#ffffff"
   bordercolor="#666666"
   borderopacity="1"
   objecttolerance="10"
   gridtolerance="10"
   guidetolerance="10"
   inkscape:pageopacity="0"
   inkscape:pageshadow="2"
   inkscape:window-width="1600"
   inkscape:window-height="857"
   id="namedview43"
   showgrid="false"
   inkscape:zoom="1.2348897"
   inkscape:cx="446.8586"
   inkscape:cy="39.015668"
   inkscape:window-x="0"
   inkscape:window-y="43"
   inkscape:window-maximized="0"
   inkscape:current-layer="Warstwa_1" />
<polygon
   stroke-miterlimit="10"
   points="146.5,17 543.5,10 543.5,74 146.5,77 "
   id="polygon2"
   style="stroke:#ffffff;stroke-miterlimit:10"
   transform="translate(-144.14243,-6.1414564)" />
<g
   enable-background="new    "
   id="g40"
   transform="translate(-136.04454,-5.3316675)">
	<path
   d="m 225.431,47.215 h 3.78 v 6.588 c 0,0.984 0.108,1.62 0.324,1.908 0.216,0.288 0.672,0.433 1.368,0.433 0.72,0 1.182,-0.15 1.386,-0.45 0.204,-0.3 0.306,-0.93 0.306,-1.891 V 31.015 h 4.176 v 22.788 c 0,1.32 -0.079,2.376 -0.234,3.168 -0.156,0.792 -0.444,1.398 -0.864,1.818 -0.42,0.42 -1.008,0.696 -1.764,0.828 -0.756,0.132 -1.734,0.198 -2.934,0.198 -1.128,0 -2.052,-0.066 -2.772,-0.198 -0.72,-0.132 -1.284,-0.408 -1.692,-0.828 -0.408,-0.42 -0.69,-1.026 -0.846,-1.818 -0.156,-0.792 -0.234,-1.848 -0.234,-3.168 z"
   id="path4"
   inkscape:connector-curvature="0"
   style="fill:#ffffff" />
	<path
   d="M 247.031,59.456 V 53.12 h -3.492 v 6.336 h -4.032 V 36.631 c 0,-1.319 0.078,-2.369 0.234,-3.149 0.156,-0.78 0.45,-1.38 0.882,-1.801 0.432,-0.419 1.026,-0.695 1.782,-0.827 0.756,-0.132 1.722,-0.198 2.898,-0.198 1.176,0 2.142,0.072 2.898,0.216 0.756,0.144 1.355,0.432 1.8,0.864 0.444,0.432 0.75,1.038 0.918,1.817 0.168,0.78 0.252,1.807 0.252,3.078 v 22.824 h -4.14 z m -1.764,-25.092 c -0.36,0 -0.654,0.03 -0.882,0.09 -0.229,0.061 -0.409,0.168 -0.54,0.324 -0.132,0.156 -0.216,0.384 -0.252,0.684 -0.036,0.301 -0.054,0.69 -0.054,1.17 v 13.104 h 3.492 V 36.631 c 0,-0.479 -0.024,-0.869 -0.072,-1.17 -0.048,-0.3 -0.132,-0.527 -0.252,-0.684 -0.12,-0.157 -0.3,-0.264 -0.54,-0.324 -0.241,-0.059 -0.541,-0.089 -0.9,-0.089 z"
   id="path6"
   inkscape:connector-curvature="0"
   style="fill:#ffffff" />
	<path
   d="m 266.362,31.015 -4.248,11.809 4.824,16.632 h -4.5 l -3.924,-14.94 h -0.18 v 14.94 h -4.176 V 31.051 h 4.176 V 41.78 h 0.18 l 3.492,-10.765 z"
   id="path8"
   inkscape:connector-curvature="0"
   style="fill:#ffffff" />
	<path
   d="m 272.986,59.456 h -4.14 v -28.44 h 4.14 z"
   id="path10"
   inkscape:connector-curvature="0"
   style="fill:#ffffff" />
	<path
   d="m 284.398,59.456 h -8.136 v -28.44 h 8.1 v 3.421 h -3.96 v 4.14 h 3.852 v 3.276 h -3.852 v 14.039 h 3.996 z"
   id="path12"
   inkscape:connector-curvature="0"
   style="fill:#ffffff" />
	<path
   d="m 300.345,40.232 v -3.528 c 0,-0.504 -0.018,-0.912 -0.054,-1.224 -0.036,-0.313 -0.114,-0.546 -0.234,-0.702 -0.121,-0.156 -0.3,-0.264 -0.54,-0.324 -0.24,-0.06 -0.552,-0.09 -0.936,-0.09 -0.408,0 -0.726,0.03 -0.954,0.09 -0.228,0.061 -0.402,0.168 -0.522,0.324 -0.12,0.156 -0.198,0.39 -0.234,0.702 -0.036,0.312 -0.054,0.72 -0.054,1.224 v 2.808 c 0,0.36 0.024,0.661 0.072,0.9 0.048,0.24 0.149,0.456 0.306,0.647 0.156,0.192 0.383,0.385 0.684,0.576 0.3,0.192 0.714,0.421 1.242,0.685 1.248,0.647 2.232,1.2 2.952,1.655 0.72,0.457 1.26,0.919 1.62,1.387 0.36,0.468 0.587,0.996 0.684,1.584 0.096,0.588 0.144,1.35 0.144,2.286 v 4.571 c 0,1.32 -0.078,2.376 -0.234,3.168 -0.156,0.792 -0.45,1.398 -0.882,1.818 -0.432,0.42 -1.039,0.696 -1.818,0.828 -0.779,0.132 -1.782,0.198 -3.006,0.198 -1.152,0 -2.1,-0.066 -2.844,-0.198 -0.744,-0.132 -1.332,-0.408 -1.764,-0.828 -0.432,-0.42 -0.732,-1.026 -0.9,-1.818 -0.168,-0.792 -0.252,-1.848 -0.252,-3.168 v -5.651 h 4.032 v 5.651 c 0,0.504 0.018,0.906 0.054,1.206 0.036,0.301 0.113,0.534 0.234,0.702 0.12,0.168 0.293,0.282 0.522,0.342 0.228,0.061 0.534,0.091 0.918,0.091 0.768,0 1.254,-0.145 1.458,-0.433 0.204,-0.288 0.306,-0.924 0.306,-1.908 V 49.52 c 0,-0.48 -0.018,-0.876 -0.054,-1.188 -0.036,-0.312 -0.132,-0.588 -0.288,-0.828 -0.156,-0.239 -0.39,-0.462 -0.702,-0.666 -0.313,-0.203 -0.732,-0.45 -1.26,-0.738 -1.248,-0.647 -2.226,-1.199 -2.934,-1.655 -0.708,-0.456 -1.242,-0.918 -1.602,-1.387 -0.36,-0.468 -0.588,-0.983 -0.684,-1.548 -0.096,-0.563 -0.144,-1.254 -0.144,-2.069 v -2.736 c 0,-1.319 0.078,-2.376 0.234,-3.168 0.156,-0.792 0.45,-1.404 0.882,-1.836 0.432,-0.433 1.032,-0.714 1.8,-0.846 0.768,-0.132 1.764,-0.198 2.988,-0.198 1.2,0 2.178,0.066 2.934,0.198 0.756,0.132 1.344,0.413 1.764,0.846 0.419,0.432 0.708,1.044 0.864,1.836 0.156,0.792 0.234,1.849 0.234,3.168 v 3.528 h -4.032 z"
   id="path14"
   inkscape:connector-curvature="0"
   style="fill:#ffffff" />
	<path
   d="m 318.777,59.456 c -0.816,0.384 -1.386,0.756 -1.71,1.116 -0.324,0.359 -0.486,0.852 -0.486,1.476 0,0.408 0.108,0.702 0.324,0.882 0.216,0.181 0.576,0.271 1.08,0.271 h 1.296 v 2.916 h -2.808 c -0.625,0 -1.128,-0.078 -1.512,-0.234 -0.384,-0.156 -0.696,-0.372 -0.936,-0.647 -0.24,-0.276 -0.402,-0.589 -0.486,-0.937 -0.084,-0.348 -0.126,-0.726 -0.126,-1.134 0,-1.2 0.408,-2.088 1.224,-2.664 v -7.38 h -3.492 v 6.336 h -4.032 V 36.631 c 0,-1.319 0.078,-2.369 0.234,-3.149 0.156,-0.78 0.45,-1.38 0.882,-1.801 0.432,-0.419 1.026,-0.695 1.782,-0.827 0.756,-0.132 1.722,-0.198 2.898,-0.198 1.176,0 2.142,0.072 2.898,0.216 0.756,0.144 1.355,0.432 1.8,0.864 0.444,0.432 0.75,1.038 0.918,1.817 0.168,0.78 0.252,1.807 0.252,3.078 z m -5.904,-25.092 c -0.36,0 -0.654,0.03 -0.882,0.09 -0.229,0.061 -0.409,0.168 -0.54,0.324 -0.132,0.156 -0.216,0.384 -0.252,0.684 -0.036,0.301 -0.054,0.69 -0.054,1.17 v 13.104 h 3.492 V 36.631 c 0,-0.479 -0.024,-0.869 -0.072,-1.17 -0.048,-0.3 -0.132,-0.527 -0.252,-0.684 -0.12,-0.157 -0.3,-0.264 -0.54,-0.324 -0.24,-0.059 -0.54,-0.089 -0.9,-0.089 z"
   id="path16"
   inkscape:connector-curvature="0"
   style="fill:#ffffff" />
	<path
   d="m 336.992,59.456 h -9.972 v -3.6 l 5.724,-21.385 h -5.148 v -3.456 h 9.324 v 2.809 l -5.58,22.067 h 5.652 z"
   id="path18"
   inkscape:connector-curvature="0"
   style="fill:#ffffff" />
	<path
   d="M 346.568,59.456 V 53.12 h -3.492 v 6.336 h -4.032 V 36.631 c 0,-1.319 0.078,-2.369 0.234,-3.149 0.156,-0.78 0.45,-1.38 0.882,-1.801 0.432,-0.419 1.026,-0.695 1.782,-0.827 0.756,-0.132 1.722,-0.198 2.898,-0.198 1.176,0 2.142,0.072 2.898,0.216 0.756,0.144 1.355,0.432 1.8,0.864 0.444,0.432 0.75,1.038 0.918,1.817 0.168,0.78 0.253,1.807 0.253,3.078 v 22.824 h -4.141 z m -1.764,-25.092 c -0.36,0 -0.654,0.03 -0.882,0.09 -0.229,0.061 -0.409,0.168 -0.54,0.324 -0.132,0.156 -0.216,0.384 -0.252,0.684 -0.036,0.301 -0.054,0.69 -0.054,1.17 v 13.104 h 3.492 V 36.631 c 0,-0.479 -0.024,-0.869 -0.072,-1.17 -0.048,-0.3 -0.132,-0.527 -0.252,-0.684 -0.12,-0.157 -0.3,-0.264 -0.54,-0.324 -0.24,-0.059 -0.54,-0.089 -0.9,-0.089 z"
   id="path20"
   inkscape:connector-curvature="0"
   style="fill:#ffffff" />
	<path
   d="m 361.04,39.223 v -2.592 c 0,-0.479 -0.019,-0.869 -0.054,-1.17 -0.037,-0.3 -0.121,-0.527 -0.252,-0.684 -0.133,-0.156 -0.313,-0.264 -0.541,-0.324 -0.229,-0.06 -0.521,-0.09 -0.881,-0.09 -0.385,0 -0.691,0.03 -0.918,0.09 -0.229,0.061 -0.409,0.175 -0.541,0.342 -0.132,0.168 -0.216,0.402 -0.252,0.702 -0.035,0.301 -0.054,0.679 -0.054,1.134 v 17.172 c 0,0.48 0.019,0.87 0.054,1.17 0.036,0.301 0.12,0.535 0.252,0.702 0.132,0.169 0.313,0.288 0.541,0.36 0.227,0.072 0.533,0.108 0.918,0.108 0.479,0 0.869,-0.013 1.17,-0.036 0.299,-0.024 0.521,-0.06 0.666,-0.108 V 42.931 h 3.887 v 16.524 c -0.336,0.072 -0.978,0.149 -1.926,0.234 -0.947,0.083 -2.213,0.126 -3.797,0.126 -1.225,0 -2.221,-0.078 -2.988,-0.234 -0.769,-0.156 -1.368,-0.456 -1.801,-0.9 -0.432,-0.443 -0.726,-1.056 -0.882,-1.836 -0.156,-0.779 -0.233,-1.794 -0.233,-3.042 V 36.631 c 0,-1.296 0.084,-2.34 0.252,-3.132 0.168,-0.792 0.473,-1.397 0.918,-1.818 0.443,-0.419 1.049,-0.695 1.818,-0.827 0.768,-0.132 1.739,-0.198 2.916,-0.198 1.151,0 2.1,0.066 2.844,0.198 0.743,0.132 1.332,0.408 1.764,0.827 0.432,0.421 0.726,1.021 0.882,1.801 0.155,0.78 0.233,1.83 0.233,3.149 v 2.592 z"
   id="path22"
   inkscape:connector-curvature="0"
   style="fill:#ffffff" />
	<path
   d="m 372.199,59.456 h -4.141 v -28.44 h 5.904 c 1.225,0 2.22,0.066 2.988,0.198 0.768,0.133 1.373,0.408 1.818,0.828 0.443,0.42 0.743,1.008 0.899,1.764 0.155,0.757 0.234,1.759 0.234,3.007 V 39.8 c 0,0.744 -0.079,1.351 -0.234,1.818 -0.156,0.468 -0.36,0.846 -0.612,1.134 -0.252,0.288 -0.527,0.498 -0.828,0.63 -0.3,0.133 -0.594,0.234 -0.881,0.307 v 0.144 c 0.383,0.097 0.731,0.223 1.043,0.378 0.313,0.156 0.582,0.396 0.811,0.72 0.228,0.324 0.401,0.738 0.521,1.242 0.12,0.504 0.181,1.152 0.181,1.944 v 11.34 h -4.177 v -11.99 c 0,-0.768 -0.096,-1.302 -0.287,-1.602 -0.193,-0.3 -0.648,-0.45 -1.368,-0.45 h -1.872 v 14.041 z m 0,-17.317 h 1.872 c 0.671,0 1.116,-0.131 1.332,-0.396 0.216,-0.264 0.323,-0.744 0.323,-1.44 v -3.491 c 0,-0.456 -0.018,-0.822 -0.053,-1.099 -0.037,-0.275 -0.115,-0.498 -0.234,-0.666 -0.121,-0.167 -0.301,-0.281 -0.541,-0.342 -0.24,-0.06 -0.552,-0.09 -0.936,-0.09 h -1.764 v 7.524 z"
   id="path24"
   inkscape:connector-curvature="0"
   style="fill:#ffffff" />
	<path
   d="m 394.411,53.803 c 0,1.32 -0.078,2.376 -0.234,3.168 -0.156,0.792 -0.456,1.398 -0.899,1.818 -0.445,0.42 -1.051,0.696 -1.818,0.828 -0.769,0.132 -1.764,0.198 -2.988,0.198 -1.224,0 -2.22,-0.066 -2.988,-0.198 -0.768,-0.132 -1.367,-0.408 -1.799,-0.828 -0.433,-0.42 -0.727,-1.026 -0.883,-1.818 -0.156,-0.792 -0.234,-1.848 -0.234,-3.168 V 36.631 c 0,-1.319 0.078,-2.369 0.234,-3.149 0.156,-0.78 0.45,-1.38 0.883,-1.801 0.432,-0.419 1.031,-0.695 1.799,-0.827 0.769,-0.132 1.765,-0.198 2.988,-0.198 1.225,0 2.22,0.066 2.988,0.198 0.768,0.132 1.373,0.408 1.818,0.827 0.443,0.421 0.743,1.021 0.899,1.801 0.156,0.78 0.234,1.83 0.234,3.149 z m -4.177,-17.172 c 0,-0.959 -0.107,-1.577 -0.323,-1.854 -0.216,-0.277 -0.696,-0.414 -1.44,-0.414 -0.384,0 -0.689,0.03 -0.918,0.09 -0.229,0.061 -0.408,0.175 -0.539,0.342 -0.133,0.168 -0.217,0.402 -0.252,0.702 -0.037,0.301 -0.055,0.679 -0.055,1.134 v 17.172 c 0,0.504 0.018,0.906 0.055,1.206 0.035,0.301 0.119,0.534 0.252,0.702 0.131,0.168 0.311,0.282 0.539,0.342 0.229,0.061 0.534,0.091 0.918,0.091 0.384,0 0.689,-0.03 0.918,-0.091 0.229,-0.06 0.408,-0.18 0.541,-0.359 0.131,-0.181 0.215,-0.42 0.252,-0.721 0.035,-0.3 0.053,-0.689 0.053,-1.17 V 36.631 Z"
   id="path26"
   inkscape:connector-curvature="0"
   style="fill:#ffffff" />
	<path
   d="m 406.326,59.456 h -9.972 v -3.6 l 5.724,-21.385 h -5.147 v -3.456 h 9.323 v 2.809 l -5.58,22.067 h 5.652 z m -2.807,-31.573 h -3.636 v -3.744 h 3.636 z"
   id="path28"
   inkscape:connector-curvature="0"
   style="fill:#ffffff" />
	<path
   d="m 416.73,59.456 h -8.137 v -28.44 h 8.101 v 3.421 h -3.96 v 4.14 h 3.852 v 3.276 h -3.852 v 14.039 h 3.996 z"
   id="path30"
   inkscape:connector-curvature="0"
   style="fill:#ffffff" />
	<path
   d="m 427.17,59.456 -4.284,-17.748 h -0.144 v 17.748 h -3.564 v -28.44 h 4.572 l 4.104,18.252 h 0.145 V 31.015 h 3.6 v 28.44 h -4.429 z"
   id="path32"
   inkscape:connector-curvature="0"
   style="fill:#ffffff" />
	<path
   d="m 439.014,59.456 h -4.141 v -28.44 h 4.141 z"
   id="path34"
   inkscape:connector-curvature="0"
   style="fill:#ffffff" />
	<path
   d="M 449.598,59.456 V 53.12 h -3.492 v 6.336 h -4.031 V 36.631 c 0,-1.319 0.077,-2.369 0.233,-3.149 0.155,-0.78 0.45,-1.38 0.882,-1.801 0.432,-0.419 1.025,-0.695 1.782,-0.827 0.756,-0.132 1.722,-0.198 2.897,-0.198 1.175,0 2.143,0.072 2.898,0.216 0.755,0.144 1.355,0.432 1.8,0.864 0.444,0.432 0.75,1.038 0.918,1.817 0.168,0.78 0.253,1.807 0.253,3.078 v 22.824 h -4.14 z m -1.764,-25.092 c -0.36,0 -0.654,0.03 -0.883,0.09 -0.229,0.061 -0.408,0.168 -0.539,0.324 -0.133,0.156 -0.217,0.384 -0.252,0.684 -0.037,0.301 -0.055,0.69 -0.055,1.17 v 13.104 h 3.492 V 36.631 c 0,-0.479 -0.024,-0.869 -0.072,-1.17 -0.049,-0.3 -0.132,-0.527 -0.252,-0.684 -0.12,-0.157 -0.301,-0.264 -0.54,-0.324 -0.24,-0.059 -0.54,-0.089 -0.899,-0.089 z"
   id="path36"
   inkscape:connector-curvature="0"
   style="fill:#ffffff" />
	<path
   d="m 459.929,50.347 c 0,-0.575 0.019,-1.067 0.054,-1.476 0.036,-0.408 0.096,-0.792 0.18,-1.152 0.084,-0.359 0.199,-0.702 0.342,-1.025 0.145,-0.324 0.336,-0.678 0.576,-1.063 l 1.98,-3.132 c 0.288,-0.456 0.474,-0.882 0.559,-1.278 0.084,-0.396 0.125,-0.966 0.125,-1.71 v -2.88 c 0,-0.479 -0.023,-0.869 -0.071,-1.17 -0.049,-0.3 -0.132,-0.527 -0.253,-0.684 -0.119,-0.156 -0.293,-0.264 -0.521,-0.324 -0.229,-0.06 -0.534,-0.09 -0.918,-0.09 -0.408,0 -0.727,0.03 -0.953,0.09 -0.229,0.061 -0.402,0.175 -0.523,0.342 -0.119,0.168 -0.197,0.402 -0.233,0.702 -0.036,0.301 -0.054,0.679 -0.054,1.134 v 3.601 h -4.032 v -3.601 c 0,-1.319 0.077,-2.369 0.233,-3.149 0.156,-0.78 0.451,-1.38 0.883,-1.801 0.432,-0.419 1.025,-0.695 1.781,-0.827 0.757,-0.132 1.723,-0.198 2.898,-0.198 1.225,0 2.22,0.066 2.988,0.198 0.768,0.132 1.367,0.408 1.8,0.827 0.433,0.421 0.731,1.021 0.899,1.801 0.168,0.78 0.252,1.83 0.252,3.149 v 2.557 c 0,0.624 -0.018,1.151 -0.053,1.584 -0.037,0.432 -0.104,0.827 -0.199,1.188 -0.095,0.361 -0.228,0.715 -0.396,1.063 -0.168,0.348 -0.396,0.737 -0.684,1.17 l -2.484,3.96 c -0.144,0.216 -0.258,0.408 -0.342,0.576 -0.085,0.168 -0.15,0.336 -0.198,0.504 -0.049,0.168 -0.078,0.354 -0.09,0.558 -0.012,0.204 -0.018,0.45 -0.018,0.738 v 2.124 h -3.528 z m 3.708,9.109 h -3.78 V 54.74 h 3.78 z"
   id="path38"
   inkscape:connector-curvature="0"
   style="fill:#ffffff" />
</g>
</svg>