<?xml version="1.0" encoding="UTF-8" standalone="no"?>
<!-- Generator: Adobe Illustrator 16.0.0, SVG Export Plug-In . SVG Version: 6.00 Build 0)  -->

<svg
   xmlns:dc="http://purl.org/dc/elements/1.1/"
   xmlns:cc="http://creativecommons.org/ns#"
   xmlns:rdf="http://www.w3.org/1999/02/22-rdf-syntax-ns#"
   xmlns:svg="http://www.w3.org/2000/svg"
   xmlns="http://www.w3.org/2000/svg"
   xmlns:sodipodi="http://sodipodi.sourceforge.net/DTD/sodipodi-0.dtd"
   xmlns:inkscape="http://www.inkscape.org/namespaces/inkscape"
   version="1.1"
   id="Warstwa_1"
   x="0px"
   y="0px"
   width="160"
   height="84.039993"
   viewBox="0 0 160 84.03999"
   enable-background="new 0 0 694 85.04"
   xml:space="preserve"
   sodipodi:docname="materialy.svg"
   inkscape:version="0.92.2 2405546, 2018-03-11"><metadata
   id="metadata972"><rdf:RDF><cc:Work
       rdf:about=""><dc:format>image/svg+xml</dc:format><dc:type
         rdf:resource="http://purl.org/dc/dcmitype/StillImage" /><dc:title></dc:title></cc:Work></rdf:RDF></metadata><defs
   id="defs970">
	
	
	
	
	
	
	
	
	
	
	
	
	
	
	
	
	
	
	
	
	
	
	
	
	
	
	
	
	
	
	
	
	
	
	
	
</defs><sodipodi:namedview
   pagecolor="#ffffff"
   bordercolor="#666666"
   borderopacity="1"
   objecttolerance="10"
   gridtolerance="10"
   guidetolerance="10"
   inkscape:pageopacity="0"
   inkscape:pageshadow="2"
   inkscape:window-width="1920"
   inkscape:window-height="1028"
   id="namedview968"
   showgrid="false"
   inkscape:zoom="3.4927955"
   inkscape:cx="138.52349"
   inkscape:cy="29.431183"
   inkscape:window-x="0"
   inkscape:window-y="52"
   inkscape:window-maximized="0"
   inkscape:current-layer="Warstwa_1" />
<polygon
   stroke-miterlimit="10"
   points="44,77 44,17 648,10 648,74 "
   id="polygon891"
   transform="matrix(0.26054767,0,0,1.2473926,-10.192533,-11.753818)"
   style="stroke:#ffffff;stroke-miterlimit:10" />
<path
   style="fill:#ffffff"
   inkscape:connector-curvature="0"
   id="path899"
   d="M 75.973116,59.523942 H 67.837114 V 31.083939 h 8.100002 v 3.421001 h -3.960002 v 4.140001 h 3.852002 v 3.276001 h -3.852002 v 14.039 h 3.996002 z" /><path
   style="fill:#ffffff"
   inkscape:connector-curvature="0"
   id="path903"
   d="m 36.45232,31.007149 v 28.440003 h -3.384 V 39.360151 h -0.144 l -2.628,20.088001 h -3.708 l -2.628,-20.232001 h -0.144 v 20.232001 h -3.42 V 31.008149 h 5.796 l 2.16,19.116003 h 0.144 l 2.196,-19.116003 h 5.76 z" /><path
   style="fill:#ffffff"
   inkscape:connector-curvature="0"
   id="path913"
   d="m 98.883765,59.595518 h -4.14 V 31.155515 h 4.14 z" /><path
   style="fill:#ffffff"
   inkscape:connector-curvature="0"
   id="path915"
   d="m 109.46777,59.595518 v -6.336 h -3.492 v 6.336 h -4.032 V 36.770517 c 0,-1.319001 0.078,-2.369001 0.234,-3.149001 0.156,-0.780001 0.45,-1.380001 0.882,-1.801001 0.432,-0.419 1.026,-0.695 1.782,-0.827 0.756,-0.132 1.722,-0.198 2.898,-0.198 1.176,0 2.142,0.072 2.898,0.216 0.756,0.144 1.355,0.432 1.8,0.864 0.444,0.432 0.75,1.038 0.918,1.817001 0.168,0.78 0.252,1.807 0.252,3.078001 v 22.824001 h -4.14 z m -1.764,-25.092002 c -0.36,0 -0.654,0.03 -0.882,0.09 -0.229,0.061 -0.409,0.168 -0.54,0.324 -0.132,0.156 -0.216,0.384 -0.252,0.683999 -0.036,0.301 -0.054,0.69 -0.054,1.170001 v 13.104001 h 3.492 V 36.770516 c 0,-0.479001 -0.024,-0.869001 -0.072,-1.170001 -0.048,-0.299999 -0.132,-0.526999 -0.252,-0.683999 -0.12,-0.157 -0.3,-0.264 -0.54,-0.324 -0.24,-0.059 -0.54,-0.089 -0.9,-0.089 z" /><path
   style="fill:#ffffff"
   inkscape:connector-curvature="0"
   id="path917"
   d="m 123.68677,40.226518 -2.988,1.368 v 14.4 h 4.248 v 3.6 h -8.352 v -16.343 l -1.332,0.54 v -3.276 l 1.332,-0.54 v -8.820003 h 4.104 v 7.164002 l 2.988,-1.367 z" /><path
   style="fill:#ffffff"
   inkscape:connector-curvature="0"
   id="path919"
   d="m 47.734055,59.411364 v -6.336 h -3.492 v 6.336 h -4.032 V 36.586363 c 0,-1.319001 0.078,-2.369001 0.234,-3.149002 0.156,-0.78 0.45,-1.38 0.882,-1.801 0.432,-0.419 1.026,-0.695 1.782,-0.827 0.756,-0.132 1.722,-0.198 2.898,-0.198 1.176,0 2.142,0.072 2.898,0.216 0.756,0.144 1.355,0.432 1.8,0.864 0.444,0.432 0.75,1.038 0.918,1.817 0.168,0.780001 0.252,1.807001 0.252,3.078002 v 22.824001 h -4.14 z m -1.764,-25.092002 c -0.36,0 -0.654,0.03 -0.882,0.09 -0.229,0.061 -0.409,0.168 -0.54,0.324 -0.132,0.156 -0.216,0.384 -0.252,0.684 -0.036,0.301 -0.054,0.69 -0.054,1.170001 v 13.104001 h 3.492 V 36.586363 c 0,-0.479001 -0.024,-0.869001 -0.072,-1.170001 -0.048,-0.3 -0.132,-0.527 -0.252,-0.684 -0.12,-0.157 -0.3,-0.264 -0.54,-0.324 -0.241,-0.059 -0.54,-0.089 -0.9,-0.089 z" /><path
   style="fill:#ffffff"
   inkscape:connector-curvature="0"
   id="path937"
   d="m 64.879002,34.533191 h -3.096 v 24.983996 h -4.14 V 34.533191 H 54.510003 V 31.07719 h 10.367999 v 3.456001 z" />
<path
   style="fill:#ffffff;stroke-width:0.40489447"
   d="M 80.06002,45.571989 V 31.603128 h 3.98852 c 4.60211,0 6.24164,0.443037 6.88782,1.861229 0.253376,0.556125 0.460696,2.733486 0.460696,4.838582 0,3.287588 -0.11422,3.941668 -0.809786,4.637236 -0.44538,0.445384 -0.99199,0.809789 -1.21468,0.809789 -0.22269,0 -0.4049,0.182203 -0.4049,0.404895 0,0.222692 0.26298,0.404894 0.58439,0.404894 0.32141,0 0.86801,0.404947 1.21468,0.899881 0.507796,0.724987 0.630296,2.180787 0.630296,7.490548 v 6.590667 H 89.57504 87.75301 V 53.2981 c 0,-3.433512 -0.11059,-6.530955 -0.24577,-6.883206 -0.17249,-0.449523 -0.77603,-0.640457 -2.02447,-0.640457 h -1.7787 v 6.883206 6.883206 H 81.88204 80.06002 Z M 87.6724,39.50704 c 0.18502,-4.291102 0.0125,-4.664756 -2.15402,-4.664756 h -1.81431 v 3.868683 3.868683 l 1.92324,-0.123408 1.92325,-0.123408 z"
   id="path1711"
   inkscape:connector-curvature="0" /><path
   style="fill:#ffffff;stroke-width:0.40489447"
   d="m 129.2127,54.181249 c 0,-4.910925 -0.16231,-6.118057 -1.82202,-13.550111 -1.00211,-4.487398 -1.82203,-8.347342 -1.82203,-8.577653 0,-0.230311 0.7877,-0.418748 1.75044,-0.418748 h 1.75043 l 0.92817,6.174643 c 0.51049,3.396053 1.08931,6.347734 1.28627,6.559291 0.22618,0.242937 0.35955,0.242937 0.362,0 0.002,-0.211557 0.4559,-3.026586 1.00835,-6.25562 0.55244,-3.229035 1.0062,-6.007624 1.00834,-6.174643 0.002,-0.167019 0.82728,-0.303671 1.83363,-0.303671 1.69081,0 1.81354,0.06917 1.61633,0.911013 -3.84768,16.424605 -3.85096,16.443201 -3.85096,21.813578 v 5.213131 h -2.02447 -2.02448 z"
   id="path1705"
   inkscape:connector-curvature="0" /></svg>