<?xml version="1.0" encoding="utf-8"?>
<!-- Generator: Adobe Illustrator 16.0.0, SVG Export Plug-In . SVG Version: 6.00 Build 0)  -->
<!DOCTYPE svg PUBLIC "-//W3C//DTD SVG 1.1//EN" "http://www.w3.org/Graphics/SVG/1.1/DTD/svg11.dtd">
<svg version="1.1" id="Warstwa_1" xmlns="http://www.w3.org/2000/svg" xmlns:xlink="http://www.w3.org/1999/xlink" x="0px" y="0px"
	 width="694px" height="85.04px" viewBox="0 0 694 85.04" enable-background="new 0 0 694 85.04" xml:space="preserve">
<polygon stroke="#FFFFFF" stroke-miterlimit="10" points="648,74 44,77 44,17 648,10 "/>
<g enable-background="new    ">
	<path fill="#FFFFFF" d="M107.39,48.692v10.764h-4.14v-28.44h5.904c1.224,0,2.22,0.066,2.988,0.198
		c0.768,0.133,1.374,0.402,1.818,0.811c0.444,0.408,0.744,0.989,0.9,1.746c0.156,0.756,0.234,1.77,0.234,3.042v6.084
		c0,1.271-0.084,2.292-0.252,3.06c-0.168,0.769-0.474,1.356-0.918,1.764c-0.444,0.409-1.05,0.673-1.818,0.792
		c-0.769,0.121-1.752,0.181-2.952,0.181H107.39z M107.39,34.616v10.728h1.764c0.36,0,0.66-0.029,0.9-0.09
		c0.239-0.06,0.419-0.174,0.54-0.342c0.12-0.168,0.204-0.401,0.252-0.702c0.048-0.3,0.072-0.689,0.072-1.17v-6.228
		c0-0.456-0.018-0.828-0.054-1.116c-0.036-0.288-0.114-0.51-0.234-0.666s-0.294-0.264-0.522-0.324
		c-0.228-0.06-0.546-0.09-0.954-0.09H107.39z"/>
	<path fill="#FFFFFF" d="M129.098,53.803c0,1.32-0.078,2.376-0.234,3.168s-0.456,1.398-0.9,1.818
		c-0.444,0.42-1.05,0.696-1.818,0.828c-0.769,0.132-1.764,0.198-2.988,0.198c-1.224,0-2.22-0.066-2.988-0.198
		s-1.368-0.408-1.8-0.828s-0.726-1.026-0.882-1.818s-0.234-1.848-0.234-3.168V36.631c0-1.319,0.078-2.369,0.234-3.149
		s0.45-1.38,0.882-1.801c0.432-0.419,1.032-0.695,1.8-0.827s1.764-0.198,2.988-0.198c1.224,0,2.219,0.066,2.988,0.198
		c0.768,0.132,1.374,0.408,1.818,0.827c0.444,0.421,0.744,1.021,0.9,1.801s0.234,1.83,0.234,3.149V53.803z M124.921,36.631
		c0-0.959-0.108-1.577-0.324-1.854c-0.216-0.276-0.696-0.414-1.44-0.414c-0.384,0-0.69,0.03-0.918,0.09
		c-0.229,0.061-0.409,0.175-0.54,0.342c-0.132,0.168-0.216,0.402-0.252,0.702c-0.036,0.301-0.054,0.679-0.054,1.134v17.172
		c0,0.504,0.018,0.906,0.054,1.206c0.036,0.301,0.12,0.534,0.252,0.702c0.131,0.168,0.312,0.282,0.54,0.342
		c0.228,0.061,0.534,0.091,0.918,0.091c0.383,0,0.689-0.03,0.918-0.091c0.228-0.06,0.408-0.18,0.54-0.359
		c0.131-0.181,0.216-0.42,0.252-0.721c0.036-0.3,0.054-0.689,0.054-1.17V36.631z"/>
	<path fill="#FFFFFF" d="M143.821,53.624c0,1.272-0.079,2.292-0.234,3.06c-0.156,0.769-0.456,1.356-0.9,1.765
		c-0.444,0.408-1.05,0.678-1.818,0.81c-0.769,0.133-1.764,0.198-2.988,0.198h-5.904v-28.44h5.904c1.224,0,2.22,0.066,2.988,0.198
		c0.768,0.133,1.374,0.402,1.818,0.811c0.444,0.408,0.744,0.989,0.9,1.746c0.156,0.756,0.234,1.77,0.234,3.042V53.624z
		 M139.645,36.812c0-0.456-0.024-0.828-0.072-1.116c-0.048-0.288-0.132-0.516-0.252-0.685c-0.121-0.167-0.294-0.275-0.522-0.323
		s-0.534-0.072-0.918-0.072h-1.764v21.275h1.764c0.384,0,0.69-0.029,0.918-0.09c0.228-0.06,0.402-0.167,0.522-0.323
		c0.12-0.156,0.204-0.384,0.252-0.685c0.048-0.3,0.072-0.689,0.072-1.17V36.812z"/>
	<path fill="#FFFFFF" d="M154.837,59.456h-8.136v-28.44h8.1v3.421h-3.96v4.14h3.852v3.276h-3.852v14.039h3.996V59.456z"/>
	<path fill="#FFFFFF" d="M156.205,47.215h3.78v6.588c0,0.984,0.108,1.62,0.324,1.908c0.216,0.288,0.672,0.433,1.368,0.433
		c0.72,0,1.182-0.15,1.386-0.45c0.204-0.3,0.306-0.93,0.306-1.891V31.015h4.176v22.788c0,1.32-0.079,2.376-0.234,3.168
		c-0.156,0.792-0.444,1.398-0.864,1.818c-0.42,0.42-1.008,0.696-1.764,0.828s-1.734,0.198-2.934,0.198
		c-1.128,0-2.052-0.066-2.772-0.198c-0.72-0.132-1.284-0.408-1.692-0.828c-0.408-0.42-0.69-1.026-0.846-1.818
		s-0.234-1.848-0.234-3.168V47.215z"/>
	<path fill="#FFFFFF" d="M186.805,31.015v28.44h-3.384V39.368h-0.144l-2.628,20.088h-3.708l-2.628-20.232h-0.144v20.232h-3.42
		v-28.44h5.796l2.16,19.116h0.144l2.196-19.116H186.805z"/>
	<path fill="#FFFFFF" d="M194.22,59.456h-4.14v-28.44h4.14V59.456z"/>
	<path fill="#FFFFFF" d="M196.416,47.215h3.78v6.588c0,0.984,0.108,1.62,0.324,1.908c0.216,0.288,0.672,0.433,1.368,0.433
		c0.72,0,1.182-0.15,1.386-0.45c0.204-0.3,0.306-0.93,0.306-1.891V31.015h4.176v22.788c0,1.32-0.079,2.376-0.234,3.168
		c-0.156,0.792-0.444,1.398-0.864,1.818c-0.42,0.42-1.008,0.696-1.764,0.828s-1.734,0.198-2.934,0.198
		c-1.128,0-2.052-0.066-2.772-0.198c-0.72-0.132-1.284-0.408-1.692-0.828c-0.408-0.42-0.69-1.026-0.846-1.818
		s-0.234-1.848-0.234-3.168V47.215z"/>
	<path fill="#FFFFFF" d="M228.996,53.624c0,1.272-0.079,2.292-0.234,3.06c-0.156,0.769-0.456,1.356-0.9,1.765
		c-0.444,0.408-1.05,0.678-1.818,0.81c-0.769,0.133-1.764,0.198-2.988,0.198h-5.904v-28.44h5.904c1.224,0,2.22,0.066,2.988,0.198
		c0.768,0.133,1.374,0.402,1.818,0.811c0.444,0.408,0.744,0.989,0.9,1.746c0.156,0.756,0.234,1.77,0.234,3.042V53.624z
		 M224.819,36.812c0-0.456-0.024-0.828-0.072-1.116c-0.048-0.288-0.132-0.516-0.252-0.685c-0.121-0.167-0.294-0.275-0.522-0.323
		s-0.534-0.072-0.918-0.072h-1.764v21.275h1.764c0.384,0,0.69-0.029,0.918-0.09c0.228-0.06,0.402-0.167,0.522-0.323
		c0.12-0.156,0.204-0.384,0.252-0.685c0.048-0.3,0.072-0.689,0.072-1.17V36.812z"/>
	<path fill="#FFFFFF" d="M240.911,59.456h-9.972v-3.6l5.724-21.385h-5.148v-3.456h9.324v2.809l-5.58,22.067h5.652V59.456z"/>
	<path fill="#FFFFFF" d="M247.391,59.456h-4.14v-28.44h4.14V59.456z"/>
	<path fill="#FFFFFF" d="M257.975,59.456V53.12h-3.492v6.336h-4.032V36.631c0-1.319,0.078-2.369,0.234-3.149
		c0.156-0.78,0.45-1.38,0.882-1.801c0.432-0.419,1.026-0.695,1.782-0.827c0.756-0.132,1.722-0.198,2.898-0.198
		c1.176,0,2.142,0.072,2.898,0.216s1.355,0.432,1.8,0.864c0.444,0.432,0.75,1.038,0.918,1.817c0.168,0.78,0.252,1.807,0.252,3.078
		v22.824H257.975z M256.211,34.364c-0.36,0-0.654,0.03-0.882,0.09c-0.229,0.061-0.409,0.168-0.54,0.324
		c-0.132,0.156-0.216,0.384-0.252,0.684c-0.036,0.301-0.054,0.69-0.054,1.17v13.104h3.492V36.631c0-0.479-0.024-0.869-0.072-1.17
		c-0.048-0.3-0.132-0.527-0.252-0.684s-0.3-0.264-0.54-0.324C256.871,34.394,256.571,34.364,256.211,34.364z"/>
	<path fill="#FFFFFF" d="M272.194,40.087l-2.988,1.368v14.4h4.248v3.6h-8.352V43.112l-1.332,0.54v-3.276l1.332-0.54v-8.82h4.104
		v7.164l2.988-1.367V40.087z"/>
	<path fill="#FFFFFF" d="M282.814,59.456V53.12h-3.492v6.336h-4.032V36.631c0-1.319,0.078-2.369,0.234-3.149
		c0.156-0.78,0.45-1.38,0.882-1.801c0.432-0.419,1.026-0.695,1.782-0.827c0.756-0.132,1.722-0.198,2.898-0.198
		c1.176,0,2.142,0.072,2.898,0.216s1.355,0.432,1.8,0.864c0.444,0.432,0.75,1.038,0.918,1.817c0.168,0.78,0.252,1.807,0.252,3.078
		v22.824H282.814z M281.05,34.364c-0.36,0-0.654,0.03-0.882,0.09c-0.229,0.061-0.409,0.168-0.54,0.324
		c-0.132,0.156-0.216,0.384-0.252,0.684c-0.036,0.301-0.054,0.69-0.054,1.17v13.104h3.492V36.631c0-0.479-0.024-0.869-0.072-1.17
		c-0.048-0.3-0.132-0.527-0.252-0.684s-0.3-0.264-0.54-0.324C281.709,34.394,281.41,34.364,281.05,34.364z"/>
	<path fill="#FFFFFF" d="M297.934,59.456l-4.284-17.748h-0.144v17.748h-3.564v-28.44h4.572l4.104,18.252h0.144V31.015h3.6v28.44
		H297.934z"/>
	<path fill="#FFFFFF" d="M309.777,59.456h-4.14v-28.44h4.14V59.456z"/>
	<path fill="#FFFFFF" d="M321.189,59.456h-8.136v-28.44h8.1v3.421h-3.96v4.14h3.852v3.276h-3.852v14.039h3.996V59.456z"/>
	<path fill="#FFFFFF" d="M327.416,60.139c0,1.009-0.252,1.782-0.756,2.322s-1.38,0.811-2.628,0.811h-0.396V61.58h0.468
		c0.384,0,0.672-0.097,0.864-0.288c0.192-0.192,0.288-0.54,0.288-1.044v-0.792h-1.62v-4.752h3.78V60.139z"/>
	<path fill="#FFFFFF" d="M344.084,40.232v-3.528c0-0.504-0.018-0.912-0.054-1.224c-0.036-0.313-0.114-0.546-0.234-0.702
		c-0.121-0.156-0.3-0.264-0.54-0.324c-0.24-0.06-0.552-0.09-0.936-0.09c-0.408,0-0.726,0.03-0.954,0.09
		c-0.228,0.061-0.402,0.168-0.522,0.324s-0.198,0.39-0.234,0.702c-0.036,0.312-0.054,0.72-0.054,1.224v2.808
		c0,0.36,0.024,0.661,0.072,0.9c0.048,0.24,0.149,0.456,0.306,0.647c0.156,0.192,0.383,0.385,0.684,0.576
		c0.3,0.192,0.714,0.421,1.242,0.685c1.248,0.647,2.232,1.2,2.952,1.655c0.72,0.457,1.26,0.919,1.62,1.387
		c0.36,0.468,0.587,0.996,0.683,1.584s0.145,1.35,0.145,2.286v4.571c0,1.32-0.078,2.376-0.234,3.168s-0.449,1.398-0.881,1.818
		s-1.039,0.696-1.818,0.828s-1.782,0.198-3.006,0.198c-1.152,0-2.1-0.066-2.844-0.198c-0.744-0.132-1.332-0.408-1.764-0.828
		s-0.732-1.026-0.9-1.818c-0.168-0.792-0.252-1.848-0.252-3.168v-5.651h4.032v5.651c0,0.504,0.018,0.906,0.054,1.206
		c0.036,0.301,0.113,0.534,0.234,0.702c0.12,0.168,0.293,0.282,0.522,0.342c0.228,0.061,0.534,0.091,0.918,0.091
		c0.768,0,1.254-0.145,1.458-0.433c0.204-0.288,0.306-0.924,0.306-1.908V49.52c0-0.48-0.018-0.876-0.054-1.188
		c-0.036-0.312-0.132-0.588-0.288-0.828c-0.156-0.239-0.39-0.462-0.702-0.666c-0.313-0.203-0.732-0.45-1.26-0.738
		c-1.248-0.647-2.226-1.199-2.934-1.655s-1.242-0.918-1.602-1.387c-0.36-0.468-0.588-0.983-0.684-1.548
		c-0.096-0.563-0.144-1.254-0.144-2.069v-2.736c0-1.319,0.078-2.376,0.234-3.168c0.156-0.792,0.45-1.404,0.882-1.836
		c0.432-0.433,1.032-0.714,1.8-0.846c0.768-0.132,1.764-0.198,2.988-0.198c1.2,0,2.178,0.066,2.934,0.198s1.344,0.413,1.764,0.846
		c0.419,0.432,0.708,1.044,0.864,1.836c0.155,0.792,0.233,1.849,0.233,3.168v3.528H344.084z"/>
	<path fill="#FFFFFF" d="M363.271,31.015l-4.248,11.809l4.824,16.632h-4.5l-3.924-14.94h-0.181v14.94h-4.176V31.051h4.176V41.78
		h0.181l3.492-10.765H363.271z"/>
	<path fill="#FFFFFF" d="M376.988,53.803c0,1.32-0.078,2.376-0.234,3.168s-0.457,1.398-0.9,1.818
		c-0.444,0.42-1.05,0.696-1.818,0.828c-0.768,0.132-1.764,0.198-2.987,0.198s-2.22-0.066-2.988-0.198s-1.368-0.408-1.8-0.828
		s-0.727-1.026-0.883-1.818s-0.233-1.848-0.233-3.168V36.631c0-1.319,0.077-2.369,0.233-3.149s0.451-1.38,0.883-1.801
		c0.432-0.419,1.031-0.695,1.8-0.827s1.765-0.198,2.988-0.198s2.22,0.066,2.987,0.198c0.769,0.132,1.374,0.408,1.818,0.827
		c0.443,0.421,0.744,1.021,0.9,1.801s0.234,1.83,0.234,3.149V53.803z M372.812,36.631c0-0.959-0.108-1.577-0.323-1.854
		c-0.217-0.276-0.697-0.414-1.44-0.414c-0.384,0-0.69,0.03-0.918,0.09c-0.229,0.061-0.409,0.175-0.54,0.342
		c-0.133,0.168-0.217,0.402-0.252,0.702c-0.036,0.301-0.055,0.679-0.055,1.134v17.172c0,0.504,0.019,0.906,0.055,1.206
		c0.035,0.301,0.119,0.534,0.252,0.702c0.131,0.168,0.312,0.282,0.54,0.342c0.228,0.061,0.534,0.091,0.918,0.091
		s0.689-0.03,0.918-0.091c0.228-0.06,0.407-0.18,0.54-0.359c0.131-0.181,0.216-0.42,0.252-0.721c0.035-0.3,0.054-0.689,0.054-1.17
		V36.631z"/>
	<path fill="#FFFFFF" d="M387.859,59.456l-4.284-17.748h-0.144v17.748h-3.564v-28.44h4.572l4.104,18.252h0.145V31.015h3.6v28.44
		H387.859z"/>
	<path fill="#FFFFFF" d="M404.706,34.471h-3.096v24.984h-4.14V34.471h-3.133v-3.456h10.368V34.471z"/>
	<path fill="#FFFFFF" d="M413.814,59.456V53.12h-3.491v6.336h-4.032V36.631c0-1.319,0.077-2.369,0.233-3.149s0.45-1.38,0.883-1.801
		c0.432-0.419,1.025-0.695,1.781-0.827c0.757-0.132,1.723-0.198,2.898-0.198s2.142,0.072,2.897,0.216
		c0.757,0.144,1.356,0.432,1.801,0.864c0.443,0.432,0.749,1.038,0.918,1.817c0.167,0.78,0.252,1.807,0.252,3.078v22.824H413.814z
		 M412.051,34.364c-0.36,0-0.654,0.03-0.882,0.09c-0.229,0.061-0.408,0.168-0.54,0.324s-0.216,0.384-0.252,0.684
		c-0.036,0.301-0.054,0.69-0.054,1.17v13.104h3.491V36.631c0-0.479-0.023-0.869-0.071-1.17c-0.049-0.3-0.133-0.527-0.252-0.684
		c-0.121-0.156-0.301-0.264-0.54-0.324C412.711,34.394,412.411,34.364,412.051,34.364z"/>
	<path fill="#FFFFFF" d="M433.146,31.015l-4.248,11.809l4.824,16.632h-4.5l-3.924-14.94h-0.181v14.94h-4.176V31.051h4.176V41.78
		h0.181l3.491-10.765H433.146z"/>
	<path fill="#FFFFFF" d="M444.773,34.471h-3.096v24.984h-4.14V34.471h-3.133v-3.456h10.368V34.471z"/>
	<path fill="#FFFFFF" d="M452.549,59.816c-1.2,0-2.178-0.066-2.934-0.198s-1.35-0.408-1.782-0.828
		c-0.432-0.42-0.732-1.026-0.899-1.818c-0.169-0.792-0.252-1.848-0.252-3.168V31.015h4.14v22.788c0,0.504,0.023,0.906,0.072,1.206
		c0.048,0.301,0.138,0.528,0.27,0.685s0.312,0.264,0.54,0.323c0.228,0.061,0.534,0.091,0.918,0.091c0.36,0,0.653-0.03,0.882-0.091
		c0.229-0.06,0.402-0.167,0.522-0.323s0.203-0.384,0.252-0.685c0.048-0.3,0.072-0.702,0.072-1.206V31.015h4.031v22.788
		c0,1.32-0.084,2.376-0.252,3.168s-0.468,1.398-0.899,1.818c-0.433,0.42-1.026,0.696-1.782,0.828S453.725,59.816,452.549,59.816z"/>
	<path fill="#FFFFFF" d="M460.325,47.215h3.78v6.588c0,0.984,0.107,1.62,0.324,1.908c0.216,0.288,0.671,0.433,1.367,0.433
		c0.721,0,1.183-0.15,1.387-0.45c0.203-0.3,0.306-0.93,0.306-1.891V31.015h4.176v22.788c0,1.32-0.078,2.376-0.233,3.168
		c-0.156,0.792-0.444,1.398-0.864,1.818s-1.008,0.696-1.764,0.828c-0.757,0.132-1.734,0.198-2.935,0.198
		c-1.128,0-2.052-0.066-2.771-0.198c-0.721-0.132-1.284-0.408-1.692-0.828s-0.69-1.026-0.846-1.818
		c-0.156-0.792-0.234-1.848-0.234-3.168V47.215z"/>
	<path fill="#FFFFFF" d="M488.368,40.232v-3.528c0-0.504-0.018-0.912-0.054-1.224c-0.036-0.313-0.114-0.546-0.234-0.702
		s-0.3-0.264-0.539-0.324c-0.24-0.06-0.553-0.09-0.937-0.09c-0.408,0-0.727,0.03-0.954,0.09c-0.229,0.061-0.402,0.168-0.521,0.324
		c-0.121,0.156-0.198,0.39-0.234,0.702c-0.036,0.312-0.054,0.72-0.054,1.224v2.808c0,0.36,0.023,0.661,0.071,0.9
		c0.048,0.24,0.15,0.456,0.307,0.647c0.155,0.192,0.384,0.385,0.684,0.576c0.3,0.192,0.714,0.421,1.242,0.685
		c1.248,0.647,2.232,1.2,2.952,1.655c0.72,0.457,1.26,0.919,1.62,1.387c0.359,0.468,0.588,0.996,0.684,1.584s0.145,1.35,0.145,2.286
		v4.571c0,1.32-0.078,2.376-0.234,3.168s-0.45,1.398-0.882,1.818c-0.433,0.42-1.038,0.696-1.818,0.828s-1.782,0.198-3.006,0.198
		c-1.152,0-2.101-0.066-2.844-0.198c-0.744-0.132-1.332-0.408-1.765-0.828c-0.432-0.42-0.731-1.026-0.899-1.818
		s-0.252-1.848-0.252-3.168v-5.651h4.032v5.651c0,0.504,0.018,0.906,0.054,1.206c0.036,0.301,0.113,0.534,0.234,0.702
		c0.119,0.168,0.293,0.282,0.521,0.342c0.228,0.061,0.534,0.091,0.918,0.091c0.768,0,1.254-0.145,1.458-0.433
		s0.306-0.924,0.306-1.908V49.52c0-0.48-0.018-0.876-0.054-1.188c-0.036-0.312-0.132-0.588-0.288-0.828
		c-0.156-0.239-0.391-0.462-0.702-0.666c-0.312-0.203-0.732-0.45-1.26-0.738c-1.248-0.647-2.227-1.199-2.934-1.655
		c-0.708-0.456-1.242-0.918-1.603-1.387c-0.359-0.468-0.588-0.983-0.684-1.548c-0.097-0.563-0.145-1.254-0.145-2.069v-2.736
		c0-1.319,0.078-2.376,0.234-3.168s0.45-1.404,0.882-1.836c0.433-0.433,1.032-0.714,1.8-0.846c0.769-0.132,1.765-0.198,2.988-0.198
		c1.2,0,2.178,0.066,2.934,0.198c0.757,0.132,1.345,0.413,1.765,0.846c0.42,0.432,0.707,1.044,0.864,1.836
		c0.155,0.792,0.233,1.849,0.233,3.168v3.528H488.368z"/>
	<path fill="#FFFFFF" d="M499.564,59.456h-4.14v-28.44h4.14V59.456z"/>
	<path fill="#FFFFFF" d="M502.84,59.456v-28.44h8.1v3.421h-3.96v4.14h3.853v3.276h-3.853v14.039h3.996v3.564
		c-0.815,0.384-1.386,0.756-1.71,1.116c-0.324,0.359-0.485,0.852-0.485,1.476c0,0.408,0.107,0.702,0.323,0.882
		c0.217,0.181,0.576,0.271,1.08,0.271h1.296v2.916h-2.808c-0.624,0-1.128-0.078-1.512-0.234c-0.385-0.156-0.696-0.372-0.937-0.647
		c-0.24-0.276-0.402-0.589-0.485-0.937c-0.085-0.348-0.126-0.726-0.126-1.134c0-1.032,0.275-1.807,0.827-2.322
		c0.552-0.517,1.477-0.978,2.772-1.386H502.84z"/>
	<path fill="#FFFFFF" d="M528.652,59.456h-9.972v-3.6l5.724-21.385h-5.148v-3.456h9.324v2.809L523,55.891h5.652V59.456z"/>
	<path fill="#FFFFFF" d="M545.104,59.456l-4.284-17.748h-0.144v17.748h-3.564v-28.44h4.572l4.104,18.252h0.145V31.015h3.6v28.44
		H545.104z"/>
	<path fill="#FFFFFF" d="M560.043,59.456V53.12h-3.491v6.336h-4.032V36.631c0-1.319,0.077-2.369,0.233-3.149s0.45-1.38,0.883-1.801
		c0.432-0.419,1.025-0.695,1.781-0.827c0.757-0.132,1.723-0.198,2.898-0.198s2.142,0.072,2.897,0.216
		c0.757,0.144,1.356,0.432,1.801,0.864c0.443,0.432,0.749,1.038,0.918,1.817c0.167,0.78,0.252,1.807,0.252,3.078v22.824H560.043z
		 M558.279,34.364c-0.36,0-0.654,0.03-0.882,0.09c-0.229,0.061-0.408,0.168-0.54,0.324s-0.216,0.384-0.252,0.684
		c-0.036,0.301-0.054,0.69-0.054,1.17v13.104h3.491V36.631c0-0.479-0.023-0.869-0.071-1.17c-0.049-0.3-0.133-0.527-0.252-0.684
		c-0.121-0.156-0.301-0.264-0.54-0.324C558.939,34.394,558.64,34.364,558.279,34.364z"/>
	<path fill="#FFFFFF" d="M583.227,31.015v28.44h-3.384V39.368h-0.144l-2.628,20.088h-3.708l-2.628-20.232h-0.145v20.232h-3.42
		v-28.44h5.796l2.16,19.116h0.144l2.196-19.116H583.227z"/>
	<path fill="#FFFFFF" d="M590.643,59.456h-4.14v-28.44h4.14V59.456z"/>
</g>
</svg>
