<?xml version="1.0" encoding="UTF-8" standalone="no"?>
<!-- Generator: Adobe Illustrator 16.0.0, SVG Export Plug-In . SVG Version: 6.00 Build 0)  -->

<svg
   xmlns:dc="http://purl.org/dc/elements/1.1/"
   xmlns:cc="http://creativecommons.org/ns#"
   xmlns:rdf="http://www.w3.org/1999/02/22-rdf-syntax-ns#"
   xmlns:svg="http://www.w3.org/2000/svg"
   xmlns="http://www.w3.org/2000/svg"
   xmlns:xlink="http://www.w3.org/1999/xlink"
   xmlns:sodipodi="http://sodipodi.sourceforge.net/DTD/sodipodi-0.dtd"
   xmlns:inkscape="http://www.inkscape.org/namespaces/inkscape"
   version="1.1"
   id="Warstwa_1"
   x="0px"
   y="0px"
   width="347"
   height="126.04"
   viewBox="0 0 347 126.04"
   enable-background="new 0 0 694 85.04"
   xml:space="preserve"
   sodipodi:docname="sm-faktyopracy.svg"
   inkscape:version="0.92.2 2405546, 2018-03-11"><metadata
   id="metadata644"><rdf:RDF><cc:Work
       rdf:about=""><dc:format>image/svg+xml</dc:format><dc:type
         rdf:resource="http://purl.org/dc/dcmitype/StillImage" /><dc:title></dc:title></cc:Work></rdf:RDF></metadata><defs
   id="defs642">
	
	
	
	
	
	
	
	
	
	
	
	
	
	
	
	
	
	
	
	
	
	
	
	
	
	
	
	
	
	
	
	
	
	
	
	
	
	
<clipPath
   clipPathUnits="userSpaceOnUse"
   id="clipPath1568"><use
     x="0"
     y="0"
     xlink:href="#g1564"
     id="use1570"
     width="100%"
     height="100%" /></clipPath><clipPath
   clipPathUnits="userSpaceOnUse"
   id="clipPath1686"><use
     x="0"
     y="0"
     xlink:href="#g1682"
     id="use1688"
     width="100%"
     height="100%" /></clipPath></defs><sodipodi:namedview
   pagecolor="#ffffff"
   bordercolor="#666666"
   borderopacity="1"
   objecttolerance="10"
   gridtolerance="10"
   guidetolerance="10"
   inkscape:pageopacity="0"
   inkscape:pageshadow="2"
   inkscape:window-width="1600"
   inkscape:window-height="857"
   id="namedview640"
   showgrid="false"
   inkscape:zoom="2.4697793"
   inkscape:cx="173.05645"
   inkscape:cy="56.817763"
   inkscape:window-x="0"
   inkscape:window-y="43"
   inkscape:window-maximized="0"
   inkscape:current-layer="Warstwa_1"
   inkscape:snap-intersection-paths="true" />
<path
   style="stroke:#ffffff;stroke-width:1.01897168;stroke-miterlimit:10"
   d="m 345.9389,121.28526 c -114.67937,1.82286 -229.35874,3.64573 -344.0381081,5.46859 0,-36.457306 0,-72.914611 0,-109.371917 C 116.58016,13.128581 231.25953,8.8752283 345.9389,4.621876 c 0,38.887795 0,77.775589 0,116.663384 z"
   id="polygon559"
   inkscape:connector-curvature="0" />
<g
   id="g1684"
   clip-path="url(#clipPath1686)"
   style="fill:#ffffff"><g
     inkscape:label="Clip"
     id="g1682"
     style="fill:#ffffff"><g
       id="g1639"
       style="fill:#ffffff"><g
         id="g1566"
         clip-path="url(#clipPath1568)"
         transform="translate(10.932151,11.337046)"
         style="fill:#ffffff"><g
           inkscape:label="Clip"
           id="g1564"
           style="fill:#ffffff"><path
             d="m 10.898773,51.868356 v -28.44 h 8.28 v 3.421 h -4.14 v 4.212 h 3.996 v 3.42 h -3.996 v 17.388 h -4.14 z"
             id="path561"
             inkscape:connector-curvature="0"
             style="fill:#ffffff" /><path
             d="m 28.574773,51.868356 v -6.336 h -3.492 v 6.336 h -4.032 v -22.825 c 0,-1.319 0.078,-2.369 0.234,-3.149 0.156,-0.78 0.45,-1.38 0.882,-1.801 0.432,-0.419 1.026,-0.695 1.782,-0.827 0.756,-0.132 1.722,-0.198 2.898,-0.198 1.176,0 2.142,0.072 2.898,0.216 0.756,0.144 1.355,0.432 1.8,0.864 0.444,0.432 0.75,1.038 0.918,1.817 0.168,0.78 0.252,1.807 0.252,3.078 v 22.824 h -4.14 z m -1.764,-25.092 c -0.36,0 -0.654,0.03 -0.882,0.09 -0.229,0.061 -0.409,0.168 -0.54,0.324 -0.132,0.156 -0.216,0.384 -0.252,0.684 -0.036,0.301 -0.054,0.69 -0.054,1.17 v 13.104 h 3.492 v -13.105 c 0,-0.479 -0.024,-0.869 -0.072,-1.17 -0.048,-0.3 -0.132,-0.527 -0.252,-0.684 -0.12,-0.157 -0.3,-0.264 -0.54,-0.324 -0.241,-0.059 -0.541,-0.089 -0.9,-0.089 z"
             id="path563"
             inkscape:connector-curvature="0"
             style="fill:#ffffff" /><path
             d="m 47.905773,23.427356 -4.248,11.809 4.824,16.632 h -4.5 l -3.924,-14.94 h -0.18 v 14.94 h -4.176 v -28.405 h 4.176 v 10.729 h 0.18 l 3.492,-10.765 z"
             id="path565"
             inkscape:connector-curvature="0"
             style="fill:#ffffff" /><path
             d="m 59.533773,26.883356 h -3.096 v 24.984 h -4.14 v -24.984 h -3.132 v -3.456 h 10.368 z"
             id="path567"
             inkscape:connector-curvature="0"
             style="fill:#ffffff" /><path
             d="m 72.601773,23.427356 -4.248,18.396 v 10.044 h -4.14 v -10.043 l -4.104,-18.396 h 4.104 l 2.052,12.853 h 0.144 l 2.16,-12.853 h 4.032 z"
             id="path569"
             inkscape:connector-curvature="0"
             style="fill:#ffffff" /><path
             d="m 92.076773,46.215356 c 0,1.32 -0.078,2.376 -0.234,3.168 -0.156,0.792 -0.456,1.398 -0.9,1.818 -0.444,0.42 -1.05,0.696 -1.818,0.828 -0.769,0.132 -1.764,0.198 -2.988,0.198 -1.224,0 -2.22,-0.066 -2.988,-0.198 -0.768,-0.132 -1.368,-0.408 -1.8,-0.828 -0.432,-0.42 -0.726,-1.026 -0.882,-1.818 -0.156,-0.792 -0.234,-1.848 -0.234,-3.168 v -17.172 c 0,-1.319 0.078,-2.369 0.234,-3.149 0.156,-0.78 0.45,-1.38 0.882,-1.801 0.432,-0.419 1.032,-0.695 1.8,-0.827 0.768,-0.132 1.764,-0.198 2.988,-0.198 1.224,0 2.219,0.066 2.988,0.198 0.768,0.132 1.374,0.408 1.818,0.827 0.444,0.421 0.744,1.021 0.9,1.801 0.156,0.78 0.234,1.83 0.234,3.149 z m -4.176,-17.172 c 0,-0.959 -0.108,-1.577 -0.324,-1.854 -0.216,-0.276 -0.696,-0.414 -1.44,-0.414 -0.384,0 -0.69,0.03 -0.918,0.09 -0.229,0.061 -0.409,0.175 -0.54,0.342 -0.132,0.168 -0.216,0.402 -0.252,0.702 -0.036,0.301 -0.054,0.679 -0.054,1.134 v 17.172 c 0,0.504 0.018,0.906 0.054,1.206 0.036,0.301 0.12,0.534 0.252,0.702 0.131,0.168 0.312,0.282 0.54,0.342 0.228,0.061 0.534,0.091 0.918,0.091 0.383,0 0.689,-0.03 0.918,-0.091 0.228,-0.06 0.408,-0.18 0.54,-0.359 0.131,-0.181 0.216,-0.42 0.252,-0.721 0.036,-0.3 0.054,-0.689 0.054,-1.17 z"
             id="path571"
             inkscape:connector-curvature="0"
             style="fill:#ffffff" /><path
             d="m 105.28877,41.104356 v 10.764 h -4.14 v -28.44 h 5.904 c 1.224,0 2.22,0.066 2.988,0.198 0.768,0.133 1.374,0.402 1.818,0.811 0.444,0.408 0.744,0.989 0.9,1.746 0.156,0.756 0.234,1.77 0.234,3.042 v 6.084 c 0,1.271 -0.084,2.292 -0.252,3.06 -0.168,0.769 -0.474,1.356 -0.918,1.764 -0.444,0.409 -1.05,0.673 -1.818,0.792 -0.769,0.121 -1.752,0.181 -2.952,0.181 h -1.764 z m 0,-14.076 v 10.728 h 1.764 c 0.36,0 0.66,-0.029 0.9,-0.09 0.239,-0.06 0.419,-0.174 0.54,-0.342 0.12,-0.168 0.204,-0.401 0.252,-0.702 0.048,-0.3 0.072,-0.689 0.072,-1.17 v -6.228 c 0,-0.456 -0.018,-0.828 -0.054,-1.116 -0.036,-0.288 -0.114,-0.51 -0.234,-0.666 -0.12,-0.156 -0.294,-0.264 -0.522,-0.324 -0.228,-0.06 -0.546,-0.09 -0.954,-0.09 z"
             id="path573"
             inkscape:connector-curvature="0"
             style="fill:#ffffff" /><path
             d="m 119.57977,51.868356 h -4.14 v -28.44 h 5.904 c 1.224,0 2.22,0.066 2.988,0.198 0.768,0.133 1.374,0.408 1.818,0.828 0.444,0.42 0.744,1.008 0.9,1.764 0.156,0.757 0.234,1.759 0.234,3.007 v 2.987 c 0,0.744 -0.079,1.351 -0.234,1.818 -0.156,0.468 -0.36,0.846 -0.612,1.134 -0.252,0.288 -0.528,0.498 -0.828,0.63 -0.3,0.133 -0.594,0.234 -0.882,0.307 v 0.144 c 0.384,0.097 0.732,0.223 1.044,0.378 0.312,0.156 0.582,0.396 0.81,0.72 0.228,0.324 0.401,0.738 0.522,1.242 0.12,0.504 0.18,1.152 0.18,1.944 v 11.34 h -4.176 v -11.99 c 0,-0.768 -0.096,-1.302 -0.288,-1.602 -0.192,-0.3 -0.648,-0.45 -1.368,-0.45 h -1.872 z m 0,-17.317 h 1.872 c 0.671,0 1.116,-0.131 1.332,-0.396 0.216,-0.264 0.324,-0.744 0.324,-1.44 v -3.491 c 0,-0.456 -0.018,-0.822 -0.054,-1.099 -0.036,-0.275 -0.114,-0.498 -0.234,-0.666 -0.12,-0.167 -0.3,-0.281 -0.54,-0.342 -0.24,-0.06 -0.552,-0.09 -0.936,-0.09 h -1.764 z"
             id="path575"
             inkscape:connector-curvature="0"
             style="fill:#ffffff" /><path
             d="m 137.54377,51.868356 v -6.336 h -3.492 v 6.336 h -4.032 v -22.825 c 0,-1.319 0.078,-2.369 0.234,-3.149 0.156,-0.78 0.45,-1.38 0.882,-1.801 0.432,-0.419 1.026,-0.695 1.782,-0.827 0.756,-0.132 1.722,-0.198 2.898,-0.198 1.176,0 2.142,0.072 2.898,0.216 0.756,0.144 1.355,0.432 1.8,0.864 0.444,0.432 0.75,1.038 0.918,1.817 0.168,0.78 0.252,1.807 0.252,3.078 v 22.824 h -4.14 z m -1.764,-25.092 c -0.36,0 -0.654,0.03 -0.882,0.09 -0.229,0.061 -0.409,0.168 -0.54,0.324 -0.132,0.156 -0.216,0.384 -0.252,0.684 -0.036,0.301 -0.054,0.69 -0.054,1.17 v 13.104 h 3.492 v -13.105 c 0,-0.479 -0.024,-0.869 -0.072,-1.17 -0.048,-0.3 -0.132,-0.527 -0.252,-0.684 -0.12,-0.157 -0.3,-0.264 -0.54,-0.324 -0.24,-0.059 -0.54,-0.089 -0.9,-0.089 z"
             id="path577"
             inkscape:connector-curvature="0"
             style="fill:#ffffff" /><path
             d="m 152.01577,35.488356 v -6.444 c 0,-0.479 -0.018,-0.869 -0.054,-1.17 -0.036,-0.3 -0.121,-0.527 -0.252,-0.684 -0.132,-0.156 -0.313,-0.264 -0.54,-0.324 -0.229,-0.06 -0.522,-0.09 -0.882,-0.09 -0.384,0 -0.69,0.03 -0.918,0.09 -0.229,0.061 -0.409,0.175 -0.54,0.342 -0.132,0.168 -0.216,0.402 -0.252,0.702 -0.036,0.301 -0.054,0.679 -0.054,1.134 v 17.172 c 0,0.504 0.018,0.906 0.054,1.206 0.036,0.301 0.12,0.534 0.252,0.702 0.131,0.168 0.312,0.282 0.54,0.342 0.228,0.061 0.534,0.091 0.918,0.091 0.36,0 0.653,-0.03 0.882,-0.091 0.228,-0.06 0.408,-0.174 0.54,-0.342 0.131,-0.168 0.216,-0.401 0.252,-0.702 0.036,-0.3 0.054,-0.702 0.054,-1.206 v -6.588 h 3.996 v 6.588 c 0,1.32 -0.078,2.376 -0.234,3.168 -0.156,0.792 -0.45,1.398 -0.882,1.818 -0.432,0.42 -1.021,0.696 -1.764,0.828 -0.744,0.132 -1.692,0.198 -2.844,0.198 -1.224,0 -2.22,-0.066 -2.988,-0.198 -0.768,-0.132 -1.368,-0.408 -1.8,-0.828 -0.432,-0.42 -0.726,-1.026 -0.882,-1.818 -0.156,-0.792 -0.234,-1.848 -0.234,-3.168 v -17.173 c 0,-1.296 0.084,-2.34 0.252,-3.132 0.168,-0.792 0.474,-1.397 0.918,-1.818 0.444,-0.419 1.05,-0.695 1.818,-0.827 0.768,-0.132 1.74,-0.198 2.916,-0.198 1.152,0 2.1,0.066 2.844,0.198 0.744,0.132 1.332,0.408 1.764,0.827 0.432,0.421 0.726,1.021 0.882,1.801 0.156,0.78 0.234,1.83 0.234,3.149 v 6.444 h -3.996 z"
             id="path579"
             inkscape:connector-curvature="0"
             style="fill:#ffffff" /><path
             d="m 169.58377,23.427356 -4.248,18.396 v 10.044 h -4.14 v -10.043 l -4.104,-18.396 h 4.104 l 2.052,12.853 h 0.144 l 2.16,-12.853 h 4.032 z"
             id="path581"
             inkscape:connector-curvature="0"
             style="fill:#ffffff" /><path
             d="m 181.71477,51.868356 h -4.14 v -28.44 h 4.14 z"
             id="path583"
             inkscape:connector-curvature="0"
             style="fill:#ffffff" /><path
             d="m 196.90577,52.228356 c -1.201,0 -2.178,-0.066 -2.934,-0.198 -0.756,-0.132 -1.35,-0.408 -1.782,-0.828 -0.432,-0.42 -0.732,-1.026 -0.9,-1.818 -0.168,-0.792 -0.252,-1.848 -0.252,-3.168 v -22.789 h 4.14 v 22.788 c 0,0.504 0.023,0.906 0.072,1.206 0.048,0.301 0.138,0.528 0.27,0.685 0.132,0.157 0.312,0.264 0.54,0.323 0.228,0.061 0.534,0.091 0.918,0.091 0.36,0 0.654,-0.03 0.882,-0.091 0.228,-0.06 0.401,-0.167 0.522,-0.323 0.12,-0.156 0.204,-0.384 0.252,-0.685 0.048,-0.3 0.072,-0.702 0.072,-1.206 v -22.788 h 4.032 v 22.788 c 0,1.32 -0.084,2.376 -0.252,3.168 -0.168,0.792 -0.468,1.398 -0.9,1.818 -0.432,0.42 -1.026,0.696 -1.782,0.828 -0.756,0.132 -1.722,0.199 -2.898,0.199 z"
             id="path585"
             inkscape:connector-curvature="0"
             style="fill:#ffffff" /><path
             d="m 214.97777,26.883356 h -3.096 v 24.984 h -4.14 v -24.984 h -3.132 v -3.456 h 10.368 z"
             id="path587"
             inkscape:connector-curvature="0"
             style="fill:#ffffff" /><path
             d="m 221.16977,51.868356 h -4.14 v -28.44 h 5.904 c 1.224,0 2.22,0.066 2.988,0.198 0.768,0.133 1.374,0.408 1.818,0.828 0.444,0.42 0.744,1.008 0.9,1.764 0.156,0.757 0.234,1.759 0.234,3.007 v 2.987 c 0,0.744 -0.079,1.351 -0.234,1.818 -0.156,0.468 -0.36,0.846 -0.612,1.134 -0.252,0.288 -0.528,0.498 -0.828,0.63 -0.3,0.133 -0.594,0.234 -0.882,0.307 v 0.144 c 0.384,0.097 0.732,0.223 1.044,0.378 0.312,0.156 0.582,0.396 0.81,0.72 0.228,0.324 0.401,0.738 0.522,1.242 0.12,0.504 0.18,1.152 0.18,1.944 v 11.34 h -4.176 v -11.99 c 0,-0.768 -0.096,-1.302 -0.288,-1.602 -0.192,-0.3 -0.648,-0.45 -1.368,-0.45 h -1.872 z m 0,-17.317 h 1.872 c 0.671,0 1.116,-0.131 1.332,-0.396 0.216,-0.264 0.324,-0.744 0.324,-1.44 v -3.491 c 0,-0.456 -0.018,-0.822 -0.054,-1.099 -0.036,-0.275 -0.114,-0.498 -0.234,-0.666 -0.12,-0.167 -0.3,-0.281 -0.54,-0.342 -0.24,-0.06 -0.552,-0.09 -0.936,-0.09 h -1.764 z"
             id="path589"
             inkscape:connector-curvature="0"
             style="fill:#ffffff" /><path
             d="m 240.86177,51.868356 h -9.972 v -3.6 l 5.724,-21.385 h -5.148 v -3.456 h 9.324 v 2.809 l -5.58,22.067 h 5.652 z"
             id="path591"
             inkscape:connector-curvature="0"
             style="fill:#ffffff" /><path
             d="m 254.14577,23.427356 -4.248,18.396 v 10.044 h -4.14 v -10.043 l -4.104,-18.396 h 4.104 l 2.052,12.853 h 0.144 l 2.16,-12.853 h 4.032 z"
             id="path593"
             inkscape:connector-curvature="0"
             style="fill:#ffffff" /><path
             d="m 271.92877,23.427356 v 28.44 h -3.384 v -20.087 h -0.144 l -2.628,20.088 h -3.708 l -2.628,-20.232 h -0.144 v 20.232 h -3.42 v -28.44 h 5.796 l 2.16,19.116 h 0.144 l 2.196,-19.116 h 5.76 z"
             id="path595"
             inkscape:connector-curvature="0"
             style="fill:#ffffff" /><path
             d="m 282.44077,51.868356 v -6.336 h -3.492 v 6.336 h -4.032 v -22.825 c 0,-1.319 0.078,-2.369 0.234,-3.149 0.156,-0.78 0.45,-1.38 0.882,-1.801 0.432,-0.419 1.026,-0.695 1.782,-0.827 0.756,-0.132 1.722,-0.198 2.898,-0.198 1.176,0 2.142,0.072 2.898,0.216 0.756,0.144 1.355,0.432 1.8,0.864 0.444,0.432 0.75,1.038 0.918,1.817 0.168,0.78 0.252,1.807 0.252,3.078 v 22.824 h -4.14 z m -1.764,-25.092 c -0.36,0 -0.654,0.03 -0.882,0.09 -0.229,0.061 -0.409,0.168 -0.54,0.324 -0.132,0.156 -0.216,0.384 -0.252,0.684 -0.036,0.301 -0.054,0.69 -0.054,1.17 v 13.104 h 3.492 v -13.105 c 0,-0.479 -0.024,-0.869 -0.072,-1.17 -0.048,-0.3 -0.132,-0.527 -0.252,-0.684 -0.12,-0.157 -0.3,-0.264 -0.54,-0.324 -0.241,-0.059 -0.54,-0.089 -0.9,-0.089 z"
             id="path597"
             inkscape:connector-curvature="0"
             style="fill:#ffffff" /><path
             d="m 297.56077,51.868356 -4.285,-17.748 h -0.144 v 17.748 h -3.564 v -28.44 h 4.573 l 4.104,18.252 h 0.145 v -18.253 h 3.6 v 28.44 h -4.429 z"
             id="path599"
             inkscape:connector-curvature="0"
             style="fill:#ffffff" /><path
             d="m 309.40377,51.868356 h -4.14 v -28.44 h 4.14 z"
             id="path601"
             inkscape:connector-curvature="0"
             style="fill:#ffffff" /><path
             d="m 318.40277,52.228356 c -1.2,0 -2.178,-0.066 -2.934,-0.198 -0.756,-0.132 -1.35,-0.408 -1.782,-0.828 -0.432,-0.42 -0.732,-1.026 -0.899,-1.818 -0.169,-0.792 -0.252,-1.848 -0.252,-3.168 v -22.789 h 4.14 v 22.788 c 0,0.504 0.023,0.906 0.072,1.206 0.048,0.301 0.138,0.528 0.27,0.685 0.132,0.157 0.312,0.264 0.54,0.323 0.228,0.061 0.534,0.091 0.918,0.091 0.36,0 0.653,-0.03 0.882,-0.091 0.229,-0.06 0.402,-0.167 0.522,-0.323 0.12,-0.156 0.203,-0.384 0.252,-0.685 0.048,-0.3 0.072,-0.702 0.072,-1.206 v -22.788 h 4.031 v 22.788 c 0,1.32 -0.084,2.376 -0.252,3.168 -0.168,0.792 -0.468,1.398 -0.899,1.818 -0.433,0.42 -1.026,0.696 -1.782,0.828 -0.756,0.132 -1.723,0.199 -2.899,0.199 z"
             id="path603"
             inkscape:connector-curvature="0"
             style="fill:#ffffff" /><path
             d="m 14.845555,60.677648 1.188,22.356 h 0.144 l 1.908,-22.356 h 5.292 l 1.62,22.356 h 0.144 l 1.548,-22.356 h 4.177 l -3.313,28.44 h -5.256 l -1.512,-22.572 h -0.145 l -1.979,22.572 h -5.328 l -2.628,-28.44 z"
             id="path605"
             inkscape:connector-curvature="0"
             style="fill:#ffffff" /><path
             d="m 43.140555,78.354648 v 10.764 h -4.14 v -28.44 h 5.904 c 1.224,0 2.22,0.066 2.987,0.198 0.769,0.133 1.374,0.402 1.818,0.811 0.444,0.409 0.744,0.989 0.9,1.746 0.155,0.756 0.233,1.77 0.233,3.042 v 6.084 c 0,1.271 -0.084,2.292 -0.252,3.06 -0.168,0.769 -0.474,1.356 -0.918,1.764 -0.444,0.409 -1.05,0.673 -1.817,0.792 -0.769,0.121 -1.753,0.181 -2.952,0.181 h -1.763 z m 0,-14.076 v 10.728 h 1.765 c 0.359,0 0.659,-0.029 0.899,-0.09 0.24,-0.06 0.42,-0.174 0.54,-0.342 0.12,-0.168 0.204,-0.401 0.252,-0.702 0.048,-0.3 0.072,-0.689 0.072,-1.17 v -6.228 c 0,-0.456 -0.018,-0.828 -0.054,-1.116 -0.036,-0.288 -0.114,-0.51 -0.234,-0.666 -0.12,-0.156 -0.294,-0.264 -0.521,-0.324 -0.229,-0.06 -0.547,-0.09 -0.954,-0.09 z"
             id="path607"
             inkscape:connector-curvature="0"
             style="fill:#ffffff" /><path
             d="m 64.848555,83.465648 c 0,1.32 -0.078,2.376 -0.233,3.168 -0.156,0.792 -0.456,1.398 -0.9,1.818 -0.444,0.42 -1.05,0.696 -1.817,0.828 -0.769,0.132 -1.765,0.198 -2.988,0.198 -1.225,0 -2.221,-0.066 -2.988,-0.198 -0.769,-0.132 -1.368,-0.408 -1.8,-0.828 -0.432,-0.42 -0.727,-1.026 -0.882,-1.818 -0.156,-0.792 -0.234,-1.848 -0.234,-3.168 v -17.172 c 0,-1.319 0.078,-2.369 0.234,-3.149 0.155,-0.78 0.45,-1.38 0.882,-1.801 0.432,-0.419 1.031,-0.695 1.8,-0.827 0.768,-0.132 1.764,-0.198 2.988,-0.198 1.224,0 2.22,0.066 2.988,0.198 0.768,0.132 1.373,0.408 1.817,0.827 0.444,0.421 0.744,1.021 0.9,1.801 0.155,0.78 0.233,1.83 0.233,3.149 z m -4.176,-17.172 c 0,-0.959 -0.107,-1.577 -0.324,-1.854 -0.216,-0.276 -0.696,-0.414 -1.439,-0.414 -0.385,0 -0.69,0.03 -0.918,0.09 -0.229,0.061 -0.408,0.175 -0.54,0.342 -0.133,0.168 -0.216,0.402 -0.252,0.702 -0.036,0.301 -0.055,0.679 -0.055,1.134 v 17.172 c 0,0.504 0.019,0.906 0.055,1.206 0.036,0.301 0.119,0.534 0.252,0.702 0.132,0.168 0.312,0.282 0.54,0.342 0.228,0.061 0.533,0.091 0.918,0.091 0.384,0 0.689,-0.03 0.918,-0.091 0.228,-0.06 0.407,-0.18 0.54,-0.359 0.132,-0.181 0.216,-0.42 0.252,-0.721 0.036,-0.3 0.054,-0.689 0.054,-1.17 v -17.172 z"
             id="path609"
             inkscape:connector-curvature="0"
             style="fill:#ffffff" /><path
             d="m 76.115555,89.118648 h -8.388 v -28.44 h 4.14 v 24.841 h 4.248 z"
             id="path611"
             inkscape:connector-curvature="0"
             style="fill:#ffffff" /><path
             d="m 85.474555,69.894648 v -3.528 c 0,-0.504 -0.018,-0.912 -0.054,-1.224 -0.036,-0.313 -0.114,-0.546 -0.234,-0.702 -0.12,-0.156 -0.3,-0.264 -0.539,-0.324 -0.24,-0.06 -0.553,-0.09 -0.937,-0.09 -0.408,0 -0.727,0.03 -0.954,0.09 -0.229,0.061 -0.402,0.168 -0.521,0.324 -0.121,0.156 -0.198,0.39 -0.234,0.702 -0.036,0.312 -0.054,0.72 -0.054,1.224 v 2.808 c 0,0.36 0.023,0.661 0.071,0.9 0.048,0.24 0.15,0.456 0.307,0.647 0.155,0.192 0.384,0.385 0.684,0.576 0.3,0.192 0.714,0.421 1.242,0.685 1.248,0.647 2.232,1.2 2.952,1.655 0.72,0.457 1.26,0.919 1.62,1.387 0.359,0.468 0.588,0.996 0.684,1.584 0.096,0.588 0.145,1.35 0.145,2.286 v 4.571 c 0,1.32 -0.078,2.376 -0.234,3.168 -0.156,0.792 -0.45,1.398 -0.882,1.818 -0.433,0.42 -1.038,0.696 -1.818,0.828 -0.78,0.132 -1.782,0.198 -3.006,0.198 -1.152,0 -2.101,-0.066 -2.844,-0.198 -0.744,-0.132 -1.332,-0.408 -1.765,-0.828 -0.432,-0.42 -0.731,-1.026 -0.899,-1.818 -0.168,-0.792 -0.252,-1.848 -0.252,-3.168 v -5.651 h 4.032 v 5.651 c 0,0.504 0.018,0.906 0.054,1.206 0.036,0.301 0.113,0.534 0.234,0.702 0.119,0.168 0.293,0.282 0.521,0.342 0.228,0.061 0.534,0.091 0.918,0.091 0.768,0 1.254,-0.145 1.458,-0.433 0.204,-0.288 0.306,-0.924 0.306,-1.908 v -4.283 c 0,-0.48 -0.018,-0.876 -0.054,-1.188 -0.036,-0.312 -0.132,-0.588 -0.288,-0.828 -0.156,-0.239 -0.391,-0.462 -0.702,-0.666 -0.312,-0.203 -0.732,-0.45 -1.26,-0.738 -1.248,-0.647 -2.227,-1.199 -2.934,-1.655 -0.708,-0.456 -1.242,-0.918 -1.603,-1.387 -0.359,-0.468 -0.588,-0.983 -0.684,-1.548 -0.097,-0.563 -0.145,-1.254 -0.145,-2.069 v -2.736 c 0,-1.319 0.078,-2.376 0.234,-3.168 0.156,-0.792 0.45,-1.404 0.882,-1.836 0.433,-0.433 1.032,-0.714 1.8,-0.846 0.769,-0.132 1.765,-0.198 2.988,-0.198 1.2,0 2.178,0.066 2.934,0.198 0.757,0.132 1.345,0.413 1.765,0.846 0.42,0.432 0.707,1.044 0.864,1.836 0.155,0.792 0.233,1.849 0.233,3.168 v 3.528 h -4.031 z"
             id="path613"
             inkscape:connector-curvature="0"
             style="fill:#ffffff" /><path
             d="m 99.803555,72.738648 v -6.444 c 0,-0.479 -0.018,-0.869 -0.054,-1.17 -0.036,-0.3 -0.12,-0.527 -0.252,-0.684 -0.132,-0.157 -0.313,-0.264 -0.54,-0.324 -0.229,-0.06 -0.522,-0.09 -0.882,-0.09 -0.385,0 -0.69,0.03 -0.918,0.09 -0.229,0.061 -0.408,0.175 -0.54,0.342 -0.133,0.168 -0.216,0.402 -0.252,0.702 -0.036,0.301 -0.055,0.679 -0.055,1.134 v 17.172 c 0,0.504 0.019,0.906 0.055,1.206 0.036,0.301 0.119,0.534 0.252,0.702 0.132,0.168 0.312,0.282 0.54,0.342 0.228,0.061 0.533,0.091 0.918,0.091 0.359,0 0.653,-0.03 0.882,-0.091 0.228,-0.06 0.408,-0.174 0.54,-0.342 0.132,-0.168 0.216,-0.401 0.252,-0.702 0.036,-0.3 0.054,-0.702 0.054,-1.206 v -6.588 h 3.995995 v 6.588 c 0,1.32 -0.078,2.376 -0.233,3.168 -0.157,0.792 -0.45,1.398 -0.883,1.818 -0.432,0.42 -1.02,0.696 -1.764,0.828 -0.744,0.132 -1.691995,0.198 -2.843995,0.198 -1.225,0 -2.221,-0.066 -2.988,-0.198 -0.769,-0.132 -1.368,-0.408 -1.8,-0.828 -0.432,-0.42 -0.727,-1.026 -0.882,-1.818 -0.156,-0.792 -0.234,-1.848 -0.234,-3.168 v -17.173 c 0,-1.296 0.084,-2.34 0.252,-3.132 0.168,-0.792 0.474,-1.397 0.918,-1.818 0.444,-0.419 1.05,-0.695 1.818,-0.827 0.768,-0.132 1.739,-0.198 2.916,-0.198 1.151,0 2.099995,0.066 2.843995,0.198 0.744,0.132 1.332,0.408 1.764,0.827 0.433,0.421 0.726,1.021 0.883,1.801 0.155,0.78 0.233,1.83 0.233,3.149 v 6.444 h -3.995995 z"
             id="path615"
             inkscape:connector-curvature="0"
             style="fill:#ffffff" /><path
             d="m 114.81455,89.118648 h -8.136 v -28.44 h 8.1 v 3.421 h -3.96 v 4.14 h 3.853 v 3.276 h -3.853 v 14.039 h 3.996 z"
             id="path617"
             inkscape:connector-curvature="0"
             style="fill:#ffffff" /><path
             d="m 126.33455,60.677648 1.188,22.356 h 0.144 l 1.908,-22.356 h 5.292 l 1.62,22.356 h 0.144 l 1.548,-22.356 h 4.177 l -3.313,28.44 h -5.256 l -1.512,-22.572 h -0.145 l -1.979,22.572 h -5.328 l -2.628,-28.44 z"
             id="path619"
             inkscape:connector-curvature="0"
             style="fill:#ffffff" /><path
             d="m 158.87755,89.118648 h -8.388 v -28.44 h 4.14 v 24.841 h 4.248 z"
             id="path621"
             inkscape:connector-curvature="0"
             style="fill:#ffffff" /><path
             d="m 165.14155,89.118648 h -4.14 v -28.44 h 4.14 z"
             id="path623"
             inkscape:connector-curvature="0"
             style="fill:#ffffff" /><path
             d="m 175.76155,72.738648 v -6.444 c 0,-0.479 -0.018,-0.869 -0.054,-1.17 -0.036,-0.3 -0.12,-0.527 -0.252,-0.684 -0.132,-0.157 -0.313,-0.264 -0.54,-0.324 -0.229,-0.06 -0.522,-0.09 -0.882,-0.09 -0.385,0 -0.69,0.03 -0.918,0.09 -0.229,0.061 -0.408,0.175 -0.54,0.342 -0.133,0.168 -0.216,0.402 -0.252,0.702 -0.036,0.301 -0.055,0.679 -0.055,1.134 v 17.172 c 0,0.504 0.019,0.906 0.055,1.206 0.036,0.301 0.119,0.534 0.252,0.702 0.132,0.168 0.312,0.282 0.54,0.342 0.228,0.061 0.533,0.091 0.918,0.091 0.359,0 0.653,-0.03 0.882,-0.091 0.228,-0.06 0.408,-0.174 0.54,-0.342 0.132,-0.168 0.216,-0.401 0.252,-0.702 0.036,-0.3 0.054,-0.702 0.054,-1.206 v -6.588 h 3.996 v 6.588 c 0,1.32 -0.078,2.376 -0.233,3.168 -0.157,0.792 -0.45,1.398 -0.883,1.818 -0.432,0.42 -1.02,0.696 -1.764,0.828 -0.744,0.132 -1.692,0.198 -2.844,0.198 -1.225,0 -2.221,-0.066 -2.988,-0.198 -0.769,-0.132 -1.368,-0.408 -1.8,-0.828 -0.432,-0.42 -0.727,-1.026 -0.882,-1.818 -0.156,-0.792 -0.234,-1.848 -0.234,-3.168 v -17.173 c 0,-1.296 0.084,-2.34 0.252,-3.132 0.168,-0.792 0.474,-1.397 0.918,-1.818 0.444,-0.419 1.05,-0.695 1.818,-0.827 0.768,-0.132 1.739,-0.198 2.916,-0.198 1.151,0 2.1,0.066 2.844,0.198 0.744,0.132 1.332,0.408 1.764,0.827 0.433,0.421 0.726,1.021 0.883,1.801 0.155,0.78 0.233,1.83 0.233,3.149 v 6.444 h -3.996 z"
             id="path625"
             inkscape:connector-curvature="0"
             style="fill:#ffffff" /><path
             d="m 191.67355,89.118648 h -9.972 v -3.6 l 5.724,-21.385 h -5.148 v -3.456 h 9.324 v 2.809 l -5.58,22.067 h 5.652 z"
             id="path627"
             inkscape:connector-curvature="0"
             style="fill:#ffffff" /><path
             d="m 203.22855,72.629648 c 0.384,0.097 0.731,0.229 1.044,0.396 0.312,0.168 0.582,0.426 0.81,0.773 0.229,0.349 0.402,0.799 0.522,1.351 0.12,0.552 0.18,1.26 0.18,2.124 v 6.012 c 0,1.272 -0.078,2.292 -0.233,3.06 -0.156,0.769 -0.456,1.356 -0.9,1.765 -0.444,0.409 -1.05,0.678 -1.818,0.81 -0.768,0.133 -1.764,0.198 -2.987,0.198 h -5.904 v -28.44 h 5.904 c 1.224,0 2.22,0.066 2.987,0.198 0.769,0.133 1.374,0.402 1.818,0.811 0.444,0.409 0.744,0.989 0.9,1.746 0.155,0.756 0.233,1.77 0.233,3.042 v 2.124 c 0,0.744 -0.09,1.355 -0.27,1.836 -0.181,0.479 -0.396,0.863 -0.648,1.151 -0.252,0.288 -0.528,0.504 -0.828,0.648 -0.3,0.144 -0.57,0.229 -0.81,0.252 z m -5.148,-1.655 h 1.872 c 0.672,0 1.116,-0.132 1.332,-0.396 0.216,-0.264 0.324,-0.743 0.324,-1.44 v -2.663 c 0,-0.433 -0.018,-0.792 -0.054,-1.08 -0.036,-0.288 -0.114,-0.517 -0.234,-0.685 -0.12,-0.167 -0.3,-0.281 -0.54,-0.342 -0.24,-0.06 -0.552,-0.09 -0.936,-0.09 h -1.765 v 6.696 z m 0,14.579 h 1.765 c 0.384,0 0.689,-0.029 0.918,-0.09 0.228,-0.06 0.401,-0.167 0.521,-0.323 0.12,-0.156 0.204,-0.384 0.252,-0.685 0.048,-0.3 0.072,-0.689 0.072,-1.17 v -6.948 c 0,-0.792 -0.096,-1.337 -0.288,-1.638 -0.192,-0.3 -0.647,-0.45 -1.368,-0.45 h -1.872 z"
             id="path629"
             inkscape:connector-curvature="0"
             style="fill:#ffffff" /><path
             d="m 215.90055,89.118648 v -6.336 h -3.491 v 6.336 h -4.032 v -22.825 c 0,-1.319 0.077,-2.369 0.233,-3.149 0.156,-0.78 0.45,-1.38 0.883,-1.801 0.432,-0.419 1.025,-0.695 1.781,-0.827 0.757,-0.132 1.723,-0.198 2.898,-0.198 1.175,0 2.142,0.072 2.897,0.216 0.757,0.144 1.356,0.432 1.801,0.864 0.443,0.432 0.749,1.038 0.918,1.817 0.167,0.78 0.252,1.807 0.252,3.078 v 22.824 h -4.14 z m -1.763,-25.092 c -0.36,0 -0.654,0.03 -0.882,0.09 -0.229,0.061 -0.408,0.168 -0.54,0.324 -0.132,0.156 -0.216,0.384 -0.252,0.684 -0.036,0.301 -0.054,0.69 -0.054,1.17 v 13.104 h 3.491 v -13.105 c 0,-0.479 -0.023,-0.869 -0.071,-1.17 -0.049,-0.3 -0.133,-0.527 -0.252,-0.684 -0.121,-0.156 -0.301,-0.264 -0.54,-0.324 -0.24,-0.059 -0.54,-0.089 -0.9,-0.089 z"
             id="path631"
             inkscape:connector-curvature="0"
             style="fill:#ffffff" /><path
             d="m 230.37255,72.738648 v -6.444 c 0,-0.479 -0.018,-0.869 -0.054,-1.17 -0.036,-0.3 -0.12,-0.527 -0.252,-0.684 -0.132,-0.157 -0.313,-0.264 -0.54,-0.324 -0.229,-0.06 -0.522,-0.09 -0.882,-0.09 -0.385,0 -0.69,0.03 -0.918,0.09 -0.229,0.061 -0.408,0.175 -0.54,0.342 -0.133,0.168 -0.216,0.402 -0.252,0.702 -0.036,0.301 -0.055,0.679 -0.055,1.134 v 17.172 c 0,0.504 0.019,0.906 0.055,1.206 0.036,0.301 0.119,0.534 0.252,0.702 0.132,0.168 0.312,0.282 0.54,0.342 0.228,0.061 0.533,0.091 0.918,0.091 0.359,0 0.653,-0.03 0.882,-0.091 0.228,-0.06 0.408,-0.174 0.54,-0.342 0.132,-0.168 0.216,-0.401 0.252,-0.702 0.036,-0.3 0.054,-0.702 0.054,-1.206 v -6.588 h 3.996 v 6.588 c 0,1.32 -0.078,2.376 -0.233,3.168 -0.157,0.792 -0.45,1.398 -0.883,1.818 -0.432,0.42 -1.02,0.696 -1.764,0.828 -0.744,0.132 -1.692,0.198 -2.844,0.198 -1.225,0 -2.221,-0.066 -2.988,-0.198 -0.769,-0.132 -1.368,-0.408 -1.8,-0.828 -0.432,-0.42 -0.727,-1.026 -0.882,-1.818 -0.156,-0.792 -0.234,-1.848 -0.234,-3.168 v -17.173 c 0,-1.296 0.084,-2.34 0.252,-3.132 0.168,-0.792 0.474,-1.397 0.918,-1.818 0.444,-0.419 1.05,-0.695 1.818,-0.827 0.768,-0.132 1.739,-0.198 2.916,-0.198 1.151,0 2.1,0.066 2.844,0.198 0.744,0.132 1.332,0.408 1.764,0.827 0.433,0.421 0.726,1.021 0.883,1.801 0.155,0.78 0.233,1.83 0.233,3.149 v 6.444 h -3.996 z"
             id="path633"
             inkscape:connector-curvature="0"
             style="fill:#ffffff" /><path
             d="m 249.16455,89.118648 h -4.176 v -15.552 h -3.601 v 15.552 h -4.14 v -28.44 h 4.14 v 9.396 h 3.601 v -9.396 h 4.176 z"
             id="path635"
             inkscape:connector-curvature="0"
             style="fill:#ffffff" /></g></g></g></g></g>
<path
   style="fill:#ffffff;stroke-width:0.40489447"
   d="M 63.411027,50.556602 V 38.207321 h -1.619578 -1.619578 v -1.619578 -1.619578 h 5.061181 5.061181 v 1.619578 1.619578 h -1.619578 -1.619578 v 12.349281 12.349282 h -1.822025 -1.822025 z"
   id="path1693"
   inkscape:connector-curvature="0" /><path
   style="fill:#ffffff;stroke-width:0.40489447"
   d="M 22.11179,48.937024 V 34.968165 h 3.846498 3.846497 v 1.417131 1.41713 H 27.780313 25.75584 v 2.429367 2.429367 h 2.024473 2.024472 v 1.417131 1.41713 H 27.780313 25.75584 v 8.705232 8.705231 H 23.933815 22.11179 Z"
   id="path1697"
   inkscape:connector-curvature="0" /><path
   style="fill:#ffffff;stroke-width:0.40489447"
   d="m 32.319452,49.757552 c 0.115678,-12.983455 0.128465,-13.159643 1.019678,-14.050354 1.809474,-1.808455 8.383101,-1.388021 9.52661,0.6093 0.363782,0.635403 0.538144,4.436825 0.629944,13.733986 l 0.126934,12.8554 h -2.050183 -2.050182 v -3.036709 -3.036708 h -1.822025 -1.822026 v 3.036708 3.036709 h -1.837948 -1.837949 z m 7.202801,-3.849522 v -7.685281 l -1.074905,-0.269784 c -2.23277,-0.56039 -2.356476,-0.156222 -2.476856,8.092279 l -0.110158,7.548067 h 1.83096 1.830959 z"
   id="path1699"
   inkscape:connector-curvature="0" /><path
   style="fill:#ffffff;stroke-width:0.40489447"
   d="M 46.810353,48.937024 V 34.968165 h 1.822025 1.822026 v 5.239733 c 0,2.881853 0.147674,5.331 0.328165,5.442549 0.180491,0.11155 1.129496,-2.246329 2.108898,-5.239732 l 1.780734,-5.44255 h 1.927991 1.927991 l -1.654452,4.555063 c -0.909948,2.505284 -1.841296,5.131547 -2.069661,5.836139 -0.354107,1.092553 -0.07907,2.442335 1.868954,9.172202 1.25629,4.340119 2.284164,7.999843 2.284164,8.13272 0,0.132877 -0.882715,0.241595 -1.961587,0.241595 h -1.961587 l -1.942372,-7.490548 c -1.068304,-4.119801 -2.098717,-7.490548 -2.289805,-7.490548 -0.191088,0 -0.347433,3.370747 -0.347433,7.490548 v 7.490548 h -1.822026 -1.822025 z"
   id="path1701"
   inkscape:connector-curvature="0" /><path
   style="fill:#ffffff;stroke-width:0.40489447"
   d="M 63.411027,50.556602 V 38.207321 h -1.619578 -1.619578 v -1.619578 -1.619578 h 5.061181 5.061181 v 1.619578 1.619578 h -1.619578 -1.619578 v 12.349281 12.349282 h -1.822025 -1.822025 z"
   id="path1703"
   inkscape:connector-curvature="0" /><path
   style="fill:#ffffff;stroke-width:0.40489447"
   d="m 75.152967,57.514674 c 0,-4.910925 -0.162318,-6.118057 -1.822025,-13.550111 -1.002114,-4.487396 -1.822026,-8.347339 -1.822026,-8.57765 0,-0.230311 0.787695,-0.418748 1.750434,-0.418748 h 1.750434 l 0.928165,6.174641 c 0.510492,3.396052 1.089316,6.347733 1.286275,6.55929 0.226175,0.242937 0.359544,0.242937 0.362003,0 0.0021,-0.211557 0.455895,-3.026586 1.008343,-6.255619 0.552447,-3.229034 1.006202,-6.007622 1.008343,-6.174641 0.0021,-0.167019 0.827275,-0.303671 1.833632,-0.303671 1.690812,0 1.813535,0.06917 1.616323,0.911013 -3.847674,16.424602 -3.850957,16.443198 -3.850957,21.813575 v 5.213131 h -2.024472 -2.024472 z"
   id="path1705"
   inkscape:connector-curvature="0" /><path
   style="fill:#ffffff;stroke-width:0.40489447"
   d="M 92.687231,62.333404 91.551193,61.35603 V 48.98295 c 0,-12.334929 0.0028,-12.375923 0.921948,-13.295156 0.823662,-0.823777 1.312906,-0.922076 4.589244,-0.922076 3.516035,0 3.707635,0.04686 4.645355,1.136038 l 0.97805,1.136038 v 11.70031 c 0,7.71256 -0.15321,12.036581 -0.44954,12.686949 -0.64336,1.412022 -2.00436,1.885725 -5.417902,1.885725 -2.582583,0 -3.151539,-0.134608 -4.131117,-0.977374 z m 5.868636,-2.747655 c 0.35226,-0.35226 0.485874,-3.298973 0.485874,-10.715458 0,-9.699299 -0.0406,-10.251312 -0.783171,-10.648724 -1.09849,-0.587895 -1.889837,-0.522552 -2.629511,0.217122 -0.543065,0.543065 -0.636263,2.059319 -0.636263,10.351428 0,5.922611 0.163622,10.020894 0.41914,10.498335 0.475039,0.887618 2.374037,1.067192 3.143931,0.297297 z"
   id="path1707"
   inkscape:connector-curvature="0" /><path
   style="fill:#ffffff;stroke-width:0.40489447"
   d="M 112.40326,48.902182 V 34.89848 l 4.64611,0.136066 c 6.4102,0.187729 6.44194,0.221775 6.62434,7.105016 0.23726,8.953197 -0.10517,9.653821 -4.93882,10.105195 l -2.68758,0.25097 v 5.205079 5.205078 h -1.82203 -1.82202 z m 7.43993,-1.028006 c 0.40454,-2.022691 0.29229,-8.027223 -0.16608,-8.883684 -0.30619,-0.572135 -0.85172,-0.783171 -2.02447,-0.783171 h -1.60533 v 5.466075 5.466076 h 1.77141 c 1.66007,0 1.78732,-0.07953 2.02447,-1.265296 z"
   id="path1709"
   inkscape:connector-curvature="0" /><path
   style="fill:#ffffff;stroke-width:0.40489447"
   d="M 126.57457,48.937024 V 34.968165 h 3.98852 c 4.60211,0 6.24164,0.443037 6.88782,1.86123 0.25338,0.556124 0.4607,2.733485 0.4607,4.83858 0,3.287587 -0.11422,3.941667 -0.80979,4.637235 -0.44538,0.445384 -0.99199,0.809789 -1.21468,0.809789 -0.22269,0 -0.4049,0.182203 -0.4049,0.404895 0,0.222692 0.26298,0.404894 0.58439,0.404894 0.32141,0 0.86801,0.404947 1.21468,0.899881 0.5078,0.724987 0.6303,2.180787 0.6303,7.490548 v 6.590667 h -1.82202 -1.82203 v -6.242749 c 0,-3.433512 -0.11059,-6.530955 -0.24577,-6.883206 -0.17249,-0.449523 -0.77603,-0.640457 -2.02447,-0.640457 h -1.7787 v 6.883206 6.883206 h -1.82203 -1.82202 z m 7.61238,-6.064948 c 0.18502,-4.291101 0.0125,-4.664755 -2.15402,-4.664755 h -1.81431 v 3.868682 3.868682 l 1.92324,-0.123408 1.92325,-0.123408 z"
   id="path1711"
   inkscape:connector-curvature="0" /><path
   style="fill:#ffffff;stroke-width:0.40489447"
   d="m 141.23607,49.757552 c 0.13826,-15.517934 -0.097,-14.75182 4.63468,-15.090373 3.80699,-0.272389 5.59363,0.478107 6.18195,2.596786 0.25954,0.934671 0.43149,6.335908 0.43285,13.596308 l 0.002,12.045611 h -1.82202 -1.82203 v -3.036709 -3.036708 h -2.02447 -2.02447 v 3.036708 3.036709 h -1.83795 -1.83795 z m 7.53862,-3.670122 c -0.14169,-7.973565 -0.21814,-8.264163 -2.17809,-8.278804 -1.66652,-0.01245 -1.80178,0.616306 -1.80178,8.375116 v 7.409569 h 2.05663 2.05663 z"
   id="path1713"
   inkscape:connector-curvature="0" /><path
   style="fill:#ffffff;stroke-width:0.40489447"
   d="m 157.47424,62.903058 c -1.84148,-0.741949 -1.94972,-1.508255 -1.94972,-13.803514 0,-12.879634 0.0855,-13.357826 2.5321,-14.165285 0.76698,-0.253124 2.58534,-0.384398 4.04081,-0.29172 2.27524,0.144876 2.78061,0.324627 3.604,1.28188 0.89139,1.0363 0.95769,1.448166 0.95769,5.949531 v 4.836155 h -1.82203 -1.82202 v -4.243678 c 0,-4.155272 -0.0205,-4.248818 -0.98302,-4.490399 -0.54065,-0.135696 -1.36352,-0.125953 -1.82858,0.02165 -0.83328,0.264474 -0.844,0.425314 -0.73779,11.069934 l 0.10779,10.801561 h 1.61957 1.61958 l 0.11492,-4.352615 0.11492,-4.352616 h 1.80833 1.80833 v 4.637235 c 0,5.017431 -0.35989,6.364839 -1.88573,7.060056 -1.15883,0.528002 -6.0233,0.555874 -7.29915,0.04182 z"
   id="path1715"
   inkscape:connector-curvature="0" /><path
   style="fill:#ffffff;stroke-width:0.40489447"
   d="m 172.32764,57.896113 c 0,-5.033522 -0.25285,-6.478261 -3.85328,-22.016935 -0.19456,-0.839651 -0.0703,-0.911013 1.58648,-0.911013 2.08107,0 1.80036,-0.679393 3.08693,7.470981 0.71872,4.55303 1.07423,6.103926 1.24976,5.451901 0.025,-0.09279 0.52924,-2.992845 1.12059,-6.44457 l 1.07517,-6.275865 1.71367,-0.124504 c 1.25013,-0.09083 1.71368,0.02721 1.71368,0.436347 0,0.308468 -0.90849,4.464052 -2.01886,9.23463 -1.81043,7.778261 -2.01944,9.164964 -2.02448,13.431289 l -0.006,4.75751 h -1.82202 -1.82203 z"
   id="path1717"
   inkscape:connector-curvature="0" /><path
   style="fill:#ffffff;stroke-width:0.40489447"
   d="M 188.52342,48.937024 V 34.968165 h 2.02447 2.02448 v 13.968859 13.96886 h -2.02448 -2.02447 z"
   id="path1719"
   inkscape:connector-curvature="0" /><path
   style="fill:#ffffff;stroke-width:0.40489447"
   d="m 204.05683,62.857566 c -1.64828,-0.836887 -1.767,-1.855087 -1.767,-15.154276 V 34.968165 h 1.82203 1.82202 V 47.03402 c 0,8.844695 0.12971,12.195567 0.48588,12.551729 0.26723,0.267231 1.00055,0.485874 1.6296,0.485874 0.85515,0 1.24335,-0.262043 1.53859,-1.038595 0.22296,-0.586428 0.39488,-6.050999 0.39488,-12.551729 V 34.968165 h 1.82202 1.82203 l -0.0176,11.640716 c -0.0183,12.103819 -0.24303,14.706616 -1.36667,15.830531 -0.80619,0.806392 -6.81641,1.113413 -8.18574,0.418154 z"
   id="path1721"
   inkscape:connector-curvature="0" /><path
   style="fill:#ffffff;stroke-width:0.40489447"
   d="M 218.89051,50.556602 V 38.207321 h -1.61958 -1.61958 v -1.619578 -1.619578 h 5.06118 5.06118 v 1.619578 1.619578 h -1.61958 -1.61957 v 12.349281 12.349282 h -1.82203 -1.82202 z"
   id="path1723"
   inkscape:connector-curvature="0" /><path
   style="fill:#ffffff;stroke-width:0.40489447"
   d="M 228.20308,48.902182 V 34.89848 l 4.69223,0.136066 c 4.56502,0.132377 4.71869,0.166864 5.66852,1.272104 0.89018,1.035839 0.97629,1.491168 0.97629,5.162405 0,4.133677 -0.30814,4.994624 -2.07508,5.79778 -0.37163,0.168922 -0.40755,0.325223 -0.10803,0.470108 1.96602,0.95102 1.97414,0.982816 2.10855,8.252291 l 0.12789,6.91665 h -1.84869 -1.84869 v -6.242749 c 0,-3.433512 -0.11059,-6.530955 -0.24576,-6.883206 -0.1725,-0.449523 -0.77604,-0.640457 -2.02447,-0.640457 h -1.77871 v 6.883206 6.883206 h -1.82203 -1.82202 z m 7.44723,-3.642323 c 0.44365,-1.156146 0.26426,-6.062294 -0.24011,-6.566665 -0.26723,-0.26723 -1.17824,-0.485873 -2.02447,-0.485873 h -1.5386 v 3.846497 3.846498 h 1.77871 c 1.24843,0 1.85197,-0.190934 2.02447,-0.640457 z"
   id="path1725"
   inkscape:connector-curvature="0" /><path
   style="fill:#ffffff;stroke-width:0.40489447"
   d="m 241.96949,61.428302 c 0,-0.81267 1.27542,-6.251543 2.83426,-12.086383 1.55885,-5.83484 2.83426,-10.727105 2.83426,-10.8717 0,-0.144594 -1.09321,-0.262898 -2.42936,-0.262898 h -2.42937 v -1.619578 -1.619578 h 4.45384 c 4.36973,0 4.45384,0.01748 4.45384,0.925644 0,0.509104 -1.27302,5.929629 -2.82893,12.045611 -1.55592,6.115982 -2.83133,11.256618 -2.83426,11.423637 -0.003,0.167019 1.27008,0.303671 2.82893,0.303671 h 2.83426 v 1.619578 1.619578 h -4.85873 -4.85874 z"
   id="path1727"
   inkscape:connector-curvature="0" /><path
   style="fill:#ffffff;stroke-width:0.40489447"
   d="m 256.95059,58.113437 c 0,-4.275639 -0.21832,-5.767328 -2.02448,-13.832699 -1.11346,-4.972139 -2.02447,-9.101525 -2.02447,-9.176413 0,-0.07489 0.81991,-0.13616 1.82203,-0.13616 1.00211,0 1.82202,0.11641 1.82202,0.25869 0,0.217632 0.98014,6.2703 1.85762,11.471398 0.36474,2.161963 0.7565,0.917021 1.81188,-5.757894 l 0.94428,-5.972194 h 1.74205 c 0.95814,0 1.74206,0.169491 1.74206,0.376648 0,0.207156 -0.91101,4.319423 -2.02447,9.138372 -1.82663,7.90548 -2.02447,9.233788 -2.02447,13.592212 v 4.830487 h -1.82203 -1.82202 z"
   id="path1729"
   inkscape:connector-curvature="0" /><path
   style="fill:#ffffff;stroke-width:0.40489447"
   d="M 267.07295,48.937024 V 34.968165 h 2.58792 c 2.34928,0 2.60801,0.08401 2.80582,0.911013 0.11984,0.501056 0.63335,4.782816 1.14112,9.51502 0.50777,4.732204 1.06717,8.604007 1.24312,8.604007 0.17595,0 0.32235,-0.227753 0.32534,-0.506118 0.003,-0.278365 0.45712,-4.332371 1.00919,-9.008902 0.55207,-4.676531 1.00514,-8.730537 1.00681,-9.008902 0.002,-0.356403 0.84145,-0.506118 2.8373,-0.506118 h 2.83426 v 13.968859 13.96886 h -1.61957 -1.61958 v -9.987397 c 0,-5.493068 -0.12545,-9.861952 -0.27877,-9.708631 -0.15332,0.153321 -0.84022,4.6021 -1.52643,9.886174 l -1.24767,9.607407 -1.66374,0.122111 c -1.97237,0.144762 -1.63639,1.323738 -3.23671,-11.357933 -0.61122,-4.84355 -1.25819,-8.806455 -1.43773,-8.806455 -0.17953,0 -0.32642,4.555063 -0.32642,10.122362 v 10.122362 h -1.41713 -1.41713 z"
   id="path1731"
   inkscape:connector-curvature="0" /><path
   style="fill:#ffffff;stroke-width:0.40489447"
   d="m 286.18829,49.757552 c 0.11568,-12.983455 0.12846,-13.159643 1.01968,-14.050354 1.80947,-1.808455 8.3831,-1.388021 9.52661,0.6093 0.36378,0.635403 0.53814,4.436825 0.62994,13.733986 l 0.12694,12.8554 h -2.05019 -2.05018 v -3.036709 -3.036708 h -1.82203 -1.82202 v 3.036708 3.036709 h -1.83795 -1.83795 z m 7.2028,-3.849522 v -7.685281 l -1.0749,-0.269784 c -2.23277,-0.56039 -2.35648,-0.156222 -2.47686,8.092279 l -0.11016,7.548067 h 1.83096 1.83096 z"
   id="path1733"
   inkscape:connector-curvature="0" /><path
   style="fill:#ffffff;stroke-width:0.40489447"
   d="M 300.67919,48.937024 V 34.968165 l 2.1257,8.34e-4 2.12569,8.34e-4 2.02409,9.109293 c 1.11324,5.010108 2.16091,9.10929 2.32814,9.10929 0.16723,0 0.30406,-4.099556 0.30406,-9.110125 v -9.110126 h 1.61958 1.61957 v 13.990019 13.990019 l -2.11611,-0.122383 -2.11611,-0.122383 -2.07972,-8.615931 c -1.14385,-4.738763 -2.19582,-8.732034 -2.33773,-8.873938 -0.1419,-0.141903 -0.258,3.780817 -0.258,8.717155 v 8.975161 h -1.61958 -1.61958 z"
   id="path1735"
   inkscape:connector-curvature="0" /><path
   style="fill:#ffffff;stroke-width:0.40489447"
   d="M 316.47008,48.937024 V 34.968165 h 1.82202 1.82203 v 13.968859 13.96886 h -1.82203 -1.82202 z"
   id="path1737"
   inkscape:connector-curvature="0" /><path
   style="fill:#ffffff;stroke-width:0.40489447"
   d="M 325.52517,62.857566 C 323.8769,62.020679 323.75818,61.002479 323.75818,47.70329 V 34.968165 h 1.82202 1.82203 V 47.03402 c 0,8.844695 0.12971,12.195567 0.48587,12.551729 0.76989,0.769895 2.66889,0.590321 3.14393,-0.297297 0.26135,-0.488332 0.41914,-5.213662 0.41914,-12.551729 V 34.968165 h 1.82203 1.82202 l -0.01,11.843163 c -0.01,12.030717 -0.22781,14.480949 -1.39197,15.645411 -0.78958,0.789776 -6.8196,1.085671 -8.16842,0.400827 z"
   id="path1739"
   inkscape:connector-curvature="0" /><path
   style="fill:#ffffff;stroke-width:0.40489447"
   d="m 24.512215,100.05495 c -0.01592,-0.05567 -0.618027,-6.341657 -1.33802,-13.968857 L 21.865117,72.218457 h 1.876069 1.87607 l 0.480654,9.413797 c 0.26436,5.177588 0.477744,10.188157 0.474187,11.134598 -0.0036,0.946441 0.149779,1.720801 0.340747,1.720801 0.395025,0 0.536263,-1.237882 1.536055,-13.462741 l 0.720223,-8.806455 h 2.480898 2.480898 l 0.694635,10.223585 c 0.681713,10.033407 0.921935,12.31129 1.262422,11.970804 0.0937,-0.0937 0.452555,-4.351407 0.797459,-9.461574 0.344905,-5.110166 0.726045,-10.065573 0.846979,-11.012014 l 0.21988,-1.720801 h 1.797216 c 0.988469,0 1.797216,0.06407 1.797216,0.142373 0,0.301043 -2.824276,24.443376 -3.050315,26.074544 l -0.238459,1.720806 H 35.893149 33.528346 L 33.291857,97.828033 C 33.161788,96.547554 32.865921,92.311345 32.634374,88.414236 32.168692,80.576432 31.872936,77.708337 31.56241,78.018862 c -0.142314,0.142315 -2.045385,19.576223 -2.15789,22.036088 -0.0061,0.13234 -4.854467,0.13234 -4.892305,0 z"
   id="path1741"
   inkscape:connector-curvature="0" /><path
   style="fill:#ffffff;stroke-width:0.40489447"
   d="M 50.049509,86.187316 V 72.218457 h 4.271499 c 4.432827,0 6.301552,0.504659 6.814034,1.840165 0.138331,0.360488 0.251512,3.454509 0.251512,6.875603 0,5.868721 -0.05147,6.279648 -0.911012,7.272824 -0.773811,0.89412 -1.353107,1.0893 -3.846498,1.295987 l -2.935485,0.243333 v 5.204903 5.204908 h -1.822025 -1.822025 z m 7.490548,-5.263628 V 75.66006 l -1.923249,-0.123408 -1.923249,-0.123409 v 5.510445 5.510445 l 1.923249,-0.123408 1.923249,-0.123409 z"
   id="path1743"
   inkscape:connector-curvature="0" /><path
   style="fill:#ffffff;stroke-width:0.40489447"
   d="M 65.987808,100.08751 C 64.356767,99.297746 64.220816,98.212966 64.220816,85.988396 v -11.70031 l 0.978055,-1.136038 c 0.937714,-1.089181 1.129317,-1.136038 4.645351,-1.136038 3.276605,0 3.765515,0.09825 4.589244,0.922259 0.919101,0.919412 0.921948,0.960464 0.921948,13.295352 v 12.373091 l -1.136038,0.97718 c -0.996104,0.856808 -1.519781,0.973798 -4.251392,0.949778 -1.713445,-0.0151 -3.504524,-0.21585 -3.980176,-0.44616 z m 5.506863,-3.548766 c 0.255518,-0.477441 0.41914,-4.575724 0.41914,-10.498335 0,-8.292109 -0.0932,-9.808363 -0.636263,-10.351428 -0.755147,-0.755147 -2.245473,-0.831725 -2.926809,-0.150389 -0.691263,0.691263 -0.691263,20.606186 0,21.297449 0.769895,0.769894 2.668893,0.590321 3.143932,-0.297297 z"
   id="path1745"
   inkscape:connector-curvature="0" /><path
   style="fill:#ffffff;stroke-width:0.40489447"
   d="M 78.797017,86.187316 V 72.218457 h 1.822025 1.822025 V 84.567739 96.91702 h 2.22692 2.22692 v 1.619578 1.619582 h -4.048945 -4.048945 z"
   id="path1747"
   inkscape:connector-curvature="0" /><path
   style="fill:#ffffff;stroke-width:0.40489447"
   d="M 91.071544,100.1732 C 89.64387,99.565936 89.232751,98.254973 89.012458,93.607266 l -0.207757,-4.383241 h 1.879364 1.879364 v 3.01035 c 0,3.933854 0.438448,5.08754 1.933472,5.08754 1.83839,0 2.115473,-0.620484 2.115473,-4.737266 0,-4.292778 -0.197409,-4.647624 -3.528999,-6.343426 -1.065392,-0.542292 -2.392583,-1.474606 -2.949313,-2.071808 -0.956922,-1.026488 -1.012236,-1.337842 -1.012236,-5.697772 0,-4.259689 0.07044,-4.682359 0.92226,-5.533791 0.822117,-0.821745 1.315503,-0.921842 4.543816,-0.921842 4.934013,0 5.351476,0.40705 5.592738,5.453234 l 0.17484,3.656891 H 98.483925 96.612374 V 78.5753 c 0,-2.731408 -0.42092,-3.522582 -1.874083,-3.522582 -1.594334,0 -2.174862,1.034451 -2.174862,3.875419 0,2.992213 0.405887,3.588561 3.528999,5.184972 2.383293,1.218245 3.673914,2.403606 3.990522,3.665059 0.13267,0.528604 0.18042,3.250605 0.10612,6.048893 -0.17005,6.404119 -0.235838,6.492979 -4.906898,6.626979 -1.829346,0.0525 -3.724129,-0.0739 -4.210628,-0.28084 z"
   id="path1749"
   inkscape:connector-curvature="0" /><path
   style="fill:#ffffff;stroke-width:0.40489447"
   d="m 105.24285,100.15335 c -0.4865,-0.196015 -1.07866,-0.719095 -1.31591,-1.1624 -0.61629,-1.151556 -0.5864,-23.964758 0.0332,-25.324598 0.62352,-1.368483 2.66049,-1.980175 5.90592,-1.773521 2.27523,0.144876 2.7806,0.324627 3.604,1.28188 0.89138,1.0363 0.95768,1.448166 0.95768,5.949531 v 4.836155 h -1.82202 -1.82203 v -4.243678 -4.243678 l -1.0749,-0.269784 c -2.34141,-0.587656 -2.3667,-0.46765 -2.3667,11.230634 v 10.685576 h 1.61958 1.61957 l 0.11493,-4.352615 0.11492,-4.352616 h 1.80832 1.80833 v 4.637235 c 0,5.017431 -0.35989,6.364839 -1.88572,7.060059 -1.15884,0.528 -6.02331,0.55587 -7.29916,0.0418 z"
   id="path1751"
   inkscape:connector-curvature="0" /><path
   style="fill:#ffffff;stroke-width:0.40489447"
   d="M 117.66689,86.187316 V 72.218457 h 3.84649 3.8465 v 1.417131 c 0,1.409632 -0.01,1.41713 -1.82202,1.41713 h -1.82203 v 2.429367 2.429367 h 1.82203 c 1.81238,0 1.82202,0.0075 1.82202,1.417131 0,1.409632 -0.01,1.41713 -1.82202,1.41713 h -1.82203 v 7.085654 7.085653 h 1.82203 1.82202 v 1.619578 1.619582 h -3.8465 -3.84649 z"
   id="path1753"
   inkscape:connector-curvature="0" /><path
   style="fill:#ffffff;stroke-width:0.40489447"
   d="m 135.88714,99.869269 c 0,-0.179051 -0.54525,-6.154878 -1.21166,-13.279615 -0.66641,-7.124736 -1.21301,-13.272921 -1.21468,-13.662632 -0.002,-0.5703 0.35251,-0.708565 1.819,-0.708565 1.617,0 1.823,0.102512 1.83072,0.911013 0.0261,2.731233 1.20261,21.084883 1.36182,21.244093 0.27011,0.270106 0.56322,-2.285473 1.264,-11.020508 0.33945,-4.231147 0.71663,-8.467356 0.83817,-9.413797 l 0.22098,-1.720801 h 2.40456 c 1.3225,0 2.40456,0.05966 2.40456,0.132574 0,1.338988 1.68454,21.931661 1.80383,22.050953 0.29625,0.296242 0.5867,-2.370494 1.02701,-9.429351 0.23615,-3.785763 0.54086,-8.204174 0.67713,-9.818691 l 0.24777,-2.935485 h 1.76618 c 1.66245,0 1.76481,0.06539 1.74291,1.11346 -0.0128,0.612403 -0.69983,6.852839 -1.52672,13.867636 l -1.50345,12.754176 -2.46113,0.118961 -2.46113,0.11896 -0.24819,-3.358119 c -0.13651,-1.846963 -0.4694,-6.865512 -0.73975,-11.152333 -0.27035,-4.28682 -0.64166,-7.794218 -0.82514,-7.794218 -0.18347,0 -0.34611,0.501057 -0.36141,1.113459 -0.0153,0.612403 -0.42669,5.577422 -0.9142,11.033375 l -0.88638,9.919915 -2.5274,0.120541 c -1.39007,0.0663 -2.5274,-0.0259 -2.5274,-0.205001 z"
   id="path1755"
   inkscape:connector-curvature="0" /><path
   style="fill:#ffffff;stroke-width:0.40489447"
   d="M 161.80038,86.187316 V 72.218457 h 1.82203 1.82203 V 84.567739 96.91702 h 2.02447 2.02447 v 1.619578 1.619582 h -3.8465 -3.8465 z"
   id="path1757"
   inkscape:connector-curvature="0" /><path
   style="fill:#ffffff;stroke-width:0.40489447"
   d="M 172.32764,86.187316 V 72.218457 h 1.82203 1.82202 v 13.968859 13.968864 h -1.82202 -1.82203 z"
   id="path1759"
   inkscape:connector-curvature="0" /><path
   style="fill:#ffffff;stroke-width:0.40489447"
   d="m 180.54933,99.584506 -1.13604,-0.976565 -0.12941,-10.664151 c -0.14164,-11.67259 0.004,-13.611356 1.12807,-14.999318 0.68374,-0.844387 1.08403,-0.928462 4.4204,-0.928462 3.27754,0 3.76688,0.09828 4.59084,0.922049 0.84258,0.842396 0.9346,1.358314 1.06511,5.972193 l 0.14286,5.050145 h -1.86366 -1.86366 v -4.034699 c 0,-3.574597 -0.0893,-4.082497 -0.78317,-4.453839 -1.09849,-0.587895 -1.88984,-0.522552 -2.62951,0.217122 -0.54306,0.543065 -0.63626,2.059319 -0.63626,10.351428 0,5.922611 0.16362,10.020894 0.41914,10.498335 0.47504,0.887618 2.37403,1.067191 3.14393,0.297297 0.3118,-0.311796 0.48587,-1.907503 0.48587,-4.453839 v -3.967966 h 1.86366 1.86366 l -0.14286,5.096361 c -0.14029,5.005036 -0.16321,5.113869 -1.27889,6.073417 -0.99323,0.854236 -1.53756,0.977056 -4.33004,0.977056 -2.79188,0 -3.33702,-0.12295 -4.33004,-0.976564 z"
   id="path1761"
   inkscape:connector-curvature="0" /><path
   style="fill:#ffffff;stroke-width:0.40489447"
   d="m 192.98127,98.232927 c 0.002,-1.091654 1.20434,-6.387599 2.78004,-12.248058 l 2.77604,-10.324809 -2.5776,-0.119723 -2.5776,-0.119723 v -1.601079 -1.601078 h 4.45384 4.45384 v 1.330539 c 0,0.731796 -1.2589,6.288973 -2.79756,12.349281 l -2.79756,11.018743 h 2.79756 2.79756 v 1.619578 1.619582 h -4.65628 -4.65629 l 0.004,-1.923253 z"
   id="path1763"
   inkscape:connector-curvature="0" /><path
   style="fill:#ffffff;stroke-width:0.40489447"
   d="M 205.12409,86.152474 V 72.148772 l 4.69223,0.136066 c 4.56502,0.132377 4.7187,0.166864 5.66853,1.272104 0.86653,1.008319 0.97629,1.523924 0.97629,4.586209 0,3.293663 -0.0551,3.505271 -1.21468,4.664854 -1.44016,1.440158 -1.43181,1.40606 -0.40977,1.673329 1.27226,0.332706 1.62445,1.985478 1.62445,7.623418 0,5.731311 -0.43655,7.343846 -2.10948,7.791984 -0.50998,0.136614 -2.79481,0.250874 -5.0774,0.253914 l -4.15017,0.006 z m 7.44723,10.124089 c 0.31979,-0.833362 0.31979,-9.222769 0,-10.056131 -0.1725,-0.449523 -0.77603,-0.640457 -2.02447,-0.640457 h -1.77871 v 5.668522 5.668523 h 1.77871 c 1.24844,0 1.85197,-0.190934 2.02447,-0.640457 z m 0,-14.576201 c 0.43408,-1.131187 0.2621,-5.254674 -0.2401,-5.756876 -0.26723,-0.26723 -1.17825,-0.485873 -2.02448,-0.485873 h -1.5386 v 3.441603 3.441603 h 1.77871 c 1.24844,0 1.85197,-0.190934 2.02447,-0.640457 z"
   id="path1765"
   inkscape:connector-curvature="0" /><path
   style="fill:#ffffff;stroke-width:0.40489447"
   d="m 219.7003,86.997105 c 0,-12.493373 0.0398,-13.198894 0.7872,-13.946275 1.01092,-1.010922 3.14946,-1.403506 6.03461,-1.107813 1.79135,0.18359 2.48616,0.463702 3.19932,1.289796 0.90372,1.046823 0.91102,1.158838 0.91102,13.989318 v 12.934049 h -1.82203 -1.82202 v -3.036713 -3.036708 h -1.82203 -1.82202 v 3.036708 3.036713 h -1.82203 -1.82202 z m 7.19581,-3.701569 c -0.12038,-8.248501 -0.24409,-8.652669 -2.47686,-8.092279 l -1.0749,0.269784 v 7.685281 7.685281 h 1.83095 1.83096 z"
   id="path1767"
   inkscape:connector-curvature="0" /><path
   style="fill:#ffffff;stroke-width:0.40489447"
   d="m 235.21009,99.583696 -1.13604,-0.977374 v -12.37308 c 0,-12.336245 0.003,-12.375825 0.92226,-13.295156 0.82024,-0.820077 1.31723,-0.922076 4.49283,-0.922076 2.41304,0 3.78539,0.178284 4.23322,0.549943 1.02605,0.851552 1.48156,3.13726 1.48403,7.446723 l 0.002,3.947721 h -1.82203 -1.82202 v -4.034699 c 0,-3.574597 -0.0893,-4.082497 -0.78317,-4.453839 -1.09849,-0.587895 -1.88984,-0.522552 -2.62951,0.217122 -0.54412,0.544114 -0.63627,2.086346 -0.63627,10.648725 0,10.70402 0.0516,10.984209 2.02447,10.984209 1.75672,0 2.02448,-0.653323 2.02448,-4.939713 v -3.967966 h 1.82202 1.82203 l -0.0229,4.150168 c -0.0381,6.925346 -0.82056,7.980236 -5.92677,7.990696 -2.50066,0.005 -3.07368,-0.13235 -4.04894,-0.971404 z"
   id="path1769"
   inkscape:connector-curvature="0" /><path
   style="fill:#ffffff;stroke-width:0.40489447"
   d="M 248.4478,86.187316 V 72.218457 h 1.82203 1.82202 v 4.656286 4.656287 h 2.02448 2.02447 v -4.656287 -4.656286 h 1.82202 1.82203 v 13.968859 13.968864 h -1.82203 -1.82202 v -7.692999 -7.692995 h -2.02447 -2.02448 v 7.692995 7.692999 h -1.82202 -1.82203 z"
   id="path1771"
   inkscape:connector-curvature="0" /></svg>