<?xml version="1.0" encoding="UTF-8" standalone="no"?>
<!-- Generator: Adobe Illustrator 16.0.0, SVG Export Plug-In . SVG Version: 6.00 Build 0)  -->

<svg
   xmlns:dc="http://purl.org/dc/elements/1.1/"
   xmlns:cc="http://creativecommons.org/ns#"
   xmlns:rdf="http://www.w3.org/1999/02/22-rdf-syntax-ns#"
   xmlns:svg="http://www.w3.org/2000/svg"
   xmlns="http://www.w3.org/2000/svg"
   xmlns:sodipodi="http://sodipodi.sourceforge.net/DTD/sodipodi-0.dtd"
   xmlns:inkscape="http://www.inkscape.org/namespaces/inkscape"
   version="1.1"
   id="Warstwa_1"
   x="0px"
   y="0px"
   width="295"
   height="144.03999"
   viewBox="0 0 295 144.03999"
   enable-background="new 0 0 694 85.04"
   xml:space="preserve"
   sodipodi:docname="sm-podejmijdzialania.svg"
   inkscape:version="0.92.2 2405546, 2018-03-11"><metadata
   id="metadata972"><rdf:RDF><cc:Work
       rdf:about=""><dc:format>image/svg+xml</dc:format><dc:type
         rdf:resource="http://purl.org/dc/dcmitype/StillImage" /><dc:title></dc:title></cc:Work></rdf:RDF></metadata><defs
   id="defs970">
	
	
	
	
	
	
	
	
	
	
	
	
	
	
	
	
	
	
	
	
	
	
	
	
	
	
	
	
	
	
	
	
	
	
	
	
</defs><sodipodi:namedview
   pagecolor="#ffffff"
   bordercolor="#666666"
   borderopacity="1"
   objecttolerance="10"
   gridtolerance="10"
   guidetolerance="10"
   inkscape:pageopacity="0"
   inkscape:pageshadow="2"
   inkscape:window-width="1600"
   inkscape:window-height="857"
   id="namedview968"
   showgrid="false"
   inkscape:zoom="1.2348897"
   inkscape:cx="5.1204345"
   inkscape:cy="104.89588"
   inkscape:window-x="0"
   inkscape:window-y="43"
   inkscape:window-maximized="0"
   inkscape:current-layer="Warstwa_1" />
<polygon
   stroke-miterlimit="10"
   points="44,77 44,17 648,10 648,74 "
   id="polygon891"
   transform="matrix(0.48111407,0,0,2.1478887,-18.439823,-20.341385)"
   style="stroke:#ffffff;stroke-miterlimit:10" />
<path
   style="fill:#ffffff"
   inkscape:connector-curvature="0"
   id="path893"
   d="m 28.95557,61.591622 v 10.764 h -4.14 v -28.44 h 5.904 c 1.224,0 2.22,0.066 2.988,0.198 0.768,0.133 1.374,0.402 1.818,0.811 0.444,0.408 0.744,0.989 0.9,1.746 0.156,0.756 0.234,1.77 0.234,3.042 v 6.084 c 0,1.271 -0.084,2.292 -0.252,3.06 -0.168,0.769 -0.474,1.356 -0.918,1.764 -0.444,0.409 -1.05,0.673 -1.818,0.792 -0.769,0.121 -1.752,0.181 -2.952,0.181 h -1.764 z m 0,-14.076 v 10.728 h 1.764 c 0.36,0 0.66,-0.029 0.9,-0.09 0.239,-0.06 0.419,-0.174 0.54,-0.342 0.12,-0.168 0.204,-0.401 0.252,-0.702 0.048,-0.3 0.072,-0.689 0.072,-1.17 v -6.228 c 0,-0.456 -0.018,-0.828 -0.054,-1.116 -0.036,-0.288 -0.114,-0.51 -0.234,-0.666 -0.12,-0.156 -0.294,-0.264 -0.522,-0.324 -0.228,-0.06 -0.546,-0.09 -0.954,-0.09 z" /><path
   style="fill:#ffffff"
   inkscape:connector-curvature="0"
   id="path895"
   d="m 50.66357,66.702622 c 0,1.32 -0.078,2.376 -0.234,3.168 -0.156,0.792 -0.456,1.398 -0.9,1.818 -0.444,0.42 -1.05,0.696 -1.818,0.828 -0.769,0.132 -1.764,0.198 -2.988,0.198 -1.224,0 -2.22,-0.066 -2.988,-0.198 -0.768,-0.132 -1.368,-0.408 -1.8,-0.828 -0.432,-0.42 -0.726,-1.026 -0.882,-1.818 -0.156,-0.792 -0.234,-1.848 -0.234,-3.168 v -17.172 c 0,-1.319 0.078,-2.369 0.234,-3.149 0.156,-0.78 0.45,-1.38 0.882,-1.801 0.432,-0.419 1.032,-0.695 1.8,-0.827 0.768,-0.132 1.764,-0.198 2.988,-0.198 1.224,0 2.219,0.066 2.988,0.198 0.768,0.132 1.374,0.408 1.818,0.827 0.444,0.421 0.744,1.021 0.9,1.801 0.156,0.78 0.234,1.83 0.234,3.149 z m -4.177,-17.172 c 0,-0.959 -0.108,-1.577 -0.324,-1.854 -0.216,-0.276 -0.696,-0.414 -1.44,-0.414 -0.384,0 -0.69,0.03 -0.918,0.09 -0.229,0.061 -0.409,0.175 -0.54,0.342 -0.132,0.168 -0.216,0.402 -0.252,0.702 -0.036,0.301 -0.054,0.679 -0.054,1.134 v 17.172 c 0,0.504 0.018,0.906 0.054,1.206 0.036,0.301 0.12,0.534 0.252,0.702 0.131,0.168 0.312,0.282 0.54,0.342 0.228,0.061 0.534,0.091 0.918,0.091 0.383,0 0.689,-0.03 0.918,-0.091 0.228,-0.06 0.408,-0.18 0.54,-0.359 0.131,-0.181 0.216,-0.42 0.252,-0.721 0.036,-0.3 0.054,-0.689 0.054,-1.17 z" /><path
   style="fill:#ffffff"
   inkscape:connector-curvature="0"
   id="path897"
   d="m 65.38657,66.523622 c 0,1.272 -0.079,2.292 -0.234,3.06 -0.156,0.769 -0.456,1.356 -0.9,1.765 -0.444,0.408 -1.05,0.678 -1.818,0.81 -0.769,0.133 -1.764,0.198 -2.988,0.198 h -5.904 v -28.44 h 5.904 c 1.224,0 2.22,0.066 2.988,0.198 0.768,0.133 1.374,0.402 1.818,0.811 0.444,0.408 0.744,0.989 0.9,1.746 0.156,0.756 0.234,1.77 0.234,3.042 z m -4.176,-16.812 c 0,-0.456 -0.024,-0.828 -0.072,-1.116 -0.048,-0.288 -0.132,-0.516 -0.252,-0.685 -0.121,-0.167 -0.294,-0.275 -0.522,-0.323 -0.228,-0.048 -0.534,-0.072 -0.918,-0.072 h -1.764 v 21.275 h 1.764 c 0.384,0 0.69,-0.029 0.918,-0.09 0.228,-0.06 0.402,-0.167 0.522,-0.323 0.12,-0.156 0.204,-0.384 0.252,-0.685 0.048,-0.3 0.072,-0.689 0.072,-1.17 z" /><path
   style="fill:#ffffff"
   inkscape:connector-curvature="0"
   id="path899"
   d="m 76.40257,72.355622 h -8.136 v -28.44 h 8.1 v 3.421 h -3.96 v 4.14 h 3.852 v 3.276 h -3.852 v 14.039 h 3.996 z" /><path
   style="fill:#ffffff"
   inkscape:connector-curvature="0"
   id="path901"
   d="m 77.77057,60.114622 h 3.78 v 6.588 c 0,0.984 0.108,1.62 0.324,1.908 0.216,0.288 0.672,0.433 1.368,0.433 0.72,0 1.182,-0.15 1.386,-0.45 0.204,-0.3 0.306,-0.93 0.306,-1.891 v -22.788 h 4.176 v 22.788 c 0,1.32 -0.079,2.376 -0.234,3.168 -0.156,0.792 -0.444,1.398 -0.864,1.818 -0.42,0.42 -1.008,0.696 -1.764,0.828 -0.756,0.132 -1.734,0.198 -2.934,0.198 -1.128,0 -2.052,-0.066 -2.772,-0.198 -0.72,-0.132 -1.284,-0.408 -1.692,-0.828 -0.408,-0.42 -0.69,-1.026 -0.846,-1.818 -0.156,-0.792 -0.234,-1.848 -0.234,-3.168 z" /><path
   style="fill:#ffffff"
   inkscape:connector-curvature="0"
   id="path903"
   d="m 108.37057,43.914622 v 28.44 h -3.384 v -20.087 h -0.144 l -2.628,20.088 h -3.708 l -2.628,-20.232 h -0.144 v 20.232 h -3.42 v -28.44 h 5.796 l 2.16,19.116 h 0.144 l 2.196,-19.116 h 5.76 z" /><path
   style="fill:#ffffff"
   inkscape:connector-curvature="0"
   id="path905"
   d="m 115.78558,72.355622 h -4.14001 v -28.44 h 4.14001 z" /><path
   style="fill:#ffffff"
   inkscape:connector-curvature="0"
   id="path907"
   d="m 117.98158,60.114622 h 3.78 v 6.588 c 0,0.984 0.108,1.62 0.324,1.908 0.216,0.288 0.672,0.433 1.368,0.433 0.72,0 1.182,-0.15 1.386,-0.45 0.204,-0.3 0.306,-0.93 0.306,-1.891 v -22.788 h 4.176 v 22.788 c 0,1.32 -0.079,2.376 -0.234,3.168 -0.156,0.792 -0.444,1.398 -0.864,1.818 -0.42,0.42 -1.008,0.696 -1.764,0.828 -0.756,0.132 -1.734,0.198 -2.934,0.198 -1.128,0 -2.052,-0.066 -2.772,-0.198 -0.72,-0.132 -1.284,-0.408 -1.692,-0.828 -0.408,-0.42 -0.69,-1.026 -0.846,-1.818 -0.156,-0.792 -0.234,-1.848 -0.234,-3.168 z" /><path
   style="fill:#ffffff"
   inkscape:connector-curvature="0"
   id="path909"
   d="m 150.56158,66.523622 c 0,1.272 -0.079,2.292 -0.234,3.06 -0.156,0.769 -0.456,1.356 -0.9,1.765 -0.444,0.408 -1.05,0.678 -1.818,0.81 -0.769,0.133 -1.764,0.198 -2.988,0.198 h -5.904 v -28.44 h 5.904 c 1.224,0 2.22,0.066 2.988,0.198 0.768,0.133 1.374,0.402 1.818,0.811 0.444,0.408 0.744,0.989 0.9,1.746 0.156,0.756 0.234,1.77 0.234,3.042 z m -4.177,-16.812 c 0,-0.456 -0.024,-0.828 -0.072,-1.116 -0.048,-0.288 -0.132,-0.516 -0.252,-0.685 -0.121,-0.167 -0.294,-0.275 -0.522,-0.323 -0.228,-0.048 -0.534,-0.072 -0.918,-0.072 h -1.764 v 21.275 h 1.764 c 0.384,0 0.69,-0.029 0.918,-0.09 0.228,-0.06 0.402,-0.167 0.522,-0.323 0.12,-0.156 0.204,-0.384 0.252,-0.685 0.048,-0.3 0.072,-0.689 0.072,-1.17 z" /><path
   style="fill:#ffffff"
   inkscape:connector-curvature="0"
   id="path911"
   d="m 162.47658,72.355622 h -9.972 v -3.6 l 5.724,-21.385 h -5.148 v -3.456 h 9.324 v 2.809 l -5.58,22.067 h 5.652 z" /><path
   style="fill:#ffffff"
   inkscape:connector-curvature="0"
   id="path913"
   d="m 168.95658,72.355622 h -4.14 v -28.44 h 4.14 z" /><path
   style="fill:#ffffff"
   inkscape:connector-curvature="0"
   id="path915"
   d="m 179.54058,72.355622 v -6.336 h -3.492 v 6.336 h -4.032 v -22.825 c 0,-1.319 0.078,-2.369 0.234,-3.149 0.156,-0.78 0.45,-1.38 0.882,-1.801 0.432,-0.419 1.026,-0.695 1.782,-0.827 0.756,-0.132 1.722,-0.198 2.898,-0.198 1.176,0 2.142,0.072 2.898,0.216 0.756,0.144 1.355,0.432 1.8,0.864 0.444,0.432 0.75,1.038 0.918,1.817 0.168,0.78 0.252,1.807 0.252,3.078 v 22.824 h -4.14 z m -1.764,-25.092 c -0.36,0 -0.654,0.03 -0.882,0.09 -0.229,0.061 -0.409,0.168 -0.54,0.324 -0.132,0.156 -0.216,0.384 -0.252,0.684 -0.036,0.301 -0.054,0.69 -0.054,1.17 v 13.104 h 3.492 v -13.105 c 0,-0.479 -0.024,-0.869 -0.072,-1.17 -0.048,-0.3 -0.132,-0.527 -0.252,-0.684 -0.12,-0.157 -0.3,-0.264 -0.54,-0.324 -0.24,-0.059 -0.54,-0.089 -0.9,-0.089 z" /><path
   style="fill:#ffffff"
   inkscape:connector-curvature="0"
   id="path917"
   d="m 193.75958,52.986622 -2.988,1.368 v 14.4 h 4.248 v 3.6 h -8.352 v -16.343 l -1.332,0.54 v -3.276 l 1.332,-0.54 v -8.82 h 4.104 v 7.164 l 2.988,-1.367 z" /><path
   style="fill:#ffffff"
   inkscape:connector-curvature="0"
   id="path919"
   d="m 204.37958,72.355622 v -6.336 h -3.492 v 6.336 h -4.032 v -22.825 c 0,-1.319 0.078,-2.369 0.234,-3.149 0.156,-0.78 0.45,-1.38 0.882,-1.801 0.432,-0.419 1.026,-0.695 1.782,-0.827 0.756,-0.132 1.722,-0.198 2.898,-0.198 1.176,0 2.142,0.072 2.898,0.216 0.756,0.144 1.355,0.432 1.8,0.864 0.444,0.432 0.75,1.038 0.918,1.817 0.168,0.78 0.252,1.807 0.252,3.078 v 22.824 h -4.14 z m -1.764,-25.092 c -0.36,0 -0.654,0.03 -0.882,0.09 -0.229,0.061 -0.409,0.168 -0.54,0.324 -0.132,0.156 -0.216,0.384 -0.252,0.684 -0.036,0.301 -0.054,0.69 -0.054,1.17 v 13.104 h 3.492 v -13.105 c 0,-0.479 -0.024,-0.869 -0.072,-1.17 -0.048,-0.3 -0.132,-0.527 -0.252,-0.684 -0.12,-0.157 -0.3,-0.264 -0.54,-0.324 -0.241,-0.059 -0.54,-0.089 -0.9,-0.089 z" /><path
   style="fill:#ffffff"
   inkscape:connector-curvature="0"
   id="path921"
   d="m 219.49958,72.355622 -4.284,-17.748 h -0.144 v 17.748 h -3.564 v -28.44 h 4.572 l 4.104,18.252 h 0.144 v -18.253 h 3.6 v 28.44 h -4.428 z" /><path
   style="fill:#ffffff"
   inkscape:connector-curvature="0"
   id="path923"
   d="m 231.34258,72.355622 h -4.14 v -28.44 h 4.14 z" /><path
   style="fill:#ffffff"
   inkscape:connector-curvature="0"
   id="path925"
   d="m 242.75458,72.355622 h -8.136 v -28.44 h 8.1 v 3.421 h -3.96 v 4.14 h 3.852 v 3.276 h -3.852 v 14.039 h 3.996 z" /><path
   style="fill:#ffffff"
   inkscape:connector-curvature="0"
   id="path927"
   d="m 248.98158,73.038622 c 0,1.009 -0.252,1.782 -0.756,2.322 -0.504,0.54 -1.38,0.811 -2.628,0.811 h -0.396 v -1.692 h 0.468 c 0.384,0 0.672,-0.097 0.864,-0.288 0.192,-0.192 0.288,-0.54 0.288,-1.044 v -0.792 h -1.62 v -4.752 h 3.78 z" /><path
   style="fill:#ffffff"
   inkscape:connector-curvature="0"
   id="path929"
   d="m 32.025809,92.068916 v -3.528 c 0,-0.504 -0.018,-0.912 -0.054,-1.224 -0.036,-0.313 -0.114,-0.546 -0.234,-0.702 -0.121,-0.156 -0.3,-0.264 -0.54,-0.324 -0.24,-0.06 -0.552,-0.09 -0.936,-0.09 -0.408,0 -0.726,0.03 -0.954,0.09 -0.228,0.061 -0.402,0.168 -0.522,0.324 -0.12,0.156 -0.198,0.39 -0.234,0.702 -0.036,0.312 -0.054,0.72 -0.054,1.224 v 2.808 c 0,0.36 0.024,0.661 0.072,0.9 0.048,0.24 0.149,0.456 0.306,0.647 0.156,0.192 0.383,0.385 0.684,0.576 0.3,0.192 0.714,0.421 1.242,0.685 1.248,0.647 2.232,1.2 2.952,1.655 0.72,0.457 1.26,0.919 1.62,1.387 0.36,0.468 0.587,0.996 0.683,1.584 0.096,0.588 0.145,1.349994 0.145,2.285994 v 4.571 c 0,1.32 -0.078,2.376 -0.234,3.168 -0.156,0.792 -0.449,1.398 -0.881,1.818 -0.432,0.42 -1.039,0.696 -1.818,0.828 -0.779,0.132 -1.782,0.198 -3.006,0.198 -1.152,0 -2.1,-0.066 -2.844,-0.198 -0.744,-0.132 -1.332,-0.408 -1.764,-0.828 -0.432,-0.42 -0.732,-1.026 -0.9,-1.818 -0.168,-0.792 -0.252,-1.848 -0.252,-3.168 v -5.650999 h 4.032 v 5.650999 c 0,0.504 0.018,0.906 0.054,1.206 0.036,0.301 0.113,0.534 0.234,0.702 0.12,0.168 0.293,0.282 0.522,0.342 0.228,0.061 0.534,0.091 0.918,0.091 0.768,0 1.254,-0.145 1.458,-0.433 0.204,-0.288 0.306,-0.924 0.306,-1.908 v -4.283 c 0,-0.48 -0.018,-0.876 -0.054,-1.188 -0.036,-0.311999 -0.132,-0.587999 -0.288,-0.827994 -0.156,-0.239 -0.39,-0.462 -0.702,-0.666 -0.313,-0.203 -0.732,-0.45 -1.26,-0.738 -1.248,-0.647 -2.226,-1.199 -2.934,-1.655 -0.708,-0.456 -1.242,-0.918 -1.602,-1.387 -0.36,-0.468 -0.588,-0.983 -0.684,-1.548 -0.096,-0.563 -0.144,-1.254 -0.144,-2.069 v -2.736 c 0,-1.319 0.078,-2.376 0.234,-3.168 0.156,-0.792 0.45,-1.404 0.882,-1.836 0.432,-0.433 1.032,-0.714 1.8,-0.846 0.768,-0.132 1.764,-0.198 2.988,-0.198 1.2,0 2.178,0.066 2.934,0.198 0.756,0.132 1.344,0.413 1.764,0.846 0.419,0.432 0.708,1.044 0.864,1.836 0.155,0.792 0.233,1.849 0.233,3.168 v 3.528 h -4.032 z" /><path
   style="fill:#ffffff"
   inkscape:connector-curvature="0"
   id="path931"
   d="m 51.212809,82.851916 -4.248,11.809 4.824,16.631994 h -4.5 l -3.924,-14.939994 h -0.181 v 14.939994 h -4.176 V 82.887916 h 4.176 v 10.729 h 0.181 l 3.492,-10.765 z" /><path
   style="fill:#ffffff"
   inkscape:connector-curvature="0"
   id="path933"
   d="m 64.929809,105.63991 c 0,1.32 -0.078,2.376 -0.234,3.168 -0.156,0.792 -0.457,1.398 -0.9,1.818 -0.444,0.42 -1.05,0.696 -1.818,0.828 -0.768,0.132 -1.764,0.198 -2.987,0.198 -1.223,0 -2.22,-0.066 -2.988,-0.198 -0.768,-0.132 -1.368,-0.408 -1.8,-0.828 -0.432,-0.42 -0.727,-1.026 -0.883,-1.818 -0.156,-0.792 -0.233,-1.848 -0.233,-3.168 V 88.467916 c 0,-1.319 0.077,-2.369 0.233,-3.149 0.156,-0.78 0.451,-1.38 0.883,-1.801 0.432,-0.419 1.031,-0.695 1.8,-0.827 0.769,-0.132 1.765,-0.198 2.988,-0.198 1.223,0 2.22,0.066 2.987,0.198 0.769,0.132 1.374,0.408 1.818,0.827 0.443,0.421 0.744,1.021 0.9,1.801 0.156,0.78 0.234,1.83 0.234,3.149 z m -4.176,-17.171994 c 0,-0.959 -0.108,-1.577 -0.323,-1.854 -0.217,-0.276 -0.697,-0.414 -1.44,-0.414 -0.384,0 -0.69,0.03 -0.918,0.09 -0.229,0.061 -0.409,0.175 -0.54,0.342 -0.133,0.168 -0.217,0.402 -0.252,0.702 -0.036,0.301 -0.055,0.679 -0.055,1.134 v 17.171994 c 0,0.504 0.019,0.906 0.055,1.206 0.035,0.301 0.119,0.534 0.252,0.702 0.131,0.168 0.312,0.282 0.54,0.342 0.228,0.061 0.534,0.091 0.918,0.091 0.384,0 0.689,-0.03 0.918,-0.091 0.228,-0.06 0.407,-0.18 0.54,-0.359 0.131,-0.181 0.216,-0.42 0.252,-0.721 0.035,-0.3 0.054,-0.689 0.054,-1.17 V 88.467916 Z" /><path
   style="fill:#ffffff"
   inkscape:connector-curvature="0"
   id="path935"
   d="m 75.800809,111.29291 -4.284,-17.747994 h -0.144 v 17.747994 h -3.564 V 82.852916 h 4.572 l 4.104,18.251994 h 0.145 V 82.851916 h 3.6 v 28.439994 h -4.429 z" /><path
   style="fill:#ffffff"
   inkscape:connector-curvature="0"
   id="path937"
   d="m 92.647807,86.307916 h -3.095998 v 24.983994 h -4.14 V 86.307916 h -3.133 v -3.456 h 10.367998 v 3.456 z" /><path
   style="fill:#ffffff"
   inkscape:connector-curvature="0"
   id="path939"
   d="m 101.75581,111.29291 v -6.336 h -3.491003 v 6.336 h -4.032 V 88.467916 c 0,-1.319 0.077,-2.369 0.233,-3.149 0.156,-0.78 0.45,-1.38 0.883,-1.801 0.432,-0.419 1.025,-0.695 1.781,-0.827 0.757,-0.132 1.723,-0.198 2.898003,-0.198 1.175,0 2.142,0.072 2.897,0.216 0.757,0.144 1.356,0.432 1.801,0.864 0.443,0.432 0.749,1.038 0.918,1.817 0.167,0.78 0.252,1.807 0.252,3.078 v 22.823994 h -4.14 z M 99.992807,86.200916 c -0.36,0 -0.654,0.03 -0.882,0.09 -0.229,0.061 -0.408,0.168 -0.54,0.324 -0.132,0.156 -0.216,0.384 -0.252,0.684 -0.036,0.301 -0.054,0.69 -0.054,1.17 v 13.103994 h 3.491003 V 88.467916 c 0,-0.479 -0.023,-0.869 -0.071,-1.17 -0.049,-0.3 -0.133,-0.527 -0.252,-0.684 -0.121,-0.156 -0.301,-0.264 -0.54,-0.324 -0.24,-0.059 -0.54,-0.089 -0.900003,-0.089 z" /><path
   style="fill:#ffffff"
   inkscape:connector-curvature="0"
   id="path941"
   d="m 121.08781,82.851916 -4.248,11.809 4.824,16.631994 h -4.5 l -3.924,-14.939994 h -0.181 v 14.939994 h -4.176 V 82.887916 h 4.176 v 10.729 h 0.181 l 3.491,-10.765 z" /><path
   style="fill:#ffffff"
   inkscape:connector-curvature="0"
   id="path943"
   d="m 132.71481,86.307916 h -3.096 v 24.983994 h -4.14 V 86.307916 h -3.133 v -3.456 h 10.368 v 3.456 z" /><path
   style="fill:#ffffff"
   inkscape:connector-curvature="0"
   id="path945"
   d="m 140.49081,111.65291 c -1.2,0 -2.178,-0.066 -2.934,-0.198 -0.756,-0.132 -1.35,-0.408 -1.782,-0.828 -0.432,-0.42 -0.732,-1.026 -0.899,-1.818 -0.169,-0.792 -0.252,-1.848 -0.252,-3.168 V 82.851916 h 4.14 v 22.787994 c 0,0.504 0.023,0.906 0.072,1.206 0.048,0.301 0.138,0.528 0.27,0.685 0.132,0.157 0.312,0.264 0.54,0.323 0.228,0.061 0.534,0.091 0.918,0.091 0.36,0 0.653,-0.03 0.882,-0.091 0.229,-0.06 0.402,-0.167 0.522,-0.323 0.12,-0.156 0.203,-0.384 0.252,-0.685 0.048,-0.3 0.072,-0.702 0.072,-1.206 V 82.851916 h 4.031 v 22.787994 c 0,1.32 -0.084,2.376 -0.252,3.168 -0.168,0.792 -0.468,1.398 -0.899,1.818 -0.433,0.42 -1.026,0.696 -1.782,0.828 -0.756,0.132 -1.723,0.199 -2.899,0.199 z" /><path
   style="fill:#ffffff"
   inkscape:connector-curvature="0"
   id="path947"
   d="m 148.26681,99.051916 h 3.78 v 6.587994 c 0,0.984 0.107,1.62 0.324,1.908 0.216,0.288 0.671,0.433 1.367,0.433 0.721,0 1.183,-0.15 1.387,-0.45 0.203,-0.3 0.306,-0.93 0.306,-1.891 V 82.851916 h 4.176 v 22.787994 c 0,1.32 -0.078,2.376 -0.233,3.168 -0.156,0.792 -0.444,1.398 -0.864,1.818 -0.42,0.42 -1.008,0.696 -1.764,0.828 -0.757,0.132 -1.734,0.198 -2.935,0.198 -1.128,0 -2.052,-0.066 -2.771,-0.198 -0.721,-0.132 -1.284,-0.408 -1.692,-0.828 -0.408,-0.42 -0.69,-1.026 -0.846,-1.818 -0.156,-0.792 -0.234,-1.848 -0.234,-3.168 v -6.587994 z" /><path
   style="fill:#ffffff"
   inkscape:connector-curvature="0"
   id="path949"
   d="m 176.30981,92.068916 v -3.528 c 0,-0.504 -0.018,-0.912 -0.054,-1.224 -0.036,-0.313 -0.114,-0.546 -0.234,-0.702 -0.12,-0.156 -0.3,-0.264 -0.539,-0.324 -0.24,-0.06 -0.553,-0.09 -0.937,-0.09 -0.408,0 -0.727,0.03 -0.954,0.09 -0.229,0.061 -0.402,0.168 -0.521,0.324 -0.121,0.156 -0.198,0.39 -0.234,0.702 -0.036,0.312 -0.054,0.72 -0.054,1.224 v 2.808 c 0,0.36 0.023,0.661 0.071,0.9 0.048,0.24 0.15,0.456 0.307,0.647 0.155,0.192 0.384,0.385 0.684,0.576 0.3,0.192 0.714,0.421 1.242,0.685 1.248,0.647 2.232,1.2 2.952,1.655 0.72,0.457 1.26,0.919 1.62,1.387 0.359,0.468 0.588,0.996 0.684,1.584 0.096,0.588 0.145,1.349994 0.145,2.285994 v 4.571 c 0,1.32 -0.078,2.376 -0.234,3.168 -0.156,0.792 -0.45,1.398 -0.882,1.818 -0.433,0.42 -1.038,0.696 -1.818,0.828 -0.78,0.132 -1.782,0.198 -3.006,0.198 -1.152,0 -2.101,-0.066 -2.844,-0.198 -0.744,-0.132 -1.332,-0.408 -1.765,-0.828 -0.432,-0.42 -0.731,-1.026 -0.899,-1.818 -0.168,-0.792 -0.252,-1.848 -0.252,-3.168 v -5.650999 h 4.032 v 5.650999 c 0,0.504 0.018,0.906 0.054,1.206 0.036,0.301 0.113,0.534 0.234,0.702 0.119,0.168 0.293,0.282 0.521,0.342 0.228,0.061 0.534,0.091 0.918,0.091 0.768,0 1.254,-0.145 1.458,-0.433 0.204,-0.288 0.306,-0.924 0.306,-1.908 v -4.283 c 0,-0.48 -0.018,-0.876 -0.054,-1.188 -0.036,-0.311999 -0.132,-0.587999 -0.288,-0.827994 -0.156,-0.239 -0.391,-0.462 -0.702,-0.666 -0.312,-0.203 -0.732,-0.45 -1.26,-0.738 -1.248,-0.647 -2.227,-1.199 -2.934,-1.655 -0.708,-0.456 -1.242,-0.918 -1.603,-1.387 -0.359,-0.468 -0.588,-0.983 -0.684,-1.548 -0.097,-0.563 -0.145,-1.254 -0.145,-2.069 v -2.736 c 0,-1.319 0.078,-2.376 0.234,-3.168 0.156,-0.792 0.45,-1.404 0.882,-1.836 0.433,-0.433 1.032,-0.714 1.8,-0.846 0.769,-0.132 1.765,-0.198 2.988,-0.198 1.2,0 2.178,0.066 2.934,0.198 0.757,0.132 1.345,0.413 1.765,0.846 0.42,0.432 0.707,1.044 0.864,1.836 0.155,0.792 0.233,1.849 0.233,3.168 v 3.528 h -4.031 z" /><path
   style="fill:#ffffff"
   inkscape:connector-curvature="0"
   id="path951"
   d="m 187.50581,111.29291 h -4.14 V 82.852916 h 4.14 z" /><path
   style="fill:#ffffff"
   inkscape:connector-curvature="0"
   id="path953"
   d="M 190.78181,111.29291 V 82.852916 h 8.1 v 3.421 h -3.96 v 4.14 h 3.853 v 3.276 h -3.853 v 14.038994 h 3.996 v 3.564 c -0.815,0.384 -1.386,0.756 -1.71,1.116 -0.324,0.359 -0.485,0.852 -0.485,1.476 0,0.408 0.107,0.702 0.323,0.882 0.217,0.181 0.576,0.271 1.08,0.271 h 1.296 v 2.916 h -2.808 c -0.624,0 -1.128,-0.078 -1.512,-0.234 -0.385,-0.156 -0.696,-0.372 -0.937,-0.647 -0.24,-0.276 -0.402,-0.589 -0.485,-0.937 -0.085,-0.348 -0.126,-0.726 -0.126,-1.134 0,-1.032 0.275,-1.807 0.827,-2.322 0.552,-0.517 1.477,-0.978 2.772,-1.386 h -6.371 z" /><path
   style="fill:#ffffff"
   inkscape:connector-curvature="0"
   id="path955"
   d="m 216.59381,111.29291 h -9.972 v -3.6 l 5.724,-21.384994 h -5.148 v -3.456 h 9.324 v 2.809 l -5.58,22.066994 h 5.652 z" /><path
   style="fill:#ffffff"
   inkscape:connector-curvature="0"
   id="path957"
   d="m 233.04581,111.29291 -4.284,-17.747994 h -0.144 v 17.747994 h -3.564 V 82.852916 h 4.572 l 4.104,18.251994 h 0.145 V 82.851916 h 3.6 v 28.439994 h -4.429 z" /><path
   style="fill:#ffffff"
   inkscape:connector-curvature="0"
   id="path959"
   d="m 247.98481,111.29291 v -6.336 h -3.491 v 6.336 h -4.032 V 88.467916 c 0,-1.319 0.077,-2.369 0.233,-3.149 0.156,-0.78 0.45,-1.38 0.883,-1.801 0.432,-0.419 1.025,-0.695 1.781,-0.827 0.757,-0.132 1.723,-0.198 2.898,-0.198 1.175,0 2.142,0.072 2.897,0.216 0.757,0.144 1.356,0.432 1.801,0.864 0.443,0.432 0.749,1.038 0.918,1.817 0.167,0.78 0.252,1.807 0.252,3.078 v 22.823994 h -4.14 z m -1.764,-25.091994 c -0.36,0 -0.654,0.03 -0.882,0.09 -0.229,0.061 -0.408,0.168 -0.54,0.324 -0.132,0.156 -0.216,0.384 -0.252,0.684 -0.036,0.301 -0.054,0.69 -0.054,1.17 v 13.103994 h 3.491 V 88.467916 c 0,-0.479 -0.023,-0.869 -0.071,-1.17 -0.049,-0.3 -0.133,-0.527 -0.252,-0.684 -0.121,-0.156 -0.301,-0.264 -0.54,-0.324 -0.24,-0.059 -0.539,-0.089 -0.9,-0.089 z" /><path
   style="fill:#ffffff"
   inkscape:connector-curvature="0"
   id="path961"
   d="m 271.16881,82.851916 v 28.439994 h -3.384 V 91.204916 h -0.144 l -2.628,20.087994 h -3.708 l -2.628,-20.231994 h -0.145 v 20.231994 h -3.42 V 82.852916 h 5.796 l 2.16,19.115994 h 0.144 l 2.196,-19.115994 h 5.761 z" /><path
   style="fill:#ffffff"
   inkscape:connector-curvature="0"
   id="path963"
   d="m 278.58481,111.29291 h -4.14 V 82.852916 h 4.14 z" />
</svg>